<svg width="332" height="332" viewBox="0 0 332 332" fill="none" xmlns="http://www.w3.org/2000/svg">
<g filter="url(#filter0_d_1455_2509)">
<rect x="90.9366" y="66.4397" width="176" height="176" rx="43" transform="rotate(8 90.9366 66.4397)" fill="url(#paint0_linear_1455_2509)" stroke="white" stroke-width="4"/>
<g opacity="0.7">
<path d="M205.482 139.132C210.59 139.85 214.923 141.212 218.485 143.22C222.048 145.227 224.644 147.823 226.274 151.006C227.935 154.194 228.465 157.916 227.867 162.173C227.348 165.867 226.321 168.873 224.786 171.189C223.251 173.505 221.305 175.328 218.949 176.654C217.342 177.555 215.587 178.295 213.683 178.88L223.819 206.747C223.848 206.828 223.858 206.917 223.846 207.002C223.804 207.298 223.525 207.502 223.222 207.46L208.499 205.391C207.349 205.229 206.387 204.449 206.013 203.374L199.074 183.463L189.125 182.065L186.702 199.306C186.472 200.943 184.925 202.078 183.247 201.842L173.317 200.446C171.638 200.21 170.465 198.693 170.695 197.056L178.935 138.423C179.165 136.785 180.711 135.65 182.39 135.886L194.115 137.534L205.484 139.132L205.482 139.132ZM199.931 150.198C196.452 149.709 193.247 152.041 192.774 155.406L191.057 167.621C191.025 167.846 191.187 168.054 191.421 168.086L204.05 169.861C207.529 170.35 210.734 168.019 211.207 164.653L212.125 158.126C212.598 154.76 210.16 151.636 206.68 151.147L199.931 150.198Z" fill="#E54500"/>
<path d="M151.465 131.539C163.211 133.19 171.411 143.939 169.779 155.55C169.779 155.55 164.909 190.199 163.66 199.088C163.66 199.088 163.363 199.046 162.243 198.889C153.526 197.664 119.609 192.897 119.609 192.897C107.863 191.246 99.6633 180.498 101.295 168.889L104.46 146.37C106.092 134.759 116.936 126.687 128.682 128.338L151.465 131.539ZM138.067 144.447C133.904 143.862 130.055 146.743 129.473 150.884L129.087 153.632L126.303 153.241C122.139 152.656 118.29 155.537 117.708 159.678C117.127 163.817 120.032 167.649 124.196 168.235L126.96 168.623L126.574 171.371C125.992 175.51 128.897 179.342 133.061 179.928C137.225 180.513 141.074 177.63 141.656 173.491L142.042 170.743L144.808 171.131C148.972 171.717 152.821 168.836 153.403 164.695C153.984 160.555 151.081 156.723 146.915 156.138L144.169 155.752L144.555 153.004C145.137 148.865 142.233 145.033 138.067 144.447Z" fill="#E54500"/>
</g>
</g>
<defs>
<filter id="filter0_d_1455_2509" x="0" y="0" width="331.664" height="331.661" filterUnits="userSpaceOnUse" color-interpolation-filters="sRGB">
<feFlood flood-opacity="0" result="BackgroundImageFix"/>
<feColorMatrix in="SourceAlpha" type="matrix" values="0 0 0 0 0 0 0 0 0 0 0 0 0 0 0 0 0 0 127 0" result="hardAlpha"/>
<feOffset/>
<feGaussianBlur stdDeviation="35"/>
<feComposite in2="hardAlpha" operator="out"/>
<feColorMatrix type="matrix" values="0 0 0 0 0 0 0 0 0 0 0 0 0 0 0 0 0 0 0.2 0"/>
<feBlend mode="normal" in2="BackgroundImageFix" result="effect1_dropShadow_1455_2509"/>
<feBlend mode="normal" in="SourceGraphic" in2="effect1_dropShadow_1455_2509" result="shape"/>
</filter>
<linearGradient id="paint0_linear_1455_2509" x1="89.2344" y1="64.1808" x2="244.934" y2="244.181" gradientUnits="userSpaceOnUse">
<stop stop-color="#F0FFFD"/>
<stop offset="1" stop-color="#FFF3EF"/>
</linearGradient>
</defs>
</svg>
