<svg width="332" height="332" viewBox="0 0 332 332" fill="none" xmlns="http://www.w3.org/2000/svg">
<g filter="url(#filter0_d_1455_2514)">
<rect x="66.4386" y="90.9341" width="176" height="176" rx="43" transform="rotate(-8 66.4386 90.9341)" fill="url(#paint0_linear_1455_2514)" stroke="white" stroke-width="4"/>
<g opacity="0.7">
<path d="M196.451 128.086C201.375 127.394 205.755 127.531 209.596 128.495C213.438 129.46 216.543 131.25 218.914 133.866C221.313 136.478 222.81 139.909 223.408 144.158C223.926 147.846 223.789 151.011 222.993 153.65C222.198 156.289 220.89 158.565 219.067 160.476C217.823 161.775 216.398 162.961 214.793 164.038L231.713 188.057C231.762 188.127 231.795 188.209 231.807 188.295C231.849 188.59 231.646 188.862 231.354 188.903L217.163 190.897C216.054 191.053 214.953 190.565 214.316 189.633L202.507 172.39L192.917 173.737L195.336 190.948C195.566 192.583 194.441 194.091 192.823 194.318L183.252 195.663C181.634 195.89 180.137 194.751 179.908 193.117L171.681 134.584C171.452 132.949 172.576 131.442 174.195 131.214L185.495 129.626L196.453 128.086L196.451 128.086ZM194.305 140.214C190.951 140.686 188.615 143.791 189.087 147.151L190.8 159.344C190.832 159.569 191.038 159.725 191.263 159.693L203.436 157.982C206.789 157.511 209.126 154.405 208.654 151.046L207.738 144.53C207.266 141.17 204.164 138.829 200.81 139.3L194.305 140.214Z" fill="#8D5CF6"/>
<path d="M142.962 136.026C154.619 134.387 165.383 142.399 167.002 153.922L173.075 197.133C172.52 197.211 172.448 197.222 171.669 197.331L129.355 203.278C117.698 204.916 106.935 196.905 105.315 185.383L102.174 163.033C100.555 151.51 108.693 140.842 120.35 139.204L142.962 136.026ZM133.711 152.006C129.579 152.586 126.695 156.388 127.273 160.498L127.656 163.225L124.893 163.613C120.761 164.194 117.877 167.995 118.455 172.106C119.032 176.214 122.852 179.075 126.985 178.494L129.728 178.109L130.111 180.836C130.689 184.944 134.509 187.805 138.641 187.224C142.774 186.644 145.657 182.84 145.08 178.732L144.697 176.005L147.442 175.619C151.574 175.038 154.458 171.237 153.88 167.127C153.303 163.018 149.485 160.157 145.351 160.738L142.625 161.121L142.241 158.394C141.664 154.286 137.846 151.424 133.711 152.006Z" fill="#8D5CF6"/>
</g>
</g>
<defs>
<filter id="filter0_d_1455_2514" x="0" y="0" width="331.656" height="331.661" filterUnits="userSpaceOnUse" color-interpolation-filters="sRGB">
<feFlood flood-opacity="0" result="BackgroundImageFix"/>
<feColorMatrix in="SourceAlpha" type="matrix" values="0 0 0 0 0 0 0 0 0 0 0 0 0 0 0 0 0 0 127 0" result="hardAlpha"/>
<feOffset/>
<feGaussianBlur stdDeviation="35"/>
<feComposite in2="hardAlpha" operator="out"/>
<feColorMatrix type="matrix" values="0 0 0 0 0 0 0 0 0 0 0 0 0 0 0 0 0 0 0.2 0"/>
<feBlend mode="normal" in2="BackgroundImageFix" result="effect1_dropShadow_1455_2514"/>
<feBlend mode="normal" in="SourceGraphic" in2="effect1_dropShadow_1455_2514" result="shape"/>
</filter>
<linearGradient id="paint0_linear_1455_2514" x1="64.1797" y1="89.2319" x2="219.88" y2="269.232" gradientUnits="userSpaceOnUse">
<stop stop-color="#F0FFFD"/>
<stop offset="1" stop-color="#FFF3EF"/>
</linearGradient>
</defs>
</svg>
