<svg width="297" height="297" viewBox="0 0 297 297" fill="none" xmlns="http://www.w3.org/2000/svg">
<g filter="url(#filter0_d_1455_2504)">
<rect x="64.1925" y="101.678" width="136" height="136" rx="33" transform="rotate(-16 64.1925 101.678)" fill="url(#paint0_linear_1455_2504)" stroke="white" stroke-width="4"/>
<g opacity="0.4">
<path d="M168.924 116.808C172.709 115.722 176.156 115.338 179.27 115.653C182.384 115.968 185.008 117.003 187.146 118.759C189.305 120.508 190.846 122.991 191.767 126.206C192.568 128.997 192.798 131.456 192.457 133.584C192.116 135.711 191.333 137.616 190.109 139.296C189.272 140.438 188.283 141.514 187.14 142.525L202.967 159.184C203.013 159.233 203.047 159.293 203.066 159.358C203.13 159.581 203 159.814 202.775 159.878L191.866 163.006C191.014 163.251 190.098 162.996 189.5 162.348L178.403 150.35L171.031 152.464L174.765 165.487C175.12 166.724 174.399 168.015 173.155 168.371L165.798 170.481C164.554 170.838 163.259 170.125 162.905 168.888L150.204 124.598C149.85 123.361 150.57 122.07 151.814 121.714L160.501 119.223L168.925 116.807L168.924 116.808ZM168.537 126.416C165.959 127.155 164.459 129.815 165.188 132.357L167.834 141.584C167.883 141.754 168.061 141.851 168.234 141.801L177.591 139.118C180.169 138.379 181.669 135.719 180.94 133.176L179.526 128.246C178.797 125.704 176.116 124.242 173.538 124.982L168.537 126.416Z" fill="#2DB9B1"/>
<path d="M127.597 128.682C136.486 126.133 145.735 131.188 148.254 139.976L157.703 172.926C156.63 173.234 157.703 172.926 156.63 173.234L124.364 182.486C115.475 185.035 106.226 179.98 103.707 171.194L98.8197 154.151C96.3 145.364 101.464 136.175 110.354 133.626L127.597 128.682ZM122.147 142.124C118.996 143.028 117.168 146.3 118.067 149.435L118.663 151.514L116.557 152.118C113.405 153.022 111.578 156.294 112.476 159.428C113.375 162.561 116.659 164.369 119.81 163.466L121.902 162.866L122.499 164.945C123.397 168.078 126.682 169.886 129.833 168.983C132.984 168.079 134.811 164.805 133.913 161.673L133.317 159.593L135.41 158.993C138.561 158.089 140.389 154.817 139.49 151.682C138.592 148.55 135.309 146.741 132.156 147.645L130.078 148.241L129.481 146.162C128.583 143.029 125.3 141.22 122.147 142.124Z" fill="#2DB9B1"/>
</g>
</g>
<defs>
<filter id="filter0_d_1455_2504" x="0" y="0" width="296.602" height="296.601" filterUnits="userSpaceOnUse" color-interpolation-filters="sRGB">
<feFlood flood-opacity="0" result="BackgroundImageFix"/>
<feColorMatrix in="SourceAlpha" type="matrix" values="0 0 0 0 0 0 0 0 0 0 0 0 0 0 0 0 0 0 127 0" result="hardAlpha"/>
<feOffset/>
<feGaussianBlur stdDeviation="35"/>
<feComposite in2="hardAlpha" operator="out"/>
<feColorMatrix type="matrix" values="0 0 0 0 0 0 0 0 0 0 0 0 0 0 0 0 0 0 0.1 0"/>
<feBlend mode="normal" in2="BackgroundImageFix" result="effect1_dropShadow_1455_2504"/>
<feBlend mode="normal" in="SourceGraphic" in2="effect1_dropShadow_1455_2504" result="shape"/>
</filter>
<linearGradient id="paint0_linear_1455_2504" x1="61.7188" y1="100.307" x2="182.819" y2="240.307" gradientUnits="userSpaceOnUse">
<stop stop-color="#F0FFFD"/>
<stop offset="1" stop-color="#FFF3EF"/>
</linearGradient>
</defs>
</svg>
