<svg width="360" height="360" viewBox="0 0 360 360" fill="none" xmlns="http://www.w3.org/2000/svg">
<g filter="url(#filter0_d_1455_2519)">
<rect x="72" y="72" width="216" height="216" rx="53" fill="url(#paint0_linear_1455_2519)" stroke="url(#paint1_linear_1455_2519)" stroke-width="4"/>
<path d="M223.805 140.4C229.945 140.4 235.278 141.305 239.809 143.116C244.341 144.927 247.831 147.607 250.28 151.157C252.765 154.707 254.007 159.091 254.007 164.306C254.007 168.833 253.295 172.619 251.869 175.661C250.443 178.703 248.451 181.222 245.894 183.214C244.15 184.567 242.204 185.753 240.056 186.778L256.619 218.551C256.667 218.644 256.693 218.748 256.693 218.853C256.693 219.215 256.398 219.508 256.034 219.508H238.338C236.955 219.508 235.692 218.734 235.074 217.505L223.597 194.752H211.638V215.878C211.638 217.884 210.004 219.508 207.986 219.508H196.051C194.033 219.508 192.398 217.884 192.398 215.878V144.031C192.398 142.025 194.033 140.4 196.051 140.4H210.143H223.808H223.805ZM219.096 154.635C214.914 154.635 211.523 157.978 211.523 162.102V177.069C211.523 177.345 211.748 177.567 212.029 177.567H227.208C231.39 177.567 234.781 174.224 234.781 170.1V162.102C234.781 157.978 231.39 154.635 227.208 154.635H219.096Z" fill="#0048FF"/>
<path d="M157.477 140.4C171.92 140.4 183.628 151.971 183.628 166.247V219.782C182.94 219.782 182.851 219.782 181.886 219.782H129.464C115.021 219.782 103.312 208.211 103.312 193.937V166.247C103.312 151.971 115.021 140.4 129.464 140.4H157.477ZM143.51 158.235C138.39 158.235 134.238 162.36 134.238 167.452V170.831H130.815C125.695 170.831 121.543 174.957 121.543 180.049C121.543 185.139 125.695 189.267 130.815 189.267H134.214V192.646C134.214 197.736 138.366 201.864 143.486 201.864C148.606 201.864 152.758 197.736 152.758 192.646V189.267H156.16C161.279 189.267 165.432 185.141 165.432 180.049C165.432 174.959 161.282 170.831 156.16 170.831H152.782V167.452C152.782 162.363 148.632 158.235 143.51 158.235Z" fill="#0048FF"/>
</g>
<defs>
<filter id="filter0_d_1455_2519" x="0" y="0" width="360" height="360" filterUnits="userSpaceOnUse" color-interpolation-filters="sRGB">
<feFlood flood-opacity="0" result="BackgroundImageFix"/>
<feColorMatrix in="SourceAlpha" type="matrix" values="0 0 0 0 0 0 0 0 0 0 0 0 0 0 0 0 0 0 127 0" result="hardAlpha"/>
<feOffset/>
<feGaussianBlur stdDeviation="35"/>
<feComposite in2="hardAlpha" operator="out"/>
<feColorMatrix type="matrix" values="0 0 0 0 0 0 0 0 0 0 0 0 0 0 0 0 0 0 0.3 0"/>
<feBlend mode="normal" in2="BackgroundImageFix" result="effect1_dropShadow_1455_2519"/>
<feBlend mode="normal" in="SourceGraphic" in2="effect1_dropShadow_1455_2519" result="shape"/>
</filter>
<linearGradient id="paint0_linear_1455_2519" x1="70" y1="70" x2="260.3" y2="290" gradientUnits="userSpaceOnUse">
<stop stop-color="#F0FFFD"/>
<stop offset="1" stop-color="#FFF3EF"/>
</linearGradient>
<linearGradient id="paint1_linear_1455_2519" x1="92" y1="79.9" x2="260.3" y2="274.6" gradientUnits="userSpaceOnUse">
<stop offset="0.0769231" stop-color="white"/>
<stop offset="0.586538" stop-color="#E54500"/>
<stop offset="1" stop-color="#8D5CF6"/>
</linearGradient>
</defs>
</svg>
