<svg width="297" height="297" viewBox="0 0 297 297" fill="none" xmlns="http://www.w3.org/2000/svg">
<g filter="url(#filter0_d_1455_2499)">
<rect x="101.676" y="64.1913" width="136" height="136" rx="33" transform="rotate(16 101.676 64.1913)" fill="url(#paint0_linear_1455_2499)" stroke="white" stroke-width="4"/>
<g opacity="0.4">
<path d="M182.031 131.607C185.756 132.675 188.833 134.152 191.268 136.039C193.702 137.926 195.353 140.159 196.221 142.739C197.111 145.325 197.102 148.201 196.195 151.365C195.407 154.111 194.317 156.284 192.922 157.882C191.528 159.479 189.882 160.661 187.984 161.424C186.69 161.942 185.303 162.323 183.822 162.571L188.343 184.729C188.356 184.793 188.353 184.861 188.335 184.925C188.272 185.145 188.042 185.271 187.821 185.208L177.085 182.129C176.246 181.889 175.615 181.199 175.454 180.346L172.449 164.546L165.194 162.465L161.519 175.282C161.17 176.499 159.895 177.2 158.671 176.849L151.43 174.773C150.206 174.422 149.497 173.152 149.846 171.935L162.345 128.346C162.694 127.129 163.968 126.428 165.192 126.779L173.742 129.231L182.032 131.608L182.031 131.607ZM176.697 139.424C174.16 138.697 171.521 140.135 170.804 142.637L168.2 151.717C168.152 151.885 168.25 152.058 168.42 152.107L177.63 154.748C180.167 155.475 182.806 154.037 183.523 151.535L184.914 146.683C185.632 144.181 184.156 141.563 181.619 140.836L176.697 139.424Z" fill="#FFAE00"/>
<path d="M141.908 120.437C150.658 122.946 155.741 131.99 153.261 140.639L143.961 173.072C143.077 172.819 143.49 172.937 142.906 172.769L111.147 163.663C102.397 161.154 97.3137 152.11 99.7934 143.462L104.604 126.687C107.084 118.038 116.187 113.062 124.937 115.571L141.908 120.437ZM130.348 128.815C127.247 127.926 124.014 129.704 123.13 132.789L122.543 134.836L120.469 134.242C117.367 133.352 114.135 135.13 113.25 138.215C112.366 141.299 114.165 144.521 117.266 145.411L119.326 146.001L118.739 148.048C117.854 151.132 119.653 154.354 122.755 155.243C125.856 156.133 129.089 154.353 129.973 151.27L130.56 149.223L132.621 149.813C135.723 150.703 138.955 148.925 139.84 145.84C140.724 142.756 138.927 139.534 135.824 138.644L133.778 138.058L134.365 136.011C135.249 132.927 133.452 129.705 130.348 128.815Z" fill="#FFAE00"/>
</g>
</g>
<defs>
<filter id="filter0_d_1455_2499" x="0" y="0" width="296.602" height="296.601" filterUnits="userSpaceOnUse" color-interpolation-filters="sRGB">
<feFlood flood-opacity="0" result="BackgroundImageFix"/>
<feColorMatrix in="SourceAlpha" type="matrix" values="0 0 0 0 0 0 0 0 0 0 0 0 0 0 0 0 0 0 127 0" result="hardAlpha"/>
<feOffset/>
<feGaussianBlur stdDeviation="35"/>
<feComposite in2="hardAlpha" operator="out"/>
<feColorMatrix type="matrix" values="0 0 0 0 0 0 0 0 0 0 0 0 0 0 0 0 0 0 0.1 0"/>
<feBlend mode="normal" in2="BackgroundImageFix" result="effect1_dropShadow_1455_2499"/>
<feBlend mode="normal" in="SourceGraphic" in2="effect1_dropShadow_1455_2499" result="shape"/>
</filter>
<linearGradient id="paint0_linear_1455_2499" x1="100.305" y1="61.7175" x2="221.405" y2="201.718" gradientUnits="userSpaceOnUse">
<stop stop-color="#F0FFFD"/>
<stop offset="1" stop-color="#FFF3EF"/>
</linearGradient>
</defs>
</svg>
