<svg width="194" height="50" viewBox="0 0 194 50" fill="none" xmlns="http://www.w3.org/2000/svg">
<path d="M172.737 0C176.582 0 179.922 0.568431 182.76 1.70529C185.599 2.84216 187.784 4.52501 189.318 6.75386C190.875 8.98271 191.652 11.7351 191.652 15.0096C191.652 17.8517 191.206 20.2287 190.313 22.1389C189.42 24.0491 188.173 25.6303 186.571 26.8808C185.479 27.7305 184.26 28.4754 182.915 29.1186L193.288 49.0676C193.318 49.1259 193.335 49.1918 193.335 49.2576C193.335 49.4849 193.15 49.6689 192.922 49.6689H181.839C180.973 49.6689 180.182 49.1828 179.794 48.4109L172.606 34.1253H165.116V47.3892C165.116 48.6488 164.093 49.6689 162.829 49.6689H155.354C154.09 49.6689 153.066 48.6488 153.066 47.3892V2.27971C153.066 1.02018 154.09 0 155.354 0H172.737ZM169.787 8.93784C167.168 8.93784 165.044 11.0365 165.044 13.6259V23.023C165.044 23.1965 165.185 23.3356 165.361 23.3356H174.868C177.487 23.3356 179.611 21.2369 179.611 18.6475V13.6259C179.611 11.0365 177.487 8.93784 174.868 8.93784H169.787Z" fill="#FF6600"/>
<path d="M90.0026 0V50H78.3359V0H90.0026Z" fill="white"/>
<path d="M71.6667 0V50H60V0H71.6667Z" fill="white"/>
<path d="M54.4996 14.5246V50H43.9559V14.5246H54.4996ZM43.332 5.37705C43.332 3.80328 43.8727 2.51366 44.9541 1.5082C46.0355 0.502732 47.4393 0 49.1654 0C50.8915 0 52.2952 0.502732 53.3766 1.5082C54.458 2.51366 54.9987 3.80328 54.9987 5.37705C54.9987 6.95082 54.458 8.24044 53.3766 9.2459C52.2952 10.2514 50.8915 10.7541 49.1654 10.7541C47.4393 10.7541 46.0355 10.2514 44.9541 9.2459C43.8727 8.24044 43.332 6.95082 43.332 5.37705Z" fill="white"/>
<path d="M20.2041 28.7431H7.44898L7.38095 20.8448H17.7211C19.5805 20.8448 21.0658 20.6387 22.1769 20.2266C23.288 19.7917 24.093 19.1621 24.5918 18.3379C25.1134 17.5137 25.3742 16.4835 25.3742 15.2473C25.3742 13.8278 25.1134 12.6832 24.5918 11.8132C24.0703 10.9432 23.2426 10.3136 22.1088 9.92445C20.9977 9.51236 19.5578 9.30632 17.7891 9.30632H11.9388V50H0V0H17.7891C20.8503 0 23.5828 0.286172 25.9864 0.858517C28.39 1.40797 30.4308 2.25504 32.1088 3.39973C33.8095 4.54441 35.102 5.98672 35.9864 7.72665C36.8708 9.44368 37.3129 11.4698 37.3129 13.8049C37.3129 15.8425 36.8821 17.7541 36.0204 19.5398C35.1587 21.3256 33.7188 22.7793 31.7007 23.9011C29.7052 25 26.9728 25.5723 23.5034 25.6181L20.2041 28.7431ZM19.7279 50H4.55782L8.63946 40.728H19.7279C21.3605 40.728 22.6644 40.4762 23.6395 39.9725C24.6372 39.446 25.3515 38.7592 25.7823 37.9121C26.2358 37.0421 26.4626 36.0806 26.4626 35.0275C26.4626 33.7454 26.2472 32.6351 25.8163 31.6964C25.4082 30.7578 24.7506 30.0366 23.8435 29.533C22.9365 29.0064 21.7234 28.7431 20.2041 28.7431H10.1701L10.2381 20.8448H22.2449L25.034 24.0041C28.3447 23.8668 30.9637 24.3361 32.8912 25.4121C34.8413 26.4881 36.2358 27.9075 37.0748 29.6703C37.9138 31.4331 38.3333 33.2761 38.3333 35.1992C38.3333 38.473 37.6304 41.2088 36.2245 43.4066C34.8413 45.6044 32.7664 47.2527 30 48.3517C27.2336 49.4506 23.8095 50 19.7279 50Z" fill="white"/>
<path fill-rule="evenodd" clip-rule="evenodd" d="M132.975 0H110.358C102.797 0 96.668 6.12926 96.668 13.6903V36.3097C96.668 43.8707 102.797 50 110.358 50H146.666V13.6903C146.666 6.12926 140.537 0 132.975 0Z" fill="#FF6600"/>
<path d="M135.315 14.5023C135.315 11.79 133.349 9.82549 130.628 9.82406C124.659 9.8198 118.69 9.82193 112.721 9.82478C112.426 9.82478 112.126 9.82904 111.837 9.88159C109.548 10.2949 108.025 12.1238 108.023 14.4526C108.02 18.1359 108.023 21.8191 108.023 25.5023C108.023 29.2687 108.016 33.0343 108.023 36.8006C108.026 38.5407 109.403 39.8653 111.141 39.8432C111.979 39.8326 112.662 39.4278 113.326 38.9959C114.876 37.9874 116.376 38.0414 117.939 39.0215C120.446 40.5932 122.991 40.557 125.491 38.9697C126.972 38.0293 128.432 38.0016 129.918 38.942C130.588 39.366 131.269 39.78 132.095 39.829C133.871 39.9356 135.314 38.5442 135.315 36.7083C135.317 29.3063 135.317 21.9043 135.315 14.5023ZM124.999 18.5599C125.312 19.0797 125.528 19.6579 125.646 20.2935H127.741C128.063 20.2935 128.332 20.4057 128.547 20.6295C128.762 20.8539 128.869 21.1181 128.869 21.4221C128.869 21.7445 128.762 22.0137 128.547 22.2282C128.332 22.4434 128.063 22.5506 127.741 22.5506H125.672C125.563 23.241 125.344 23.8731 125.012 24.4455C124.519 25.2971 123.838 25.9597 122.969 26.4341C122.1 26.9093 121.102 27.1465 119.972 27.1465H118.548L123.977 32.5222C124.121 32.6479 124.223 32.7957 124.286 32.9654C124.349 33.1359 124.38 33.3191 124.38 33.5165C124.38 33.9292 124.254 34.2786 124.004 34.5648C123.752 34.8511 123.403 34.9945 122.955 34.9945C122.687 34.9945 122.453 34.9405 122.256 34.8333C122.059 34.7261 121.88 34.5826 121.719 34.4029L114.058 26.7694C113.932 26.6444 113.834 26.4967 113.763 26.3262C113.691 26.1557 113.655 25.9817 113.655 25.802C113.655 25.4256 113.79 25.1124 114.059 24.861C114.327 24.6103 114.641 24.4846 115 24.4846H119.865C120.779 24.4846 121.513 24.2118 122.069 23.665C122.386 23.3532 122.612 22.981 122.748 22.5492H114.624C114.319 22.5492 114.055 22.442 113.831 22.2268C113.606 22.0116 113.495 21.7431 113.495 21.4207C113.495 21.116 113.606 20.8518 113.831 20.628C114.055 20.4043 114.319 20.2921 114.624 20.2921H122.714C122.661 20.1359 122.599 19.9832 122.526 19.8354C122.274 19.334 121.92 18.9349 121.464 18.6394C121.007 18.344 120.456 18.1962 119.811 18.1962H114.624C114.319 18.1962 114.055 18.0847 113.831 17.8603C113.606 17.6366 113.495 17.3724 113.495 17.0677C113.495 16.7452 113.606 16.4725 113.831 16.2481C114.055 16.0243 114.319 15.9121 114.624 15.9121H127.74C128.062 15.9121 128.332 16.0243 128.546 16.2481C128.761 16.4725 128.869 16.7452 128.869 17.0677C128.869 17.3724 128.761 17.6366 128.546 17.8603C128.331 18.0847 128.062 18.1962 127.74 18.1962H124.758C124.842 18.3134 124.923 18.4334 124.998 18.5591L124.999 18.5599Z" fill="white"/>
</svg>
