<svg width="203" height="51" viewBox="0 0 203 51" fill="none" xmlns="http://www.w3.org/2000/svg">
<path d="M182.386 0C186.234 0 189.577 0.568894 192.417 1.70668C195.258 2.84447 197.445 4.5287 198.981 6.75936C200.538 8.99002 201.316 11.7447 201.316 15.0218C201.316 17.8663 200.87 20.2451 199.976 22.1569C199.083 24.0687 197.834 25.6511 196.231 26.9027C195.138 27.753 193.918 28.4986 192.572 29.1424L202.954 49.1075C202.984 49.1659 203 49.2318 203 49.2977C203 49.5252 202.816 49.7094 202.587 49.7094H191.495C190.628 49.7094 189.837 49.2228 189.449 48.4503L182.255 34.1531H174.759V47.4278C174.759 48.6884 173.734 49.7094 172.47 49.7094H164.989C163.724 49.7094 162.699 48.6884 162.699 47.4278V2.28156C162.699 1.02102 163.724 0 164.989 0H182.386ZM179.434 8.94511C176.812 8.94511 174.687 11.0455 174.687 13.637V23.0417C174.687 23.2154 174.828 23.3546 175.004 23.3546H184.519C187.14 23.3546 189.266 21.2542 189.266 18.6627V13.637C189.266 11.0455 187.14 8.94511 184.519 8.94511H179.434Z" fill="#0062FF"/>
<path d="M12.7226 0.235718V50.0419H0.75V0.235718H12.7226Z" fill="white"/>
<path d="M38.9447 33.1434H26.5616V23.8731H38.9447C40.6323 23.8731 42.0006 23.5881 43.0497 23.0179C44.0987 22.4478 44.8626 21.661 45.3416 20.6576C45.8433 19.6314 46.0941 18.4797 46.0941 17.2026C46.0941 15.8343 45.8433 14.5687 45.3416 13.4056C44.8626 12.2426 44.0987 11.3076 43.0497 10.6006C42.0006 9.87084 40.6323 9.50596 38.9447 9.50596H31.077V50.0419H19.0702V0.235718H38.9447C42.9356 0.235718 46.3678 0.965478 49.2412 2.425C52.1374 3.88452 54.3609 5.89136 55.9117 8.44552C57.4624 10.9769 58.2378 13.8731 58.2378 17.1342C58.2378 20.3497 57.4624 23.1548 55.9117 25.5493C54.3609 27.9438 52.1374 29.8138 49.2412 31.1593C46.3678 32.482 42.9356 33.1434 38.9447 33.1434Z" fill="white"/>
<path d="M78.7815 50.0419H67.7324L67.8008 40.8058H78.7815C81.062 40.8058 82.989 40.2585 84.5625 39.1639C86.1589 38.0692 87.3675 36.4387 88.1885 34.2722C89.0323 32.0829 89.4542 29.3919 89.4542 26.1992V24.0442C89.4542 21.6496 89.2148 19.5516 88.7358 17.75C88.2797 15.9256 87.5956 14.409 86.6834 13.2004C85.7712 11.9689 84.6309 11.0453 83.2626 10.4296C81.9171 9.81382 80.3664 9.50596 78.6104 9.50596H67.5272V0.235718H78.6104C81.9856 0.235718 85.0756 0.817246 87.8807 1.9803C90.7085 3.12055 93.1486 4.76251 95.2011 6.90618C97.2763 9.02705 98.8727 11.547 99.9901 14.466C101.13 17.3623 101.7 20.5778 101.7 24.1126V26.1992C101.7 29.7112 101.13 32.9267 99.9901 35.8457C98.8727 38.7648 97.2877 41.2847 95.2353 43.4056C93.1828 45.5265 90.7541 47.1684 87.9491 48.3315C85.1669 49.4717 82.111 50.0419 78.7815 50.0419ZM74.6081 0.235718V50.0419H62.6013V0.235718H74.6081Z" fill="white"/>
<path fill-rule="evenodd" clip-rule="evenodd" d="M142.593 0H119.956C112.388 0 106.254 6.13425 106.254 13.7015V36.3392C106.254 43.9065 112.388 50.0407 119.956 50.0407H156.295V13.7015C156.295 6.13425 150.16 0 142.593 0Z" fill="#0062FF"/>
<path fill-rule="evenodd" clip-rule="evenodd" d="M145.308 37.3798C144.369 37.3798 143.605 36.6154 143.605 35.6765V32.4976H128.535V24.8987H142.824C145.133 24.8987 147.011 26.7773 147.011 29.086V35.6765C147.011 36.6154 146.247 37.3798 145.308 37.3798Z" fill="white"/>
<path d="M142.825 24.9697C145.094 24.9697 146.941 26.8164 146.941 29.0861V35.6765C146.941 36.5765 146.209 37.3089 145.309 37.3089C144.409 37.3089 143.676 36.5765 143.676 35.6765V32.4267H128.607V24.9697H142.825ZM142.825 24.8278H128.465V32.5687H143.534V35.6765C143.534 36.6566 144.328 37.4508 145.309 37.4508C146.289 37.4508 147.083 36.6566 147.083 35.6765V29.0861C147.083 26.7341 145.177 24.8278 142.825 24.8278Z" fill="white"/>
<path fill-rule="evenodd" clip-rule="evenodd" d="M117.313 37.3829C116.374 37.3829 115.609 36.6186 115.609 35.6796V18.7656C115.609 17.8266 116.374 17.0623 117.313 17.0623C118.252 17.0623 119.016 17.8266 119.016 18.7656V27.5931H126.095V32.5008H119.016V35.6796C119.016 36.6186 118.252 37.3829 117.313 37.3829Z" fill="white"/>
<path d="M117.313 17.1333C118.213 17.1333 118.946 17.8657 118.946 18.7656V27.6641H126.025V32.4299H118.946V35.6797C118.946 36.5796 118.213 37.312 117.313 37.312C116.413 37.312 115.681 36.5796 115.681 35.6797V18.7656C115.681 17.8657 116.413 17.1333 117.313 17.1333ZM117.313 16.9913C116.333 16.9913 115.539 17.7855 115.539 18.7656V35.6797C115.539 36.6598 116.333 37.454 117.313 37.454C118.293 37.454 119.088 36.6598 119.088 35.6797V32.5718H126.167V27.5221H119.088V18.7656C119.088 17.7855 118.293 16.9913 117.313 16.9913Z" fill="white"/>
<path fill-rule="evenodd" clip-rule="evenodd" d="M124.695 24.1989C123.06 24.1989 121.73 22.8689 121.73 21.2344C121.73 19.5999 123.06 18.2699 124.695 18.2699C126.329 18.2699 127.659 19.5999 127.659 21.2344C127.659 22.8689 126.329 24.1989 124.695 24.1989Z" fill="white"/>
<path d="M124.692 18.3391C126.287 18.3391 127.585 19.6372 127.585 21.2326C127.585 22.8281 126.287 24.1261 124.692 24.1261C123.096 24.1261 121.798 22.8281 121.798 21.2326C121.798 19.6372 123.096 18.3391 124.692 18.3391ZM124.692 18.1971C123.015 18.1971 121.656 19.5563 121.656 21.2326C121.656 22.909 123.015 24.2681 124.692 24.2681C126.368 24.2681 127.727 22.909 127.727 21.2326C127.727 19.5563 126.368 18.1971 124.692 18.1971Z" fill="white"/>
<path fill-rule="evenodd" clip-rule="evenodd" d="M142.072 21.244C141.109 21.244 140.326 20.4562 140.326 19.4874V18.7465H139.59C138.627 18.7465 137.844 17.9587 137.844 16.9899C137.844 16.0211 138.627 15.2333 139.59 15.2333H140.331V14.4924C140.331 13.5236 141.114 12.7358 142.077 12.7358C143.04 12.7358 143.823 13.5236 143.823 14.4924V15.2333H144.556C145.519 15.2333 146.301 16.0211 146.301 16.9899C146.301 17.9587 145.518 18.7465 144.556 18.7465H143.818V19.4874C143.818 20.4562 143.035 21.244 142.072 21.244Z" fill="white"/>
<path d="M142.078 12.8049C143.001 12.8049 143.753 13.5608 143.753 14.4905V15.3024H144.556C145.48 15.3024 146.231 16.0583 146.231 16.988C146.231 17.9177 145.48 18.6736 144.556 18.6736H143.748V19.4855C143.748 20.4145 142.996 21.1711 142.073 21.1711C141.15 21.1711 140.398 20.4152 140.398 19.4855V18.6736H139.59C138.667 18.6736 137.915 17.9177 137.915 16.988C137.915 16.0583 138.667 15.3024 139.59 15.3024H140.403V14.4905C140.403 13.5615 141.155 12.8049 142.078 12.8049ZM142.078 12.663C141.075 12.663 140.261 13.4806 140.261 14.4905V15.1605H139.59C138.587 15.1605 137.773 15.9781 137.773 16.988C137.773 17.9979 138.587 18.8155 139.59 18.8155H140.256V19.4855C140.256 20.4947 141.07 21.313 142.073 21.313C143.076 21.313 143.89 20.4947 143.89 19.4855V18.8155H144.556C145.56 18.8155 146.373 17.9979 146.373 16.988C146.373 15.9781 145.56 15.1605 144.556 15.1605H143.895V14.4905C143.895 13.4813 143.082 12.663 142.078 12.663Z" fill="white"/>
</svg>
