<svg width="208" height="50" viewBox="0 0 208 50" fill="none" xmlns="http://www.w3.org/2000/svg">
<path d="M187.436 0.0734863C191.275 0.0734863 194.61 0.641008 197.443 1.77605C200.277 2.9111 202.459 4.59126 203.991 6.81654C205.545 9.04183 206.321 11.7898 206.321 15.059C206.321 17.8967 205.876 20.2698 204.984 22.177C204.093 24.0841 202.847 25.6627 201.248 26.9113C200.157 27.7596 198.94 28.5033 197.598 29.1455L207.954 49.0626C207.984 49.1208 208.001 49.1865 208.001 49.2522C208.001 49.4793 207.817 49.6629 207.589 49.6629H196.523C195.659 49.6629 194.869 49.1776 194.482 48.4069L187.305 34.1442H179.828V47.3869C179.828 48.6444 178.805 49.6629 177.544 49.6629H170.081C168.819 49.6629 167.797 48.6444 167.797 47.3869V2.34955C167.797 1.09204 168.819 0.0734863 170.081 0.0734863H187.436ZM184.491 8.99702C181.876 8.99702 179.756 11.0924 179.756 13.6776V23.0596C179.756 23.2329 179.896 23.3718 180.072 23.3718H189.564C192.179 23.3718 194.299 21.2764 194.299 18.6912V13.6776C194.299 11.0924 192.179 8.99702 189.564 8.99702H184.491Z" fill="#8D5CF6"/>
<path d="M73.2148 0.0727539H84.419V40.8172L83.2554 49.3511H73.2148V0.0727539ZM106.495 31.6096V32.2833C106.495 34.9141 106.218 37.3096 105.664 39.4698C105.11 41.63 104.256 43.5014 103.104 45.0842C101.951 46.6455 100.499 47.8539 98.7484 48.7095C96.9974 49.565 94.925 49.9928 92.5312 49.9928C90.3591 49.9928 88.4973 49.5436 86.9458 48.6453C85.3942 47.7256 84.0976 46.4637 83.0559 44.8596C82.0142 43.2341 81.1719 41.3626 80.5291 39.2452C79.8864 37.1064 79.3766 34.8178 78.9998 32.3796V31.5775C79.3766 29.1607 79.8864 26.8935 80.5291 24.7761C81.1719 22.6373 82.0142 20.7658 83.0559 19.1617C84.0976 17.5362 85.3832 16.2743 86.9125 15.376C88.464 14.4563 90.3148 13.9965 92.4647 13.9965C94.8806 13.9965 96.9641 14.4349 98.7151 15.3118C100.488 16.1887 101.951 17.4186 103.104 19.0013C104.256 20.584 105.11 22.4448 105.664 24.5836C106.218 26.7224 106.495 29.0644 106.495 31.6096ZM95.2907 32.2833V31.6096C95.2907 30.3477 95.2131 29.1607 95.058 28.0485C94.9028 26.9363 94.6258 25.9524 94.2268 25.0969C93.8278 24.2414 93.2626 23.5677 92.5312 23.0757C91.7998 22.5838 90.8467 22.3378 89.672 22.3378C88.4751 22.3378 87.4666 22.5303 86.6465 22.9153C85.8486 23.3003 85.2058 23.8564 84.7182 24.5836C84.2528 25.2894 83.9203 26.1663 83.7208 27.2143C83.5213 28.241 83.4327 29.4066 83.4548 30.7113V33.2458C83.4105 35.021 83.5767 36.5396 83.9535 37.8015C84.3303 39.0634 84.9842 40.0259 85.9151 40.6889C86.846 41.3519 88.1205 41.6834 89.7385 41.6834C90.9354 41.6834 91.8995 41.4589 92.631 41.0097C93.3845 40.5606 93.9497 39.9189 94.3265 39.0848C94.7033 38.2506 94.9582 37.2561 95.0912 36.1011C95.2242 34.9462 95.2907 33.6736 95.2907 32.2833Z" fill="white"/>
<path d="M56.534 40.0446V24.8248C56.534 23.7783 56.3861 22.8797 56.0903 22.129C55.7946 21.3782 55.3282 20.7981 54.6912 20.3886C54.0542 19.9563 53.2011 19.7402 52.1318 19.7402C51.2673 19.7402 50.528 19.8881 49.9137 20.1838C49.2995 20.4796 48.8331 20.9232 48.5146 21.5147C48.1961 22.1062 48.0368 22.857 48.0368 23.767H36.5367C36.5367 22.0607 36.9121 20.4796 37.6628 19.0236C38.4363 17.5448 39.5283 16.2595 40.9388 15.1675C42.3721 14.0755 44.0783 13.2337 46.0576 12.6422C48.0596 12.028 50.2891 11.7208 52.7461 11.7208C55.6808 11.7208 58.2971 12.21 60.5948 13.1882C62.9153 14.1665 64.7467 15.6338 66.089 17.5903C67.4312 19.5241 68.1023 21.9583 68.1023 24.8931V40.0105C68.1023 42.422 68.2388 44.2533 68.5118 45.5046C68.7848 46.7331 69.1716 47.8137 69.6721 48.7465V49.3266H58.1378C57.5918 48.1891 57.1823 46.8013 56.9093 45.1633C56.6591 43.5026 56.534 41.7963 56.534 40.0446ZM57.9331 26.77L58.0013 32.9125H52.9167C51.8475 32.9125 50.9375 33.0603 50.1867 33.3561C49.4587 33.6518 48.8672 34.0613 48.4122 34.5846C47.98 35.0851 47.6615 35.6538 47.4567 36.2908C47.2747 36.9278 47.1837 37.599 47.1837 38.3042C47.1837 38.9867 47.343 39.601 47.6615 40.147C48.0027 40.6702 48.4577 41.0797 49.0265 41.3755C49.5952 41.6712 50.2322 41.8191 50.9375 41.8191C52.2115 41.8191 53.2921 41.5802 54.1793 41.1025C55.0893 40.602 55.7832 39.9991 56.261 39.2938C56.7387 38.5886 56.9776 37.9288 56.9776 37.3146L59.5028 42.0238C59.0478 42.9338 58.5246 43.8552 57.9331 44.788C57.3643 45.7207 56.6477 46.5852 55.7832 47.3815C54.9415 48.1549 53.9063 48.792 52.6778 49.2924C51.4493 49.7702 49.9592 50.0091 48.2075 50.0091C45.9325 50.0091 43.8395 49.5427 41.9285 48.61C40.0402 47.6772 38.5273 46.3805 37.3898 44.7197C36.2523 43.0362 35.6836 41.1025 35.6836 38.9185C35.6836 37.0075 36.0248 35.3012 36.7073 33.7997C37.4126 32.2982 38.4705 31.0242 39.881 29.9777C41.2915 28.9312 43.0887 28.135 45.2727 27.589C47.4567 27.043 50.0275 26.77 52.985 26.77H57.9331Z" fill="white"/>
<path d="M33.28 40.7356V49.9928H7.81838V40.7356H33.28ZM12.1427 0.0727539V49.9928H0V0.0727539H12.1427Z" fill="white"/>
<path fill-rule="evenodd" clip-rule="evenodd" d="M147.738 0.0727539H125.157C117.608 0.0727539 111.488 6.19221 111.488 13.7412V36.3243C111.488 43.8733 117.608 49.9928 125.157 49.9928H161.406V13.7412C161.406 6.19221 155.287 0.0727539 147.738 0.0727539Z" fill="#8D5CF6"/>
<path d="M149.017 33.2595C149.017 33.2595 147.257 30.555 146.596 29.7296L141.791 22.7217V13.8105H142.568C143.617 13.8105 144.467 12.9603 144.467 11.9109C144.467 10.8614 143.617 10.0112 142.568 10.0112H130.318C129.269 10.0112 128.419 10.8614 128.419 11.9109C128.419 12.9603 129.269 13.8105 130.318 13.8105H131.095V22.7217L126.597 29.2822L123.87 33.2588C123.481 33.8253 123.257 34.4174 123.176 35.0074C123.149 35.2038 123.137 35.4002 123.141 35.5945C123.146 35.7895 123.165 35.9824 123.198 36.1731C123.568 38.2699 125.681 40.054 128.528 40.054H144.357C145.393 40.054 146.331 39.8179 147.124 39.4172C147.126 39.4158 147.129 39.4144 147.131 39.4137C147.221 39.3676 147.309 39.3201 147.395 39.2697C147.418 39.257 147.44 39.2435 147.462 39.23C147.754 39.0556 148.023 38.857 148.265 38.6394C148.318 38.5918 148.37 38.5436 148.421 38.4947C148.423 38.4926 148.425 38.4912 148.426 38.489C149.832 37.112 150.244 35.0528 149.016 33.2595H149.017ZM143.561 30.3182C141.025 30.7273 138.735 30.8833 136.718 30.8833C133.621 30.8833 131.168 30.516 129.452 30.1324L133.434 24.3256L133.931 23.601V13.8105H138.954V23.601L139.451 24.3256L143.56 30.3182H143.561Z" fill="white"/>
</svg>
