<svg width="201" height="51" viewBox="0 0 201 51" fill="none" xmlns="http://www.w3.org/2000/svg">
<path d="M145.615 0.522461V50.9933H133.566V0.522461H145.615Z" fill="white"/>
<path d="M117.693 42.3828V1H129.521V50.3509H118.914L117.693 42.3828ZM94.5254 33.3865V32.7118C94.5254 30.0772 94.8394 27.6782 95.4674 25.5148C96.0955 23.33 97.0259 21.4558 98.2587 19.8921C99.4915 18.3071 101.027 17.0862 102.864 16.2294C104.702 15.3726 106.819 14.9442 109.214 14.9442C111.354 14.9442 113.227 15.4047 114.832 16.3258C116.437 17.2254 117.809 18.4892 118.949 20.117C120.089 21.7449 121.019 23.6513 121.74 25.8361C122.461 27.9995 123.008 30.3342 123.38 32.8403V33.6436C123.008 35.9997 122.461 38.2274 121.74 40.3265C121.019 42.4042 120.089 44.2463 118.949 45.8528C117.809 47.4593 116.425 48.723 114.797 49.6441C113.192 50.5437 111.308 50.9935 109.145 50.9935C106.749 50.9935 104.632 50.5544 102.795 49.6762C100.98 48.798 99.4566 47.5663 98.2238 45.9813C97.0143 44.3962 96.0955 42.5327 95.4674 40.3908C94.8394 38.2488 94.5254 35.9141 94.5254 33.3865ZM106.284 32.7118V33.3865C106.284 34.6931 106.377 35.9033 106.563 37.0172C106.749 38.131 107.063 39.1163 107.505 39.9731C107.97 40.8084 108.575 41.4617 109.319 41.933C110.087 42.4042 111.029 42.6398 112.145 42.6398C113.657 42.6398 114.902 42.3078 115.879 41.6438C116.879 40.9798 117.611 40.0373 118.077 38.8164C118.565 37.5955 118.774 36.1604 118.705 34.5111V31.9728C118.751 30.5591 118.647 29.3168 118.391 28.2458C118.135 27.1534 117.728 26.2431 117.17 25.5148C116.635 24.7865 115.948 24.2403 115.111 23.8762C114.297 23.4906 113.332 23.2979 112.215 23.2979C111.122 23.2979 110.191 23.5335 109.424 24.0047C108.679 24.4759 108.075 25.14 107.609 25.9967C107.144 26.8321 106.807 27.8281 106.598 28.9848C106.388 30.12 106.284 31.3624 106.284 32.7118Z" fill="white"/>
<path d="M76.642 51.0097C73.6346 51.0097 70.9462 50.5426 68.5767 49.6085C66.2072 48.6516 64.2023 47.3415 62.5619 45.6783C60.9442 44.0151 59.7025 42.1013 58.8367 39.9369C57.9938 37.7724 57.5723 35.4827 57.5723 33.0677V31.769C57.5723 29.0578 57.9482 26.5516 58.7 24.2504C59.4519 21.9265 60.5683 19.8988 62.0492 18.1673C63.5301 16.4357 65.387 15.0915 67.6198 14.1346C69.8526 13.1549 72.4499 12.665 75.4117 12.665C78.0318 12.665 80.3785 13.0865 82.4518 13.9295C84.5251 14.7725 86.2795 15.98 87.7148 17.5521C89.173 19.1242 90.278 21.0266 91.0298 23.2594C91.8045 25.4921 92.1918 27.9983 92.1918 30.7779V35.4599H61.9809V28.2489H80.9481V27.3604C80.9709 26.1301 80.7545 25.082 80.2988 24.2163C79.8659 23.3505 79.228 22.6898 78.385 22.2341C77.542 21.7784 76.5167 21.5506 75.3092 21.5506C74.0561 21.5506 73.0195 21.824 72.1993 22.3708C71.4018 22.9176 70.7753 23.6695 70.3196 24.6264C69.8867 25.5605 69.5792 26.6427 69.3969 27.873C69.2146 29.1033 69.1235 30.402 69.1235 31.769V33.0677C69.1235 34.4347 69.3058 35.6764 69.6703 36.7928C70.0576 37.9091 70.6044 38.8661 71.3107 39.6635C72.0398 40.4381 72.9056 41.0419 73.908 41.4748C74.9333 41.9077 76.0952 42.1241 77.3939 42.1241C78.966 42.1241 80.5152 41.8279 82.0417 41.2355C83.5682 40.6432 84.8783 39.6635 85.9719 38.2965L91.2007 44.5164C90.4488 45.5872 89.378 46.6238 87.9882 47.6263C86.6212 48.6288 84.9808 49.449 83.067 50.0869C81.1532 50.7021 79.0115 51.0097 76.642 51.0097Z" fill="white"/>
<path d="M5.94649 1.2334H15.7206L26.8276 35.8529L37.9345 1.2334H47.7086L30.7919 50.9925H22.8632L5.94649 1.2334ZM0 1.2334H10.1159L11.9955 39.373V50.9925H0V1.2334ZM43.5393 1.2334H53.6893V50.9925H41.6596V39.373L43.5393 1.2334Z" fill="white"/>
<path fill-rule="evenodd" clip-rule="evenodd" d="M187.303 1H164.689C157.128 1 151 7.12846 151 14.6886V37.3049C151 44.865 157.128 50.9935 164.689 50.9935H200.991V14.6886C200.991 7.12846 194.863 1 187.303 1Z" fill="#FFAE00"/>
<path d="M179.142 29.3811L183.051 32.3672L178.343 38.5319C175.19 42.6606 169.287 43.451 165.158 40.2973C161.03 37.1436 160.239 31.2409 163.393 27.1122L168.101 20.9475L172.01 23.9336L179.142 29.3811ZM190.446 17.7576C190.119 15.3169 188.861 13.1488 186.904 11.654C182.863 8.56774 177.066 9.34463 173.98 13.3846L169.219 19.6167L173.722 23.0559L175.374 20.8936L173.034 19.1061L176.142 15.0371C178.317 12.1894 182.404 11.6419 185.251 13.8171C186.631 14.8709 187.518 16.3991 187.748 18.1191C187.978 19.8397 187.525 21.5469 186.472 22.9267L183.363 26.9965L181.023 25.209L179.372 27.3714L183.874 30.8099L188.634 24.5777C190.129 22.6206 190.772 20.1983 190.445 17.7576H190.446Z" fill="white"/>
<path d="M179.142 29.3816L183.051 32.3677L178.343 38.5324C175.19 42.6611 169.287 43.4515 165.158 40.2978C161.03 37.1441 160.239 31.2414 163.393 27.1127L168.101 20.948L172.01 23.9341L179.142 29.3816ZM190.446 17.7581C190.119 15.3174 188.861 13.1493 186.904 11.6545C182.863 8.56823 177.066 9.34512 173.98 13.3851L169.219 19.6172L173.722 23.0564L175.374 20.894L173.034 19.1066L176.142 15.0376C178.317 12.1899 182.404 11.6424 185.251 13.8175C186.631 14.8714 187.518 16.3996 187.748 18.1195C187.978 19.8402 187.525 21.5474 186.472 22.9272L183.363 26.9969L181.023 25.2095L179.372 27.3719L183.874 30.8104L188.634 24.5782C190.129 22.6211 190.772 20.1988 190.445 17.7581H190.446Z" fill="white"/>
</svg>
