<svg width="183" height="50" viewBox="0 0 183 50" fill="none" xmlns="http://www.w3.org/2000/svg">
<path d="M162.203 0C166.042 0 169.377 0.567559 172.211 1.70268C175.045 2.8378 177.227 4.51807 178.759 6.7435C180.313 8.96893 181.089 11.7171 181.089 14.9865C181.089 17.8243 180.644 20.1976 179.752 22.1049C178.861 24.0122 177.615 25.5909 176.016 26.8396C174.925 27.6879 173.708 28.4317 172.365 29.074L182.723 48.9923C182.753 49.0506 182.769 49.1163 182.769 49.182C182.769 49.409 182.585 49.5927 182.357 49.5927H171.291C170.426 49.5927 169.636 49.1073 169.249 48.3366L162.072 34.073H154.594V47.3165C154.594 48.5741 153.572 49.5927 152.31 49.5927H144.846C143.585 49.5927 142.562 48.5741 142.562 47.3165V2.27621C142.562 1.01862 143.585 0 144.846 0H162.203ZM159.258 8.92412C156.643 8.92412 154.522 11.0196 154.522 13.605V22.9876C154.522 23.1609 154.663 23.2998 154.838 23.2998H164.331C166.946 23.2998 169.067 21.2043 169.067 18.6189V13.605C169.067 11.0196 166.946 8.92412 164.331 8.92412H159.258Z" fill="#0D9488"/>
<path d="M40.4028 25.2784V27.1556C40.4028 30.6978 39.9056 33.8795 38.9111 36.7006C37.9378 39.5005 36.5519 41.8973 34.7534 43.8912C32.9549 45.8638 30.8284 47.3804 28.374 48.441C25.9196 49.4803 23.2113 50 20.249 50C17.2656 50 14.5361 49.4803 12.0605 48.441C9.60612 47.3804 7.46907 45.8638 5.64941 43.8912C3.85091 41.8973 2.45443 39.5005 1.45996 36.7006C0.486654 33.8795 0 30.6978 0 27.1556V25.2784C0 21.7361 0.486654 18.5544 1.45996 15.7334C2.45443 12.9123 3.84033 10.5154 5.61767 8.54277C7.41618 6.54892 9.54264 5.03232 11.9971 3.99297C14.4727 2.93242 17.2021 2.40214 20.1855 2.40214C23.1478 2.40214 25.8561 2.93242 28.3105 3.99297C30.7861 5.03232 32.9232 6.54892 34.7217 8.54277C36.5202 10.5154 37.9167 12.9123 38.9111 15.7334C39.9056 18.5544 40.4028 21.7361 40.4028 25.2784ZM29.104 27.1556V25.2147C29.104 22.9239 28.903 20.9089 28.501 19.1696C28.1201 17.409 27.5488 15.9349 26.7871 14.747C26.0254 13.5592 25.0838 12.6683 23.9624 12.0744C22.8621 11.4593 21.6032 11.1517 20.1855 11.1517C18.7044 11.1517 17.4137 11.4593 16.3135 12.0744C15.2132 12.6683 14.2928 13.5592 13.5522 14.747C12.8117 15.9349 12.251 17.409 11.8701 19.1696C11.5104 20.9089 11.3306 22.9239 11.3306 25.2147V27.1556C11.3306 29.4252 11.5104 31.4402 11.8701 33.2008C12.251 34.9401 12.8117 36.4142 13.5522 37.6233C14.314 38.8323 15.245 39.7444 16.3452 40.3595C17.4666 40.9746 18.7679 41.2822 20.249 41.2822C21.6667 41.2822 22.9256 40.9746 24.0259 40.3595C25.1261 39.7444 26.0465 38.8323 26.7871 37.6233C27.5488 36.4142 28.1201 34.9401 28.501 33.2008C28.903 31.4402 29.104 29.4252 29.104 27.1556Z" fill="white"/>
<path d="M62.6691 33.6462H51.1799V25.0238H62.6691C64.2349 25.0238 65.5044 24.7587 66.4777 24.2284C67.451 23.6981 68.1599 22.9664 68.6042 22.0331C69.0697 21.0786 69.3024 20.0074 69.3024 18.8196C69.3024 17.5469 69.0697 16.3697 68.6042 15.2879C68.1599 14.2062 67.451 13.3365 66.4777 12.6789C65.5044 12.0002 64.2349 11.6608 62.6691 11.6608H55.3693V49.3637H44.2292V3.03847H62.6691C66.3719 3.03847 69.5563 3.71723 72.2223 5.07474C74.9095 6.43226 76.9725 8.29884 78.4113 10.6745C79.8501 13.0289 80.5695 15.7227 80.5695 18.7559C80.5695 21.7467 79.8501 24.3557 78.4113 26.5829C76.9725 28.81 74.9095 30.5494 72.2223 31.8008C69.5563 33.0311 66.3719 33.6462 62.6691 33.6462Z" fill="white"/>
<path fill-rule="evenodd" clip-rule="evenodd" d="M122.389 0H99.7478C92.1787 0 86.043 6.12926 86.043 13.6903V36.3097C86.043 43.8707 92.1787 50 99.7478 50H136.094V13.6903C136.094 6.12926 129.958 0 122.389 0Z" fill="#0D9488"/>
<path d="M111.066 41.695C106.649 41.695 103.055 38.0892 103.055 33.6567V33.0395H102.451C98.0347 33.0395 94.4414 29.4337 94.4414 25.0011C94.4414 20.5686 98.0347 16.9628 102.451 16.9628H103.072V16.3449C103.072 11.9131 106.665 8.30725 111.082 8.30725C115.498 8.30725 119.092 11.9131 119.092 16.3449V16.9628H119.681C124.099 16.9628 127.693 20.5686 127.693 25.0011C127.693 29.4337 124.099 33.0395 119.681 33.0395H119.076V33.6567C119.076 38.0892 115.483 41.695 111.066 41.695ZM106.669 33.2717C106.669 35.7121 108.642 37.6979 111.066 37.6979C113.491 37.6979 115.462 35.7121 115.462 33.2717V29.4273H119.298C121.722 29.4273 123.695 27.4415 123.695 25.0011C123.695 22.5608 121.722 20.575 119.298 20.575H115.476V16.7305C115.476 14.2902 113.504 12.3044 111.08 12.3044C108.657 12.3044 106.684 14.2902 106.684 16.7305V20.575H102.834C100.41 20.575 98.4378 22.5608 98.4378 25.0011C98.4378 27.4415 100.41 29.4273 102.834 29.4273H106.668V33.2717H106.669Z" fill="white"/>
<path d="M111.083 8.37911C115.46 8.37911 119.021 11.953 119.021 16.3464V17.0354H119.682C124.06 17.0354 127.622 20.6092 127.622 25.0027C127.622 29.3962 124.06 32.97 119.682 32.97H119.006V33.6582C119.006 38.051 115.445 41.6256 111.067 41.6256C106.69 41.6256 103.127 38.0517 103.127 33.6582V32.97H102.452C98.0746 32.97 94.5133 29.3962 94.5133 25.0027C94.5133 20.6092 98.0746 17.0354 102.452 17.0354H103.144V16.3464C103.144 11.9537 106.705 8.37911 111.083 8.37911ZM106.616 20.5048H102.836C100.373 20.5048 98.3689 22.5226 98.3689 25.002C98.3689 27.4814 100.372 29.4991 102.836 29.4991H106.599V33.2726C106.599 35.7527 108.603 37.7697 111.068 37.7697C113.532 37.7697 115.535 35.752 115.535 33.2726V29.4991H119.299C121.763 29.4991 123.768 27.4814 123.768 25.002C123.768 22.5226 121.764 20.5048 119.299 20.5048H115.549V16.7314C115.549 14.2513 113.546 12.2342 111.082 12.2342C108.618 12.2342 106.615 14.252 106.615 16.7314V20.5048M111.083 8.23706C106.627 8.23706 103.002 11.8748 103.002 16.3464V16.8933H102.452C97.9964 16.8933 94.3711 20.5311 94.3711 25.0027C94.3711 29.4743 97.9964 33.1121 102.452 33.1121H102.985V33.6582C102.985 38.1298 106.611 41.7676 111.067 41.7676C115.523 41.7676 119.148 38.1298 119.148 33.6582V33.1121H119.682C124.138 33.1121 127.764 29.4743 127.764 25.0027C127.764 20.5311 124.138 16.8933 119.682 16.8933H119.164V16.3464C119.164 11.8748 115.538 8.23706 111.083 8.23706ZM102.836 29.3571C100.451 29.3571 98.5111 27.4033 98.5111 25.002C98.5111 22.6007 100.451 20.6469 102.836 20.6469H106.758V16.7314C106.758 14.3301 108.698 12.3763 111.083 12.3763C113.467 12.3763 115.408 14.3301 115.408 16.7314V20.6469H119.3C121.686 20.6469 123.626 22.6007 123.626 25.002C123.626 27.4033 121.686 29.3571 119.3 29.3571H115.393V33.2726C115.393 35.6739 113.453 37.6277 111.068 37.6277C108.684 37.6277 106.742 35.6739 106.742 33.2726V29.3571H102.837H102.836Z" fill="white"/>
</svg>
