<svg width="128" height="31" viewBox="0 0 128 31" fill="none" xmlns="http://www.w3.org/2000/svg">
<path d="M13.7891 5.89844L5.68359 30.0195H0L10.625 1.58203H14.2578L13.7891 5.89844ZM20.5664 30.0195L12.4219 5.89844L11.9336 1.58203H15.5859L26.2695 30.0195H20.5664ZM20.1953 19.4531V23.6914H4.94141V19.4531H20.1953ZM34.7648 0V30.0195H29.6086V0H34.7648ZM48.007 8.88672L38.8078 19.2188L33.8273 24.2773L32.1867 20.2734L36.0344 15.4297L41.7766 8.88672H48.007ZM42.7336 30.0195L36.1906 20.1758L39.6281 16.8359L48.7102 30.0195H42.7336ZM60.643 30.4102C59.0414 30.4102 57.6026 30.1497 56.3266 29.6289C55.0505 29.1081 53.9633 28.3854 53.0648 27.4609C52.1794 26.5234 51.4958 25.4362 51.0141 24.1992C50.5453 22.9492 50.3109 21.6081 50.3109 20.1758V19.3945C50.3109 17.7669 50.5453 16.2891 51.0141 14.9609C51.4828 13.6198 52.1469 12.4674 53.0062 11.5039C53.8656 10.5404 54.8943 9.79818 56.0922 9.27734C57.2901 8.75651 58.6117 8.49609 60.057 8.49609C61.5544 8.49609 62.876 8.75 64.0219 9.25781C65.1677 9.7526 66.1247 10.4557 66.893 11.3672C67.6612 12.2786 68.2406 13.3724 68.6312 14.6484C69.0219 15.9115 69.2172 17.3112 69.2172 18.8477V21.0156H52.6547V17.4609H64.1391V17.0703C64.113 16.25 63.9568 15.5013 63.6703 14.8242C63.3839 14.1341 62.9411 13.5872 62.3422 13.1836C61.7432 12.7669 60.9685 12.5586 60.018 12.5586C59.2497 12.5586 58.5792 12.7279 58.0062 13.0664C57.4464 13.3919 56.9776 13.8607 56.6 14.4727C56.2354 15.0716 55.962 15.7878 55.7797 16.6211C55.5974 17.4544 55.5062 18.3789 55.5062 19.3945V20.1758C55.5062 21.0612 55.6234 21.8815 55.8578 22.6367C56.1052 23.3919 56.4633 24.0495 56.932 24.6094C57.4138 25.1562 57.9867 25.5859 58.6508 25.8984C59.3279 26.1979 60.0961 26.3477 60.9555 26.3477C62.0362 26.3477 63.0128 26.1393 63.8852 25.7227C64.7706 25.293 65.5388 24.6615 66.1898 23.8281L68.7875 26.5234C68.3448 27.1745 67.7458 27.7995 66.9906 28.3984C66.2484 28.9974 65.35 29.4857 64.2953 29.8633C63.2406 30.2279 62.0232 30.4102 60.643 30.4102ZM82.9664 30.4102C81.3648 30.4102 79.926 30.1497 78.65 29.6289C77.374 29.1081 76.2867 28.3854 75.3883 27.4609C74.5029 26.5234 73.8193 25.4362 73.3375 24.1992C72.8688 22.9492 72.6344 21.6081 72.6344 20.1758V19.3945C72.6344 17.7669 72.8688 16.2891 73.3375 14.9609C73.8063 13.6198 74.4703 12.4674 75.3297 11.5039C76.1891 10.5404 77.2177 9.79818 78.4156 9.27734C79.6135 8.75651 80.9352 8.49609 82.3805 8.49609C83.8779 8.49609 85.1995 8.75 86.3453 9.25781C87.4911 9.7526 88.4482 10.4557 89.2164 11.3672C89.9846 12.2786 90.5641 13.3724 90.9547 14.6484C91.3453 15.9115 91.5406 17.3112 91.5406 18.8477V21.0156H74.9781V17.4609H86.4625V17.0703C86.4365 16.25 86.2802 15.5013 85.9938 14.8242C85.7073 14.1341 85.2646 13.5872 84.6656 13.1836C84.0667 12.7669 83.2919 12.5586 82.3414 12.5586C81.5732 12.5586 80.9026 12.7279 80.3297 13.0664C79.7698 13.3919 79.301 13.8607 78.9234 14.4727C78.5589 15.0716 78.2854 15.7878 78.1031 16.6211C77.9208 17.4544 77.8297 18.3789 77.8297 19.3945V20.1758C77.8297 21.0612 77.9469 21.8815 78.1813 22.6367C78.4286 23.3919 78.7867 24.0495 79.2555 24.6094C79.7372 25.1562 80.3102 25.5859 80.9742 25.8984C81.6513 26.1979 82.4195 26.3477 83.2789 26.3477C84.3596 26.3477 85.3362 26.1393 86.2086 25.7227C87.094 25.293 87.8622 24.6615 88.5133 23.8281L91.1109 26.5234C90.6682 27.1745 90.0693 27.7995 89.3141 28.3984C88.5719 28.9974 87.6734 29.4857 86.6188 29.8633C85.5641 30.2279 84.3466 30.4102 82.9664 30.4102ZM100.954 13.2031V30.0195H95.7977V8.88672H100.68L100.954 13.2031ZM107.38 8.75L107.302 13.5547C107.015 13.5026 106.69 13.4635 106.325 13.4375C105.973 13.4115 105.641 13.3984 105.329 13.3984C104.535 13.3984 103.838 13.5091 103.239 13.7305C102.64 13.9388 102.139 14.2448 101.735 14.6484C101.345 15.0521 101.045 15.5469 100.837 16.1328C100.628 16.7057 100.511 17.3568 100.485 18.0859L99.3719 17.9492C99.3719 16.6081 99.5086 15.3646 99.782 14.2188C100.055 13.0729 100.453 12.0703 100.973 11.2109C101.494 10.3516 102.145 9.6875 102.927 9.21875C103.721 8.73698 104.632 8.49609 105.661 8.49609C105.947 8.49609 106.253 8.52214 106.579 8.57422C106.917 8.61328 107.184 8.67188 107.38 8.75ZM121.988 25.5273V15.7812C121.988 15.0651 121.865 14.4466 121.617 13.9258C121.37 13.4049 120.992 13.0013 120.484 12.7148C119.977 12.4284 119.332 12.2852 118.551 12.2852C117.861 12.2852 117.255 12.4023 116.734 12.6367C116.227 12.8711 115.836 13.2031 115.562 13.6328C115.289 14.0495 115.152 14.5312 115.152 15.0781H109.977C109.977 14.2057 110.185 13.3789 110.602 12.5977C111.018 11.8034 111.611 11.1003 112.379 10.4883C113.16 9.86328 114.091 9.375 115.172 9.02344C116.266 8.67188 117.49 8.49609 118.844 8.49609C120.445 8.49609 121.871 8.76953 123.121 9.31641C124.384 9.85026 125.374 10.6576 126.09 11.7383C126.819 12.819 127.184 14.1797 127.184 15.8203V25.0391C127.184 26.0938 127.249 26.9987 127.379 27.7539C127.522 28.4961 127.73 29.1406 128.004 29.6875V30.0195H122.75C122.503 29.4857 122.314 28.8086 122.184 27.9883C122.053 27.1549 121.988 26.3346 121.988 25.5273ZM122.711 17.1484L122.75 20.2148H119.488C118.681 20.2148 117.971 20.2995 117.359 20.4688C116.747 20.625 116.246 20.8594 115.855 21.1719C115.465 21.4714 115.172 21.8359 114.977 22.2656C114.781 22.6823 114.684 23.1576 114.684 23.6914C114.684 24.2122 114.801 24.681 115.035 25.0977C115.283 25.5143 115.634 25.8464 116.09 26.0938C116.559 26.3281 117.105 26.4453 117.73 26.4453C118.642 26.4453 119.436 26.263 120.113 25.8984C120.79 25.5208 121.318 25.0651 121.695 24.5312C122.073 23.9974 122.275 23.4896 122.301 23.0078L123.785 25.2344C123.603 25.7682 123.329 26.3346 122.965 26.9336C122.6 27.5326 122.132 28.0924 121.559 28.6133C120.986 29.1341 120.296 29.5638 119.488 29.9023C118.681 30.2409 117.743 30.4102 116.676 30.4102C115.309 30.4102 114.085 30.1367 113.004 29.5898C111.923 29.043 111.07 28.2943 110.445 27.3438C109.82 26.3932 109.508 25.3125 109.508 24.1016C109.508 22.9818 109.716 21.9922 110.133 21.1328C110.549 20.2734 111.168 19.5508 111.988 18.9648C112.809 18.3659 113.824 17.9167 115.035 17.6172C116.259 17.3047 117.659 17.1484 119.234 17.1484H122.711Z" fill="url(#paint0_linear_1455_2013)"/>
<defs>
<linearGradient id="paint0_linear_1455_2013" x1="-0.234375" y1="16.0195" x2="129.766" y2="16.0195" gradientUnits="userSpaceOnUse">
<stop stop-color="#E54500"/>
<stop offset="1" stop-color="#8D5CF6"/>
</linearGradient>
</defs>
</svg>
