<svg width="167" height="32" viewBox="0 0 167 32" fill="none" xmlns="http://www.w3.org/2000/svg">
<path d="M54.1016 7.42578L46.3672 31H40.1367L50.7031 2.5625H54.668L54.1016 7.42578ZM60.5273 31L52.7734 7.42578L52.1484 2.5625H56.1523L66.7773 31H60.5273ZM60.1758 20.4141V25.0039H45.1562V20.4141H60.1758ZM74.6875 0.980469V31H69.0625V0.980469H74.6875ZM88.0078 9.86719L78.8281 20.3359L73.9062 25.3164L71.8555 21.2539L75.7617 16.293L81.25 9.86719H88.0078ZM82.168 31L75.918 21.2344L79.8047 17.8359L88.6523 31H82.168ZM99.7656 31.3906C98.125 31.3906 96.6536 31.1302 95.3516 30.6094C94.0495 30.0755 92.9427 29.3398 92.0312 28.4023C91.1328 27.4648 90.4427 26.3776 89.9609 25.1406C89.4792 23.8906 89.2383 22.5625 89.2383 21.1562V20.375C89.2383 18.7734 89.4661 17.3086 89.9219 15.9805C90.3776 14.6523 91.0286 13.5 91.875 12.5234C92.7344 11.5469 93.776 10.7982 95 10.2773C96.224 9.74349 97.6042 9.47656 99.1406 9.47656C100.638 9.47656 101.966 9.72396 103.125 10.2188C104.284 10.7135 105.254 11.4167 106.035 12.3281C106.829 13.2396 107.428 14.3333 107.832 15.6094C108.236 16.8724 108.438 18.2786 108.438 19.8281V22.1719H91.6406V18.4219H102.91V17.9922C102.91 17.2109 102.767 16.5143 102.48 15.9023C102.207 15.2773 101.79 14.7826 101.23 14.418C100.671 14.0534 99.9544 13.8711 99.082 13.8711C98.3398 13.8711 97.7018 14.0339 97.168 14.3594C96.6341 14.6849 96.1979 15.1406 95.8594 15.7266C95.5339 16.3125 95.2865 17.0026 95.1172 17.7969C94.9609 18.5781 94.8828 19.4375 94.8828 20.375V21.1562C94.8828 22.0026 95 22.7839 95.2344 23.5C95.4818 24.2161 95.8268 24.8346 96.2695 25.3555C96.7253 25.8763 97.2721 26.2799 97.9102 26.5664C98.5612 26.8529 99.2969 26.9961 100.117 26.9961C101.133 26.9961 102.077 26.8008 102.949 26.4102C103.835 26.0065 104.596 25.401 105.234 24.5938L107.969 27.5625C107.526 28.2005 106.921 28.8125 106.152 29.3984C105.397 29.9844 104.486 30.4661 103.418 30.8438C102.35 31.2083 101.133 31.3906 99.7656 31.3906ZM121.367 31.3906C119.727 31.3906 118.255 31.1302 116.953 30.6094C115.651 30.0755 114.544 29.3398 113.633 28.4023C112.734 27.4648 112.044 26.3776 111.562 25.1406C111.081 23.8906 110.84 22.5625 110.84 21.1562V20.375C110.84 18.7734 111.068 17.3086 111.523 15.9805C111.979 14.6523 112.63 13.5 113.477 12.5234C114.336 11.5469 115.378 10.7982 116.602 10.2773C117.826 9.74349 119.206 9.47656 120.742 9.47656C122.24 9.47656 123.568 9.72396 124.727 10.2188C125.885 10.7135 126.855 11.4167 127.637 12.3281C128.431 13.2396 129.03 14.3333 129.434 15.6094C129.837 16.8724 130.039 18.2786 130.039 19.8281V22.1719H113.242V18.4219H124.512V17.9922C124.512 17.2109 124.368 16.5143 124.082 15.9023C123.809 15.2773 123.392 14.7826 122.832 14.418C122.272 14.0534 121.556 13.8711 120.684 13.8711C119.941 13.8711 119.303 14.0339 118.77 14.3594C118.236 14.6849 117.799 15.1406 117.461 15.7266C117.135 16.3125 116.888 17.0026 116.719 17.7969C116.562 18.5781 116.484 19.4375 116.484 20.375V21.1562C116.484 22.0026 116.602 22.7839 116.836 23.5C117.083 24.2161 117.428 24.8346 117.871 25.3555C118.327 25.8763 118.874 26.2799 119.512 26.5664C120.163 26.8529 120.898 26.9961 121.719 26.9961C122.734 26.9961 123.678 26.8008 124.551 26.4102C125.436 26.0065 126.198 25.401 126.836 24.5938L129.57 27.5625C129.128 28.2005 128.522 28.8125 127.754 29.3984C126.999 29.9844 126.087 30.4661 125.02 30.8438C123.952 31.2083 122.734 31.3906 121.367 31.3906ZM138.867 14.4766V31H133.242V9.86719H138.535L138.867 14.4766ZM145.234 9.73047L145.137 14.9453C144.863 14.9062 144.531 14.8737 144.141 14.8477C143.763 14.8086 143.418 14.7891 143.105 14.7891C142.311 14.7891 141.621 14.8932 141.035 15.1016C140.462 15.2969 139.98 15.5898 139.59 15.9805C139.212 16.3711 138.926 16.8464 138.73 17.4062C138.548 17.9661 138.444 18.6042 138.418 19.3203L137.285 18.9688C137.285 17.6016 137.422 16.3451 137.695 15.1992C137.969 14.0404 138.366 13.0312 138.887 12.1719C139.421 11.3125 140.072 10.6484 140.84 10.1797C141.608 9.71094 142.487 9.47656 143.477 9.47656C143.789 9.47656 144.108 9.5026 144.434 9.55469C144.759 9.59375 145.026 9.65234 145.234 9.73047ZM158.633 26.2344V16.8203C158.633 16.1432 158.522 15.5638 158.301 15.082C158.079 14.5872 157.734 14.2031 157.266 13.9297C156.81 13.6562 156.217 13.5195 155.488 13.5195C154.863 13.5195 154.323 13.6302 153.867 13.8516C153.411 14.0599 153.06 14.3659 152.812 14.7695C152.565 15.1602 152.441 15.6224 152.441 16.1562H146.816C146.816 15.2578 147.025 14.4049 147.441 13.5977C147.858 12.7904 148.464 12.0807 149.258 11.4688C150.052 10.8438 150.996 10.3555 152.09 10.0039C153.197 9.65234 154.434 9.47656 155.801 9.47656C157.441 9.47656 158.9 9.75 160.176 10.2969C161.452 10.8438 162.454 11.6641 163.184 12.7578C163.926 13.8516 164.297 15.2188 164.297 16.8594V25.9023C164.297 27.0612 164.368 28.0117 164.512 28.7539C164.655 29.4831 164.863 30.1211 165.137 30.668V31H159.453C159.18 30.4271 158.971 29.7109 158.828 28.8516C158.698 27.9792 158.633 27.1068 158.633 26.2344ZM159.375 18.1289L159.414 21.3125H156.27C155.527 21.3125 154.883 21.3971 154.336 21.5664C153.789 21.7357 153.34 21.9766 152.988 22.2891C152.637 22.5885 152.376 22.9401 152.207 23.3438C152.051 23.7474 151.973 24.1901 151.973 24.6719C151.973 25.1536 152.083 25.5898 152.305 25.9805C152.526 26.3581 152.845 26.6576 153.262 26.8789C153.678 27.0872 154.167 27.1914 154.727 27.1914C155.573 27.1914 156.309 27.0221 156.934 26.6836C157.559 26.3451 158.04 25.9284 158.379 25.4336C158.73 24.9388 158.913 24.4701 158.926 24.0273L160.41 26.4102C160.202 26.944 159.915 27.4974 159.551 28.0703C159.199 28.6432 158.75 29.1836 158.203 29.6914C157.656 30.1862 156.999 30.5964 156.23 30.9219C155.462 31.2344 154.551 31.3906 153.496 31.3906C152.155 31.3906 150.938 31.1237 149.844 30.5898C148.763 30.043 147.904 29.2943 147.266 28.3438C146.641 27.3802 146.328 26.2865 146.328 25.0625C146.328 23.9557 146.536 22.9727 146.953 22.1133C147.37 21.2539 147.982 20.5312 148.789 19.9453C149.609 19.3464 150.632 18.8971 151.855 18.5977C153.079 18.2852 154.499 18.1289 156.113 18.1289H159.375Z" fill="url(#paint0_linear_1175_1254)"/>
<path fill-rule="evenodd" clip-rule="evenodd" d="M22.8279 0C27.5817 0 31.4355 3.85378 31.4355 8.60766V31.4365H8.60766C3.85378 31.4365 0 27.5827 0 22.8289V8.60766C0 3.85378 3.85378 0 8.60766 0H22.8279Z" fill="url(#paint1_linear_1175_1254)"/>
<path d="M16.1203 10.3738L11.8573 24.1835H7.33008L13.7546 6.69922H16.6246L16.1203 10.3738ZM19.6507 24.1835L15.3757 10.3738L14.8234 6.69922H17.7294L24.1899 24.1835H19.6507ZM19.4826 17.6629V20.9172H10.5123V17.6629H19.4826Z" fill="white"/>
<defs>
<linearGradient id="paint0_linear_1175_1254" x1="40" y1="17" x2="167" y2="17" gradientUnits="userSpaceOnUse">
<stop stop-color="#E54500"/>
<stop offset="1" stop-color="#9C0B73"/>
</linearGradient>
<linearGradient id="paint1_linear_1175_1254" x1="0" y1="15.7183" x2="31.4355" y2="15.7183" gradientUnits="userSpaceOnUse">
<stop stop-color="#E54500"/>
<stop offset="1" stop-color="#9C0B73"/>
</linearGradient>
</defs>
</svg>
