<svg width="13" height="12" viewBox="0 0 13 12" fill="none" xmlns="http://www.w3.org/2000/svg">
<g clip-path="url(#clip0_1461_1377)">
<path d="M9.16602 1.27287C8.99767 1.27287 8.83621 1.20582 8.71717 1.08646C8.59813 0.967109 8.53125 0.805229 8.53125 0.636436C8.53125 0.467643 8.59813 0.305763 8.71717 0.186408C8.83621 0.0670529 8.99767 0 9.16602 0L12.0394 0C12.2077 0 12.3692 0.0670529 12.4882 0.186408C12.6073 0.305763 12.6742 0.467643 12.6742 0.636436V3.57041C12.6742 3.7392 12.6073 3.90108 12.4882 4.02043C12.3692 4.13979 12.2077 4.20684 12.0394 4.20684C11.871 4.20684 11.7096 4.13979 11.5905 4.02043C11.4715 3.90108 11.4046 3.7392 11.4046 3.57041V2.16919L8.89942 4.69159C8.77791 4.79233 8.62337 4.84412 8.46588 4.83689C8.30838 4.82966 8.15921 4.76392 8.04739 4.65248C7.93558 4.54103 7.86913 4.39186 7.86099 4.23399C7.85285 4.07613 7.90359 3.92088 8.00334 3.79846L10.517 1.27287H9.16602ZM1.26953 3.84407C1.26953 4.01287 1.20265 4.17475 1.08361 4.2941C0.964571 4.41346 0.803116 4.48051 0.634766 4.48051C0.466415 4.48051 0.30496 4.41346 0.185919 4.2941C0.0668769 4.17475 0 4.01287 0 3.84407L0 0.96314C0 0.794346 0.0668769 0.632466 0.185919 0.513112C0.30496 0.393757 0.466415 0.326704 0.634766 0.326704H3.56104C3.72939 0.326704 3.89084 0.393757 4.00988 0.513112C4.12892 0.632466 4.1958 0.794346 4.1958 0.96314C4.1958 1.13193 4.12892 1.29381 4.00988 1.41317C3.89084 1.53252 3.72939 1.59958 3.56104 1.59958H2.16349L4.67822 4.1135C4.74741 4.16943 4.80412 4.23931 4.84467 4.31861C4.88521 4.39791 4.9087 4.48486 4.9136 4.57384C4.91851 4.66282 4.90472 4.75183 4.87313 4.83513C4.84155 4.91843 4.79287 4.99414 4.73024 5.05738C4.66762 5.12062 4.59245 5.16996 4.5096 5.20222C4.42675 5.23448 4.33806 5.24894 4.24929 5.24465C4.16051 5.24037 4.07362 5.21744 3.99424 5.17735C3.91487 5.13726 3.84477 5.08091 3.78849 5.01193L1.26953 2.48953V3.84407ZM3.83716 10.7303C4.00551 10.7303 4.16696 10.7974 4.28601 10.9167C4.40505 11.0361 4.47192 11.198 4.47192 11.3667C4.47192 11.5355 4.40505 11.6974 4.28601 11.8168C4.16696 11.9361 4.00551 12.0032 3.83716 12.0032H0.960612C0.792262 12.0032 0.630807 11.9361 0.511765 11.8168C0.392723 11.6974 0.325846 11.5355 0.325846 11.3667V8.42959C0.325846 8.2608 0.392723 8.09892 0.511765 7.97957C0.630807 7.86021 0.792262 7.79316 0.960612 7.79316C1.12896 7.79316 1.29042 7.86021 1.40946 7.97957C1.5285 8.09892 1.59538 8.2608 1.59538 8.42959V9.83081L4.1027 7.30947C4.22423 7.20978 4.3783 7.1588 4.53514 7.16637C4.69198 7.17394 4.84045 7.23952 4.95187 7.35045C5.0633 7.46137 5.12976 7.60976 5.13842 7.76696C5.14709 7.92415 5.09733 8.07898 4.99878 8.20154L2.48299 10.7303H3.83716ZM11.7368 8.15593C11.7368 7.98713 11.8037 7.82525 11.9227 7.7059C12.0418 7.58654 12.2032 7.51949 12.3716 7.51949C12.5399 7.51949 12.7014 7.58654 12.8204 7.7059C12.9395 7.82525 13.0063 7.98713 13.0063 8.15593V11.0369C13.0063 11.2057 12.9395 11.3675 12.8204 11.4869C12.7014 11.6062 12.5399 11.6733 12.3716 11.6733H9.43897C9.27062 11.6733 9.10916 11.6062 8.99012 11.4869C8.87108 11.3675 8.8042 11.2057 8.8042 11.0369C8.8042 10.8681 8.87108 10.7062 8.99012 10.5868C9.10916 10.4675 9.27062 10.4004 9.43897 10.4004H10.8365L8.32072 7.88862C8.22025 7.7668 8.16859 7.61185 8.17581 7.45394C8.18302 7.29603 8.24858 7.14647 8.35973 7.03436C8.47088 6.92225 8.61967 6.85563 8.77712 6.84747C8.93457 6.8393 9.08941 6.89018 9.21151 6.99019L11.7336 9.51047V8.15593H11.7368Z" fill="black"/>
</g>
<defs>
<clipPath id="clip0_1461_1377">
<rect width="13" height="12" fill="white"/>
</clipPath>
</defs>
</svg>
