<svg width="48" height="13" viewBox="0 0 48 13" fill="none" xmlns="http://www.w3.org/2000/svg">
<path d="M42.5802 0.400391C43.5772 0.400391 44.4431 0.54459 45.1789 0.832989C45.9148 1.12139 46.4814 1.54829 46.8791 2.11371C47.2827 2.67912 47.4842 3.37735 47.4842 4.20802C47.4842 4.92901 47.3687 5.532 47.1371 6.01658C46.9056 6.50117 46.5822 6.90227 46.167 7.21951C45.8837 7.43505 45.5677 7.62403 45.219 7.7872L47.9084 12.8478C47.9162 12.8626 47.9205 12.8793 47.9205 12.896C47.9205 12.9537 47.8726 13.0004 47.8135 13.0004H44.94C44.7155 13.0004 44.5104 12.8771 44.41 12.6813L42.5464 9.05729H40.6045V12.4221C40.6045 12.7416 40.3391 13.0004 40.0115 13.0004H38.0735C37.7459 13.0004 37.4805 12.7416 37.4805 12.4221V0.978706C37.4805 0.659191 37.7459 0.400391 38.0735 0.400391H40.3618H42.5806H42.5802ZM41.8156 2.66774C41.1365 2.66774 40.5859 3.20014 40.5859 3.857V6.24085C40.5859 6.28487 40.6224 6.32016 40.668 6.32016H43.1328C43.8119 6.32016 44.3625 5.78776 44.3625 5.13089V3.857C44.3625 3.20014 43.8119 2.66774 43.1328 2.66774H41.8156Z" fill="#E54500"/>
<path d="M32.1796 0.400391C34.5101 0.400391 36.3995 2.23697 36.3995 4.50305C36.3995 4.50305 36.3995 11.2654 36.3995 13.0004C36.3995 13.0004 36.3405 13.0004 36.1183 13.0004C34.3887 13.0004 27.6593 13.0004 27.6593 13.0004C25.3288 13.0004 23.4395 11.1638 23.4395 8.89811V4.50305C23.4395 2.23697 25.3288 0.400391 27.6593 0.400391H32.1796ZM29.9258 3.2312C29.0997 3.2312 28.4296 3.88606 28.4296 4.69432V5.23064H27.8773C27.0512 5.23064 26.3811 5.8855 26.3811 6.69376C26.3811 7.50164 27.0512 8.15689 27.8773 8.15689H28.4258V8.6932C28.4258 9.50108 29.0958 10.1563 29.922 10.1563C30.7481 10.1563 31.4182 9.50108 31.4182 8.6932V8.15689H31.967C32.7931 8.15689 33.4632 7.50202 33.4632 6.69376C33.4632 5.88588 32.7935 5.23064 31.967 5.23064H31.422V4.69432C31.422 3.88644 30.7524 3.2312 29.9258 3.2312Z" fill="#E54500"/>
<path d="M5.35936 7.69877H2.2287L2.212 5.72886H4.74993C5.20631 5.72886 5.57086 5.67747 5.84357 5.5747C6.11629 5.46621 6.31387 5.30919 6.43631 5.10363C6.56432 4.89808 6.62832 4.64113 6.62832 4.3328C6.62832 3.97879 6.56432 3.69329 6.43631 3.47632C6.3083 3.25934 6.10515 3.10232 5.82687 3.00525C5.55416 2.90247 5.20074 2.85109 4.76662 2.85109H3.33069V13.0004H0.400391V0.53002H4.76662C5.51798 0.53002 6.18864 0.601394 6.7786 0.744141C7.36855 0.881178 7.86946 1.09244 8.28131 1.37794C8.69874 1.66343 9.01598 2.02315 9.23304 2.4571C9.4501 2.88534 9.55863 3.39067 9.55863 3.97308C9.55863 4.48126 9.45288 4.95803 9.24138 5.4034C9.02989 5.84877 8.67647 6.21135 8.18113 6.49113C7.69136 6.76521 7.0207 6.90795 6.16916 6.91937L5.35936 7.69877ZM5.24248 13.0004H1.51908L2.52089 10.6879H5.24248C5.64321 10.6879 5.96323 10.6251 6.20255 10.4995C6.44744 10.3681 6.62276 10.1968 6.7285 9.98558C6.83982 9.7686 6.89547 9.52879 6.89547 9.26613C6.89547 8.94638 6.8426 8.66945 6.73685 8.43534C6.63667 8.20124 6.47527 8.02138 6.25264 7.89576C6.03002 7.76443 5.73226 7.69877 5.35936 7.69877H2.89657L2.91327 5.72886H5.86027L6.54484 6.51683C7.35742 6.48257 8.00025 6.59962 8.47333 6.86798C8.95197 7.13635 9.29426 7.49036 9.50019 7.93002C9.70611 8.36968 9.80908 8.82933 9.80908 9.30896C9.80908 10.1255 9.63654 10.8078 9.29148 11.3559C8.95197 11.9041 8.44272 12.3152 7.76371 12.5893C7.0847 12.8634 6.2443 13.0004 5.24248 13.0004Z" fill="#002F6C"/>
<path d="M13.6036 4.12461V13.0004H10.901V4.12461H13.6036ZM10.741 1.83594C10.741 1.44219 10.8796 1.11953 11.1568 0.867969C11.434 0.616406 11.7938 0.490625 12.2363 0.490625C12.6787 0.490625 13.0385 0.616406 13.3157 0.867969C13.5929 1.11953 13.7315 1.44219 13.7315 1.83594C13.7315 2.22969 13.5929 2.55234 13.3157 2.80391C13.0385 3.05547 12.6787 3.18125 12.2363 3.18125C11.7938 3.18125 11.434 3.05547 11.1568 2.80391C10.8796 2.55234 10.741 2.22969 10.741 1.83594Z" fill="#002F6C"/>
<path d="M17.622 0.400391V13.0004H14.9194V0.400391H17.622Z" fill="#002F6C"/>
<path d="M21.6404 0.400391V13.0004H18.9378V0.400391H21.6404Z" fill="#002F6C"/>
</svg>
