<svg width="50" height="50" viewBox="0 0 50 50" fill="none" xmlns="http://www.w3.org/2000/svg">
<path d="M31.4273 9.375C39.9578 9.375 40.625 10.0422 40.625 18.5727V31.4266C40.625 39.957 39.9578 40.625 31.4273 40.625H29.7953V29.2484H33.8062L34.4367 24.7406H29.7953C29.7953 24.7406 29.7883 22.1016 29.7953 21.443C29.8086 20.1547 30.8844 19.5031 31.8086 19.5125C32.7328 19.5219 34.6477 19.5156 34.6477 19.5156V15.3617C34.6477 15.3617 32.9891 15.1469 31.25 15.1289C29.7883 15.1141 28.1742 15.5094 26.8719 16.8219C25.5469 18.157 25.3383 20.1453 25.3125 22.575C25.3055 23.2781 25.3125 24.7406 25.3125 24.7406H21.3875V29.2484H25.3125V40.625H18.5734C10.0422 40.625 9.375 39.957 9.375 31.4273V18.5727C9.375 10.0422 10.0422 9.375 18.5727 9.375H31.4273Z" fill="white"/>
</svg>
