<svg width="50" height="52" viewBox="0 0 50 52" fill="none" xmlns="http://www.w3.org/2000/svg">
<path d="M18.9647 32.9017C16.5208 33.0364 15.5182 32.0841 15.5171 29.7035C15.515 25.9464 15.5235 22.1894 15.514 18.4334C15.5087 16.6508 16.1223 15.109 17.2926 13.8015C18.271 12.7082 19.4813 12.1059 20.9932 12.1271C23.4707 12.161 25.9494 12.1366 28.4281 12.1366C31.7997 12.1366 34.3616 14.4674 34.447 17.8554C34.5514 22.043 34.5008 26.2359 34.4649 30.4256C34.4523 31.9102 33.262 33.0353 31.7818 32.9028C30.9584 32.8296 31.029 33.1869 31.0301 33.7225C31.0374 39.2494 31.0353 44.7762 31.0343 50.3031C31.0343 50.5555 31.0374 50.809 31.0311 51.0613C31.0174 51.6096 30.7454 51.9765 30.1972 51.9945C29.6447 52.0125 29.3548 51.6594 29.3168 51.1112C29.3021 50.8959 29.3115 50.6775 29.3115 50.4611C29.3115 40.5272 29.3115 30.5932 29.3115 20.6592C29.3115 20.4789 29.3147 20.2976 29.3115 20.1173C29.3042 19.5277 29.554 19.1014 30.1666 19.0972C30.7781 19.0929 31.0364 19.5129 31.0343 20.1046C31.0343 20.357 31.0343 20.6104 31.0343 20.8628C31.0343 23.8966 31.0395 26.9315 31.0301 29.9654C31.0279 30.6091 31.1545 31.1902 31.9093 31.1785C32.6642 31.1668 32.7644 30.572 32.7623 29.9368C32.7528 26.0355 32.7833 22.1342 32.7475 18.2329C32.7232 15.566 30.9742 13.8693 28.3574 13.8693C26.0949 13.8693 23.8324 13.8693 21.5688 13.8693C19.1123 13.8693 17.3158 15.4907 17.2683 17.9806C17.1903 22.025 17.2462 26.0715 17.2388 30.1181C17.2388 30.6981 17.4423 31.1562 18.0538 31.1817C18.7306 31.2103 18.9668 30.7406 18.9668 30.1096C18.9636 26.9665 18.9626 23.8245 18.9668 20.6814C18.9668 20.0091 18.8139 19.1269 19.7986 19.1131C20.874 19.0982 20.6853 20.0335 20.6864 20.7313C20.6916 30.6292 20.6895 40.5272 20.6885 50.4251C20.6885 50.7135 20.7148 51.0104 20.661 51.2893C20.5778 51.723 20.2868 51.9924 19.8366 51.9998C19.3822 52.0083 19.0849 51.7368 18.9974 51.3095C18.9331 50.9967 18.9657 50.6626 18.9657 50.3371C18.9647 44.9183 18.9657 39.4996 18.9657 34.0819C18.9657 33.6896 18.9657 33.2962 18.9657 32.9017H18.9647Z" fill="white"/>
<path d="M49.9989 25.2974C49.9873 36.8825 43.9093 46.1187 34.7897 50.02C34.6579 50.0762 34.5208 50.1197 34.3901 50.178C33.7944 50.4452 33.1492 50.6382 32.8403 49.862C32.525 49.0699 33.1808 48.8122 33.7596 48.5577C41.4918 45.1569 46.2741 39.3077 47.8682 30.976C49.8925 20.3951 44.097 9.67538 34.1898 5.36266C33.5583 5.08801 32.4481 4.97985 32.8466 3.92579C33.2789 2.78372 34.1982 3.46769 34.8498 3.77521C44.5957 8.36894 49.4623 16.2097 50 25.2985L49.9989 25.2974Z" fill="white"/>
<path d="M6.6936e-06 26.8446C0.00738677 16.8724 6.08646 7.62347 15.1935 3.73386C15.2926 3.69144 15.3991 3.66811 15.4971 3.62357C16.1075 3.34468 16.8002 3.03822 17.146 3.87807C17.4992 4.73489 16.7517 4.965 16.1466 5.22162C7.28414 8.98716 1.48656 17.5575 1.77333 27.1638C2.07064 37.0925 6.95203 44.1707 15.8872 48.4167C16.5177 48.7168 17.5836 48.826 17.106 49.9034C16.6726 50.8779 15.8598 50.2862 15.2451 50.0253C6.08857 46.1516 -0.00737338 36.8677 6.6936e-06 26.8446Z" fill="white"/>
<path d="M24.136 42.3702C24.136 39.664 24.1423 36.9567 24.1318 34.2505C24.1297 33.627 24.1908 33.0056 24.9457 32.9738C25.7775 32.9388 25.8651 33.5804 25.864 34.2516C25.8566 39.7371 25.8566 45.2227 25.864 50.7082C25.864 51.3805 25.7744 52.021 24.9436 51.985C24.1898 51.9521 24.1286 51.3286 24.1307 50.7061C24.1413 47.9267 24.135 45.1484 24.135 42.3691L24.136 42.3702Z" fill="white"/>
<path d="M25.0448 0.000128487C22.1813 -0.0200194 19.826 2.33199 19.8292 5.20678C19.8324 8.03703 22.1423 10.3774 24.9531 10.3986C27.8155 10.4198 30.1719 8.06672 30.1676 5.19087C30.1645 2.35744 27.8566 0.0202764 25.0448 0.000128487ZM25.0374 8.66374C23.165 8.68282 21.5994 7.16749 21.554 5.29161C21.5076 3.36483 23.049 1.75406 24.9605 1.73497C26.8772 1.71482 28.4512 3.28848 28.4439 5.2142C28.4365 7.09644 26.9078 8.64465 25.0374 8.66374Z" fill="white"/>
</svg>
