<svg width="50" height="50" viewBox="0 0 50 50" fill="none" xmlns="http://www.w3.org/2000/svg">
<path d="M24.8596 9.375C10.4987 9.375 9.375 10.4995 9.375 24.8596V25.1404C9.375 39.5005 10.4987 40.625 24.8596 40.625H25.1404C39.5013 40.625 40.625 39.5005 40.625 25.1404V25C40.625 10.5094 39.4906 9.375 25 9.375H24.8596ZM34.3704 14.0625C35.2337 14.0602 35.9352 14.7571 35.9375 15.6204C35.9398 16.4837 35.2429 17.1852 34.3796 17.1875C33.5163 17.1898 32.8148 16.4929 32.8125 15.6296C32.8102 14.7663 33.5071 14.0648 34.3704 14.0625ZM24.9817 17.1875C29.2958 17.1773 32.8023 20.6676 32.8125 24.9817C32.8227 29.2958 29.3324 32.8023 25.0183 32.8125C20.7042 32.8227 17.1977 29.3324 17.1875 25.0183C17.1773 20.7042 20.6676 17.1977 24.9817 17.1875ZM24.9893 20.3125C22.4003 20.3188 20.3062 22.4231 20.3125 25.0122C20.3188 27.6005 22.4224 29.6938 25.0107 29.6875C27.5997 29.6812 29.6938 27.5776 29.6875 24.9893C29.6812 22.4003 27.5776 20.3062 24.9893 20.3125Z" fill="white"/>
</svg>
