<svg width="50" height="48" viewBox="0 0 50 48" fill="none" xmlns="http://www.w3.org/2000/svg">
<path d="M23.8843 3.82536C23.8843 2.97518 23.8843 2.12499 23.8843 1.2748C23.8843 0.540349 24.2026 0.0329074 24.9692 0.00174873C25.7538 -0.0338612 26.108 0.478032 26.1125 1.20358C26.1304 2.97963 26.126 4.75567 26.1125 6.53172C26.108 7.29288 25.6462 7.738 24.9244 7.70685C24.2474 7.67569 23.8887 7.18605 23.8843 6.49166C23.8843 5.60586 23.8843 4.71561 23.8843 3.82982V3.82536Z" fill="white"/>
<path d="M3.8794 25.9213C3.02307 25.9213 2.16675 25.9302 1.30594 25.9213C0.521347 25.9124 -0.0301094 25.5207 0.00127433 24.7284C0.0281746 23.9761 0.597564 23.6957 1.32836 23.7002C3.04101 23.7135 4.75814 23.7091 6.4708 23.7002C7.21056 23.7002 7.73511 23.985 7.76649 24.7551C7.79788 25.6053 7.20159 25.8991 6.44838 25.9169C5.59205 25.9391 4.73573 25.9213 3.87492 25.9213H3.8794Z" fill="white"/>
<path d="M46.0905 23.7002C46.9871 23.7002 47.8793 23.7002 48.776 23.7002C49.5471 23.7002 50.0045 24.1008 50 24.8352C50 25.5341 49.4799 25.8946 48.8119 25.908C47.023 25.9347 45.2341 25.9347 43.4453 25.908C42.719 25.8991 42.2123 25.5163 42.2303 24.7506C42.2482 23.9628 42.7952 23.6957 43.5215 23.7002C44.3778 23.7002 45.2341 23.7002 46.0949 23.7002H46.0905Z" fill="white"/>
<path d="M12.9583 11.6506C12.9672 12.1892 12.7969 12.5409 12.3978 12.7501C12.0033 12.9549 11.5729 12.9638 11.2501 12.6566C9.89162 11.3435 8.53764 10.0259 7.23297 8.66386C6.83843 8.2499 6.93259 7.68459 7.33161 7.25727C7.70373 6.86111 8.2238 6.74538 8.64075 7.09703C10.1427 8.36563 11.4967 9.78557 12.8327 11.2233C12.9448 11.3435 12.9358 11.5661 12.9627 11.6551L12.9583 11.6506Z" fill="white"/>
<path d="M41.8761 6.89672C42.3065 6.98575 42.6652 7.10148 42.849 7.46203C43.0642 7.88935 43.0821 8.35228 42.7369 8.70392C41.4412 10.0259 40.132 11.3391 38.7915 12.621C38.3566 13.0394 37.8141 12.9549 37.3748 12.5765C36.9085 12.1759 36.8457 11.5705 37.2089 11.1788C38.527 9.77667 39.9213 8.44575 41.3067 7.10593C41.4502 6.96794 41.7102 6.95014 41.8761 6.89672Z" fill="white"/>
<path d="M42.9835 41.4606C42.9835 42.4265 41.9971 43.0452 41.347 42.471C39.9079 41.198 38.5629 39.8136 37.2358 38.4249C36.8412 38.0109 36.9578 37.4411 37.3658 37.0227C37.7514 36.6266 38.3163 36.5464 38.6839 36.8892C40.0962 38.1978 41.4457 39.5644 42.8041 40.9309C42.9431 41.0689 42.9476 41.3404 42.988 41.4606H42.9835Z" fill="white"/>
<path d="M12.9627 37.8685C12.9807 38.2513 12.7386 38.5272 12.474 38.7943C11.3442 39.916 10.2099 41.0333 9.08461 42.1594C8.53764 42.707 7.91893 42.9028 7.33609 42.3152C6.75325 41.7277 6.96397 41.1179 7.51543 40.5793C8.67662 39.4353 9.82885 38.2869 10.9856 37.1385C11.3936 36.7334 11.8643 36.5909 12.4023 36.858C12.8103 37.0583 12.9941 37.3966 12.9672 37.8729L12.9627 37.8685Z" fill="white"/>
<path d="M38.5987 23.0458C37.7245 16.961 33.0348 12.2382 26.9823 11.3524C20.979 10.4711 14.9937 13.7605 12.5099 19.3068C10.0082 24.8842 11.3711 31.4854 16.4015 35.1621C18.7642 36.8892 19.6071 38.6074 19.0736 41.2603C19.0736 42.3687 19.0736 43.4815 19.0736 44.5898C19.0736 44.7011 19.0781 44.8124 19.087 44.9237C19.226 46.7487 20.4186 47.9327 22.2523 47.9772C23.965 48.0173 25.6821 47.995 27.3947 47.9817C29.7216 47.9639 30.9725 46.7264 30.9904 44.4118C31.0084 42.2663 31.0263 40.1208 30.9725 37.9753C30.9546 37.2453 31.2011 36.8936 31.8378 36.5286C36.635 33.7822 39.3519 28.3072 38.5942 23.0458H38.5987ZM28.7622 44.8346C28.668 45.4267 28.3587 45.7694 27.7265 45.7694C25.9018 45.7694 24.077 45.7694 22.2523 45.7694C21.665 45.7694 21.3736 45.4489 21.3108 44.8925C21.3018 44.8213 21.3018 44.7456 21.2973 44.6699C21.1449 42.7084 22.064 41.7277 24.0546 41.7277H26.1753C28.9684 41.7277 29.206 42.0126 28.7577 44.8391L28.7622 44.8346ZM30.0355 34.984C29.0401 35.5004 28.7173 36.0702 28.7442 37.1206C28.8025 39.5021 28.7622 39.5065 26.3322 39.5065H24.9917C24.0232 39.5065 23.0548 39.4843 22.0864 39.5154C21.5619 39.5332 21.1763 39.462 21.2973 38.8166C21.7278 36.5509 20.719 35.3535 18.7194 34.1695C14.0343 31.4008 12.3261 25.445 14.3929 20.4686C16.4463 15.5143 21.9071 12.5676 27.0854 13.6092C32.6224 14.7265 36.5095 19.3468 36.4333 24.853C36.3705 29.4868 34.1288 32.8653 30.0355 34.9885V34.984Z" fill="white"/>
</svg>
