<svg width="44" height="36" viewBox="0 0 44 36" fill="none" xmlns="http://www.w3.org/2000/svg">
<path d="M10.6828 13.8292V10.049H0.816406V13.8292H3.07999V21.9153H0.816406V25.6955H10.6828V21.9153H8.41921V13.8292H10.6828Z" fill="#545454"/>
<path d="M21.5714 16.0526C20.9616 15.8752 17.8237 14.9771 17.2804 14.7997C16.7371 14.6223 16.2936 14.3673 16.2936 14.0457C16.2936 13.7242 16.7926 13.3804 17.8016 13.3804C20.9837 13.3804 22.5124 15.343 22.5124 15.343C22.5124 15.343 22.6847 15.5724 22.7424 15.6548H25.8126V10.3005H22.5167V11.2746C22.2649 11.1007 20.4065 9.88782 17.5244 9.88782C13.7213 9.88782 11.6035 11.8614 11.6035 14.8108C11.6035 17.7601 14.2757 18.9797 15.0185 19.2902C15.7614 19.6007 18.6664 20.4211 19.9082 20.8092C21.1501 21.1973 21.6046 21.4745 21.6046 21.6741C21.6046 21.8736 21.0613 22.3948 19.5091 22.3948C16.8052 22.3948 15.4127 20.8003 15.1684 20.4915V20.4891C15.0907 20.385 14.9995 20.2617 14.9685 20.2154C14.9327 20.1617 14.8496 20.0426 14.7919 19.9603H11.7218V25.6781H15.1684V24.484C15.5694 24.7509 17.6222 26.0315 20.0856 26.0315C22.8354 26.0315 26.3391 24.8341 26.3391 21.0975C26.3391 17.3609 22.1812 16.23 21.5714 16.0526Z" fill="#545454"/>
<path d="M35.0898 9.83533C30.5059 9.83533 26.7464 12.1272 26.7464 17.9777C26.7464 23.8282 30.8276 26.0196 35.1099 26.0196C39.3921 26.0196 43.4332 23.8483 43.4332 18.0381C43.4332 12.228 39.3923 9.83533 35.0898 9.83533ZM35.1301 22.1193C33.5619 22.1193 32.5566 21.7574 32.5566 17.9577C32.5566 14.1579 33.3005 13.7558 35.1903 13.7558C36.3363 13.7558 37.7236 13.8361 37.7236 17.837C37.7236 21.8379 36.6983 22.1193 35.1301 22.1193Z" fill="#545454"/>
<path d="M7.39081 8.32372C8.42126 6.80213 9.68845 5.45333 11.1411 4.3332C11.7285 4.76749 12.3529 5.16141 13.0093 5.51249C11.9095 6.73835 10.9242 8.09646 10.761 8.32372H11.4209C11.8169 7.78991 12.6362 6.71608 13.5001 5.76405C14.4443 6.22823 15.4478 6.60787 16.4948 6.89704C16.2161 7.48832 16.0054 8.00536 15.8818 8.32372H16.4551C16.5868 7.99587 16.7798 7.53862 17.0206 7.03337C18.3563 7.3597 19.7558 7.54261 21.1876 7.57046V8.3238H21.7198V7.57303C23.1411 7.56265 24.5329 7.40068 25.8638 7.09635C26.0907 7.57631 26.2734 8.00962 26.3996 8.32372H26.9729C26.854 8.01796 26.6551 7.52921 26.3925 6.96693C27.4583 6.68965 28.4809 6.31994 29.444 5.86304C30.2748 6.7898 31.0515 7.80845 31.4339 8.32372H32.0936C31.9355 8.10347 31.0012 6.81525 29.9395 5.61787C30.6694 5.24062 31.3615 4.81139 32.0084 4.3332C33.4611 5.45333 34.7283 6.80213 35.7587 8.32372H36.3989C33.251 3.46543 27.7822 0.244141 21.5747 0.244141C15.3671 0.244141 9.89832 3.46543 6.75048 8.32372H7.39081ZM16.7323 6.41033C15.7363 6.1413 14.7807 5.78862 13.8799 5.35717C14.0023 5.22998 14.1246 5.10677 14.2455 4.99013C15.4791 3.80055 17.508 2.49433 17.9528 2.21314C18.3137 2.41139 18.7076 2.57904 19.1265 2.71209C18.8011 3.13874 18.1623 4.00483 17.4666 5.1034C17.1958 5.53094 16.9491 5.9803 16.7323 6.41033ZM21.1876 7.03807C19.8397 7.01111 18.5217 6.84328 17.262 6.54454C17.459 6.15939 17.6788 5.76307 17.9163 5.38822C18.7178 4.12271 19.4409 3.17254 19.6818 2.86341C20.1624 2.97633 20.6676 3.04774 21.1876 3.07106V7.03807ZM21.7198 7.04073V3.0771C22.2327 3.0684 22.7346 3.01412 23.2149 2.91752C23.4903 3.27366 24.1793 4.18942 24.9385 5.38822C25.1883 5.78268 25.4186 6.20082 25.6235 6.60485C24.3682 6.88249 23.0578 7.0308 21.7198 7.04073ZM26.157 6.47881C25.932 6.0282 25.6732 5.55365 25.388 5.1034C24.7283 4.06151 24.1194 3.2286 23.7809 2.78136C24.2264 2.65621 24.647 2.49353 25.0332 2.2967C25.6576 2.69692 27.471 3.89262 28.6092 4.99013C28.7602 5.13586 28.9133 5.29153 29.0662 5.45297C28.1466 5.87759 27.1717 6.22131 26.157 6.47881ZM31.5627 4.00048C30.9384 4.45117 30.2712 4.85495 29.5688 5.20993C29.3725 4.99935 29.1745 4.79596 28.9786 4.60702C27.9141 3.58048 26.3291 2.50355 25.5525 1.99786C25.8163 1.82685 26.0576 1.63773 26.2727 1.43186C28.1949 1.9811 29.9795 2.85933 31.5627 4.00048ZM21.5748 0.776351C22.9802 0.776351 24.3462 0.947811 25.6541 1.26873C24.6615 2.07494 23.1742 2.5479 21.5748 2.5479C19.9682 2.5479 18.485 2.07645 17.4938 1.26918C18.8021 0.947989 20.1687 0.776351 21.5748 0.776351ZM16.8768 1.43186C17.0519 1.59968 17.2435 1.75668 17.4512 1.90144C16.7476 2.35418 15.0146 3.50916 13.8762 4.60694C13.7122 4.765 13.547 4.93336 13.3824 5.10739C12.7527 4.77769 12.1521 4.40842 11.587 4.00048C13.17 2.85933 14.9545 1.98119 16.8768 1.43186Z" fill="#545454"/>
<path d="M35.7597 27.4682C34.7511 28.9578 33.5155 30.2816 32.1013 31.3875C31.4278 30.881 30.7049 30.4283 29.9404 30.0328C30.8614 28.994 31.6866 27.8868 31.9921 27.4683H31.3293C30.9207 28.0138 30.2055 28.9392 29.4448 29.7878C28.4817 29.3308 27.4591 28.9608 26.3932 28.6836C26.6186 28.201 26.7966 27.7733 26.9178 27.4683H26.3428C26.2209 27.7656 26.0589 28.1429 25.8642 28.5547C24.534 28.2508 23.1424 28.0889 21.72 28.0787V27.4683H21.1877V28.081C19.7549 28.1088 18.3554 28.2915 17.0205 28.6174C16.8126 28.1813 16.6403 27.7806 16.5123 27.4683H15.9372C16.0642 27.788 16.2536 28.2425 16.4945 28.7536C15.4472 29.0428 14.4434 29.422 13.4993 29.8864C12.7059 29.0119 11.9504 28.035 11.5258 27.4682H10.863C11.1786 27.9006 12.0503 29.0699 13.0094 30.1388C12.3186 30.5086 11.6628 30.9254 11.0485 31.3874C9.63425 30.2815 8.39864 28.9577 7.39019 27.4681H6.751C9.89894 32.3264 15.3676 35.5477 21.575 35.5477C27.7824 35.5477 33.2511 32.3265 36.399 27.4681L35.7597 27.4682ZM26.1573 29.172C27.1725 29.4294 28.1473 29.773 29.067 30.1978C28.9138 30.3594 28.7607 30.5154 28.6093 30.6614C27.4747 31.7553 25.6671 32.9483 25.038 33.3517C24.6518 33.1541 24.2307 32.9914 23.7837 32.8662C24.1229 32.4182 24.7301 31.5869 25.3881 30.5479C25.6735 30.0976 25.9322 29.6228 26.1573 29.172ZM21.7199 28.6108C23.059 28.6207 24.3693 28.7686 25.6238 29.0459C25.4189 29.4502 25.1885 29.8684 24.9385 30.2632C24.1804 31.4603 23.4924 32.3751 23.2163 32.7323C22.7373 32.6369 22.2354 32.583 21.7198 32.5745L21.7199 28.6108ZM21.1877 28.6134V32.58C20.6657 32.6031 20.16 32.6737 19.68 32.7858C19.4374 32.4744 18.7166 31.5268 17.9163 30.2632C17.6787 29.8881 17.4587 29.4915 17.2616 29.106C18.5207 28.8076 19.8386 28.6403 21.1877 28.6134ZM16.7321 29.2406C16.949 29.6709 17.1959 30.1203 17.4667 30.548C18.1619 31.6457 18.8002 32.5113 19.1259 32.9383C18.7063 33.0712 18.3129 33.2391 17.9522 33.4378C17.5057 33.1554 15.4785 31.8502 14.2457 30.6614C14.1246 30.5447 14.0023 30.4213 13.8797 30.294C14.7804 29.8624 15.7359 29.5096 16.7321 29.2406ZM11.4907 31.7211C12.0838 31.285 12.7163 30.8919 13.3816 30.5434C13.5464 30.7176 13.712 30.8862 13.8761 31.0445C15.0144 32.142 16.7468 33.2967 17.4506 33.7496C17.1999 33.9252 16.9713 34.1182 16.7682 34.3277C14.8485 33.7651 13.0678 32.8746 11.4907 31.7211ZM21.5749 35.0156C20.1235 35.0156 18.7139 34.8333 17.3672 34.4917C18.3505 33.6276 19.912 33.1036 21.5749 33.1036C23.2358 33.1036 24.7988 33.6279 25.7822 34.4918C24.4356 34.8334 23.0262 35.0156 21.5749 35.0156ZM26.3813 34.3277C26.1399 34.0789 25.8639 33.852 25.556 33.6513C26.334 33.1447 27.9158 32.0694 28.9787 31.0444C29.1747 30.8554 29.3727 30.6519 29.5692 30.4411C30.3074 30.8146 31.0071 31.2418 31.6591 31.721C30.0819 32.8747 28.3011 33.7652 26.3813 34.3277Z" fill="#545454"/>
</svg>
