<svg width="43" height="36" viewBox="0 0 43 36" fill="none" xmlns="http://www.w3.org/2000/svg">
<path d="M9.86638 13.5851V9.80488H0V13.5851H2.26358V21.6711H0V25.4513H9.86638V21.6711H7.6028V13.5851H9.86638Z" fill="white"/>
<path d="M20.755 15.8084C20.1452 15.631 17.0073 14.7329 16.464 14.5555C15.9207 14.3781 15.4772 14.1231 15.4772 13.8016C15.4772 13.48 15.9762 13.1363 16.9852 13.1363C20.1673 13.1363 21.696 15.0988 21.696 15.0988C21.696 15.0988 21.8683 15.3283 21.926 15.4106H24.9962V10.0563H21.7003V11.0304C21.4485 10.8566 19.5901 9.64367 16.708 9.64367C12.9049 9.64367 10.7871 11.6173 10.7871 14.5666C10.7871 17.516 13.4593 18.7356 14.2021 19.0461C14.945 19.3565 17.85 20.177 19.0918 20.5651C20.3336 20.9531 20.7882 21.2303 20.7882 21.4299C20.7882 21.6295 20.2449 22.1506 18.6927 22.1506C15.9888 22.1506 14.5963 20.5561 14.352 20.2473V20.245C14.2743 20.1408 14.1831 20.0176 14.1521 19.9712C14.1163 19.9176 14.0332 19.7984 13.9755 19.7161H10.9054V25.4339H14.352V24.2399C14.753 24.5068 16.8058 25.7874 19.2692 25.7874C22.019 25.7874 25.5227 24.5899 25.5227 20.8534C25.5227 17.1168 21.3648 15.9858 20.755 15.8084Z" fill="white"/>
<path d="M34.2734 9.59119C29.6895 9.59119 25.93 11.8831 25.93 17.7336C25.93 23.5841 30.0112 25.7754 34.2935 25.7754C38.5757 25.7754 42.6168 23.6041 42.6168 17.794C42.6168 11.9838 38.5759 9.59119 34.2734 9.59119ZM34.3137 21.8751C32.7454 21.8751 31.7402 21.5132 31.7402 17.7135C31.7402 13.9137 32.4841 13.5116 34.3739 13.5116C35.5199 13.5116 36.9072 13.592 36.9072 17.5929C36.9072 21.5938 35.8819 21.8751 34.3137 21.8751Z" fill="white"/>
<path d="M6.57441 8.07957C7.60486 6.55798 8.87205 5.20919 10.3247 4.08906C10.9121 4.52334 11.5365 4.91727 12.1929 5.26835C11.0931 6.49421 10.1078 7.85232 9.94463 8.07957H10.6045C11.0005 7.54577 11.8198 6.47194 12.6837 5.51991C13.6279 5.98409 14.6314 6.36373 15.6784 6.6529C15.3997 7.24418 15.189 7.76122 15.0654 8.07957H15.6387C15.7704 7.75173 15.9634 7.29448 16.2042 6.78923C17.5399 7.11556 18.9394 7.29847 20.3712 7.32632V8.07966H20.9034V7.32889C22.3246 7.31851 23.7165 7.15654 25.0474 6.85221C25.2743 7.33217 25.457 7.76548 25.5832 8.07957H26.1565C26.0376 7.77382 25.8387 7.28507 25.5761 6.72279C26.6418 6.44551 27.6645 6.0758 28.6276 5.6189C29.4584 6.54566 30.2351 7.56431 30.6175 8.07957H31.2772C31.1191 7.85933 30.1848 6.57111 29.1231 5.37373C29.853 4.99648 30.5451 4.56725 31.192 4.08906C32.6446 5.20919 33.9119 6.55798 34.9423 8.07957H35.5825C32.4346 3.22129 26.9658 0 20.7583 0C14.5507 0 9.08192 3.22129 5.93407 8.07957H6.57441ZM15.9159 6.16619C14.9199 5.89716 13.9643 5.54448 13.0635 5.11303C13.1859 4.98584 13.3082 4.86263 13.4291 4.74599C14.6627 3.55641 16.6916 2.25019 17.1364 1.969C17.4973 2.16725 17.8912 2.3349 18.3101 2.46795C17.9847 2.8946 17.3459 3.76069 16.6502 4.85926C16.3794 5.2868 16.1327 5.73616 15.9159 6.16619ZM20.3712 6.79393C19.0233 6.76697 17.7053 6.59914 16.4456 6.3004C16.6426 5.91525 16.8624 5.51893 17.0998 5.14408C17.9014 3.87857 18.6245 2.9284 18.8654 2.61927C19.346 2.73219 19.8512 2.8036 20.3712 2.82692V6.79393ZM20.9034 6.79659V2.83296C21.4163 2.82426 21.9182 2.76998 22.3985 2.67338C22.6739 3.02952 23.3629 3.94528 24.1221 5.14408C24.3719 5.53854 24.6022 5.95668 24.8071 6.36071C23.5517 6.63835 22.2414 6.78666 20.9034 6.79659ZM25.3406 6.23467C25.1156 5.78406 24.8568 5.30951 24.5716 4.85926C23.9119 3.81737 23.303 2.98446 22.9645 2.53722C23.41 2.41207 23.8306 2.24939 24.2168 2.05256C24.8412 2.45278 26.6546 3.64848 27.7928 4.74599C27.9438 4.89172 28.0969 5.04739 28.2498 5.20883C27.3302 5.63345 26.3553 5.97717 25.3406 6.23467ZM30.7463 3.75634C30.122 4.20703 29.4548 4.6108 28.7524 4.96579C28.5561 4.75521 28.3581 4.55182 28.1622 4.36288C27.0977 3.33634 25.5127 2.25941 24.7361 1.75372C24.9999 1.5827 25.2412 1.39359 25.4563 1.18772C27.3785 1.73696 29.1631 2.61519 30.7463 3.75634ZM20.7584 0.53221C22.1638 0.53221 23.5297 0.703671 24.8377 1.02459C23.8451 1.8308 22.3578 2.30376 20.7584 2.30376C19.1518 2.30376 17.6686 1.83231 16.6774 1.02504C17.9857 0.703848 19.3522 0.53221 20.7584 0.53221ZM16.0603 1.18772C16.2354 1.35554 16.4271 1.51254 16.6348 1.6573C15.9312 2.11004 14.1982 3.26502 13.0597 4.36279C12.8958 4.52086 12.7306 4.68922 12.5659 4.86325C11.9363 4.53355 11.3357 4.16428 10.7706 3.75634C12.3536 2.61519 14.1381 1.73705 16.0603 1.18772Z" fill="white"/>
<path d="M34.9433 27.2241C33.9347 28.7136 32.6991 30.0374 31.2849 31.1434C30.6114 30.6369 29.8885 30.1841 29.124 29.7887C30.045 28.7498 30.8702 27.6427 31.1757 27.2242H30.5129C30.1043 27.7697 29.3891 28.6951 28.6284 29.5437C27.6653 29.0866 26.6427 28.7167 25.5768 28.4395C25.8022 27.9568 25.9802 27.5291 26.1014 27.2242H25.5264C25.4045 27.5215 25.2425 27.8987 25.0478 28.3106C23.7176 28.0067 22.326 27.8448 20.9035 27.8345V27.2242H20.3713V27.8369C18.9384 27.8647 17.539 28.0474 16.2041 28.3733C15.9962 27.9371 15.8239 27.5365 15.6959 27.2242H15.1208C15.2477 27.5438 15.4372 27.9983 15.6781 28.5094C14.6308 28.7987 13.627 29.1778 12.6828 29.6423C11.8895 28.7677 11.134 27.7909 10.7094 27.2241H10.0466C10.3622 27.6565 11.2339 28.8258 12.1929 29.8946C11.5022 30.2645 10.8464 30.6813 10.2321 31.1433C8.81784 30.0373 7.58223 28.7135 6.57378 27.224H5.93459C9.08253 32.0823 14.5512 35.3036 20.7586 35.3036C26.966 35.3036 32.4347 32.0824 35.5826 27.224L34.9433 27.2241ZM25.3409 28.9279C26.356 29.1853 27.3309 29.5289 28.2506 29.9537C28.0974 30.1153 27.9442 30.2712 27.7929 30.4172C26.6583 31.5112 24.8507 32.7042 24.2216 33.1076C23.8354 32.9099 23.4142 32.7473 22.9673 32.6221C23.3065 32.1741 23.9137 31.3428 24.5717 30.3038C24.8571 29.8535 25.1158 29.3786 25.3409 28.9279ZM20.9035 28.3666C22.2426 28.3766 23.5529 28.5244 24.8074 28.8017C24.6025 29.206 24.3721 29.6242 24.1221 30.0191C23.364 31.2162 22.676 32.131 22.3999 32.4882C21.9209 32.3927 21.419 32.3389 20.9034 32.3304L20.9035 28.3666ZM20.3712 28.3693V32.3359C19.8493 32.359 19.3436 32.4295 18.8636 32.5416C18.621 32.2302 17.9002 31.2827 17.0999 30.0191C16.8623 29.6439 16.6423 29.2474 16.4452 28.8619C17.7043 28.5635 19.0222 28.3962 20.3712 28.3693ZM15.9157 28.9965C16.1326 29.4268 16.3795 29.8762 16.6503 30.3039C17.3455 31.4016 17.9838 32.2671 18.3095 32.6941C17.8899 32.8271 17.4965 32.9949 17.1358 33.1937C16.6893 32.9113 14.6621 31.606 13.4293 30.4172C13.3082 30.3005 13.1859 30.1771 13.0633 30.0498C13.964 29.6182 14.9195 29.2654 15.9157 28.9965ZM10.6743 31.477C11.2674 31.0409 11.8999 30.6478 12.5652 30.2993C12.73 30.4735 12.8956 30.6421 13.0597 30.8003C14.198 31.8979 15.9304 33.0526 16.6342 33.5055C16.3835 33.681 16.1549 33.874 15.9518 34.0835C14.0321 33.521 12.2514 32.6304 10.6743 31.477ZM20.7585 34.7714C19.3071 34.7714 17.8974 34.5891 16.5508 34.2476C17.5341 33.3834 19.0956 32.8595 20.7585 32.8595C22.4194 32.8595 23.9824 33.3838 24.9658 34.2476C23.6192 34.5892 22.2098 34.7714 20.7585 34.7714ZM25.5649 34.0835C25.3235 33.8347 25.0475 33.6078 24.7396 33.4071C25.5175 32.9005 27.0994 31.8253 28.1623 30.8003C28.3583 30.6112 28.5563 30.4078 28.7528 30.197C29.491 30.5704 30.1907 30.9976 30.8427 31.4769C29.2655 32.6305 27.4847 33.5211 25.5649 34.0835Z" fill="white"/>
</svg>
