<svg width="50" height="50" viewBox="0 0 50 50" fill="none" xmlns="http://www.w3.org/2000/svg">
<path d="M31.4273 9.375C39.957 9.375 40.625 10.0422 40.625 18.5727V31.4266C40.625 39.957 39.957 40.625 31.4273 40.625H18.5727C10.043 40.625 9.375 39.957 9.375 31.4273V18.5727C9.375 10.0422 10.043 9.375 18.5727 9.375H31.4273ZM19.5539 33.5938V20.8813H15.6031V33.5938H19.5539ZM17.5789 19.0633C18.8484 19.0633 19.8813 18.0305 19.8813 16.7594C19.8813 15.4898 18.8484 14.457 17.5789 14.457C16.3062 14.457 15.275 15.4883 15.275 16.7594C15.275 18.0305 16.3047 19.0633 17.5789 19.0633ZM34.375 33.5938V26.6211C34.375 23.1977 33.6359 20.5648 29.6352 20.5648C27.7133 20.5648 26.425 21.6188 25.8969 22.618H25.8438V20.8813H22.0539V33.5938H26.0023V27.3047C26.0023 25.6469 26.3188 24.0406 28.3742 24.0406C30.4008 24.0406 30.4273 25.9367 30.4273 27.4117V33.5938H34.375Z" fill="white"/>
</svg>
