<svg width="60" height="13" viewBox="0 0 60 13" fill="none" xmlns="http://www.w3.org/2000/svg">
<path d="M53.8567 0.400391C54.834 0.400391 55.6828 0.544502 56.4042 0.832724C57.1255 1.12095 57.681 1.54759 58.0708 2.11266C58.4664 2.67772 58.664 3.37553 58.664 4.20568C58.664 4.92624 58.5507 5.52885 58.3238 6.01314C58.0968 6.49743 57.7798 6.89828 57.3727 7.21533C57.095 7.43073 56.7853 7.6196 56.4435 7.78267L59.0799 12.8402C59.0875 12.855 59.0917 12.8717 59.0917 12.8884C59.0917 12.946 59.0448 12.9927 58.9868 12.9927H56.1699C55.9498 12.9927 55.7488 12.8694 55.6504 12.6737L53.8235 9.05198H51.9199V12.4147C51.9199 12.734 51.6597 12.9927 51.3385 12.9927H49.4388C49.1176 12.9927 48.8574 12.734 48.8574 12.4147V0.978352C48.8574 0.659032 49.1176 0.400391 49.4388 0.400391H51.682H53.8571H53.8567ZM53.1071 2.66635C52.4414 2.66635 51.9016 3.19842 51.9016 3.85488V6.23727C51.9016 6.28126 51.9375 6.31653 51.9821 6.31653H54.3984C55.064 6.31653 55.6038 5.78446 55.6038 5.12799V3.85488C55.6038 3.19842 55.064 2.66635 54.3984 2.66635H53.1071Z" fill="#0048FF"/>
<path d="M43.2698 0.400391C45.5608 0.400391 47.4182 2.23584 47.4182 4.50053V12.9927C47.2635 12.9927 47.2948 12.9927 47.1417 12.9927H38.8261C36.5351 12.9927 34.6777 11.1572 34.6777 8.8929V4.50053C34.6777 2.23584 36.5351 0.400391 38.8261 0.400391H43.2698ZM41.0542 3.22946C40.2421 3.22946 39.5834 3.88392 39.5834 4.69169V5.22767H39.0404C38.2283 5.22767 37.5696 5.88214 37.5696 6.6899C37.5696 7.49729 38.2283 8.15213 39.0404 8.15213H39.5796V8.68812C39.5796 9.4955 40.2383 10.1503 41.0504 10.1503C41.8626 10.1503 42.5213 9.4955 42.5213 8.68812V8.15213H43.0608C43.873 8.15213 44.5317 7.49767 44.5317 6.6899C44.5317 5.88252 43.8733 5.22767 43.0608 5.22767H42.5251V4.69169C42.5251 3.8843 41.8668 3.22946 41.0542 3.22946Z" fill="#0048FF"/>
<path d="M2.38479 0.40625H4.82468L7.59727 9.04851L10.3699 0.40625H12.8097L8.58687 12.8279H6.60767L2.38479 0.40625ZM0.900391 0.40625H3.42558L3.89479 9.92724V12.8279H0.900391V0.40625ZM11.769 0.40625H14.3027V12.8279H11.2997V9.92724L11.769 0.40625Z" fill="#002F6C"/>
<path d="M20.0318 12.9985C19.2811 12.9985 18.6099 12.8819 18.0185 12.6487C17.427 12.4099 16.9265 12.0828 16.517 11.6676C16.1132 11.2524 15.8032 10.7747 15.5871 10.2344C15.3767 9.69405 15.2715 9.12245 15.2715 8.51956V8.19537C15.2715 7.51855 15.3653 6.89292 15.553 6.31847C15.7407 5.73834 16.0194 5.23215 16.389 4.7999C16.7587 4.36764 17.2222 4.03207 17.7796 3.7932C18.337 3.54863 18.9853 3.42635 19.7247 3.42635C20.3787 3.42635 20.9645 3.53157 21.4821 3.74201C21.9996 3.95245 22.4375 4.25389 22.7959 4.64633C23.1598 5.03877 23.4357 5.51368 23.6234 6.07107C23.8167 6.62845 23.9134 7.25408 23.9134 7.94796V9.11676H16.372V7.31664H21.1067V7.09483C21.1124 6.7877 21.0584 6.52607 20.9446 6.30994C20.8366 6.09382 20.6773 5.92888 20.4669 5.81513C20.2564 5.70137 20.0005 5.6445 19.6991 5.6445C19.3863 5.6445 19.1275 5.71275 18.9228 5.84925C18.7237 5.98575 18.5673 6.17344 18.4535 6.41232C18.3455 6.64551 18.2687 6.91567 18.2232 7.2228C18.1777 7.52993 18.155 7.85412 18.155 8.19537V8.51956C18.155 8.86082 18.2005 9.17079 18.2915 9.44948C18.3881 9.72817 18.5246 9.96705 18.7009 10.1661C18.8829 10.3595 19.0991 10.5102 19.3493 10.6183C19.6052 10.7263 19.8953 10.7804 20.2195 10.7804C20.6119 10.7804 20.9986 10.7064 21.3797 10.5586C21.7607 10.4107 22.0878 10.1661 22.3608 9.82486L23.666 11.3776C23.4783 11.6449 23.211 11.9037 22.8641 12.1539C22.5229 12.4042 22.1134 12.6089 21.6356 12.7682C21.1579 12.9217 20.6233 12.9985 20.0318 12.9985Z" fill="#002F6C"/>
<path d="M30.3885 10.7121V0.40625H33.2805V12.8279H30.6871L30.3885 10.7121ZM24.7239 8.32334V8.14418C24.7239 7.44461 24.8007 6.80761 24.9542 6.23316C25.1078 5.65303 25.3353 5.15537 25.6367 4.74018C25.9381 4.3193 26.3135 3.9951 26.7628 3.7676C27.2121 3.5401 27.7296 3.42635 28.3154 3.42635C28.8387 3.42635 29.2965 3.54863 29.6889 3.7932C30.0814 4.03207 30.4169 4.36764 30.6956 4.7999C30.9743 5.23215 31.2018 5.73834 31.3781 6.31847C31.5544 6.89292 31.6881 7.51286 31.779 8.17831V8.39159C31.6881 9.01723 31.5544 9.60873 31.3781 10.1661C31.2018 10.7178 30.9743 11.2069 30.6956 11.6335C30.4169 12.0601 30.0785 12.3956 29.6804 12.6402C29.288 12.8791 28.8273 12.9985 28.2984 12.9985C27.7126 12.9985 27.195 12.8819 26.7457 12.6487C26.3021 12.4155 25.9296 12.0885 25.6282 11.6676C25.3324 11.2468 25.1078 10.7519 24.9542 10.1832C24.8007 9.61442 24.7239 8.99447 24.7239 8.32334ZM27.5988 8.14418V8.32334C27.5988 8.67028 27.6216 8.99163 27.6671 9.28739C27.7126 9.58314 27.7894 9.84477 27.8974 10.0723C28.0112 10.2941 28.159 10.4676 28.341 10.5927C28.5287 10.7178 28.7591 10.7804 29.0321 10.7804C29.4017 10.7804 29.706 10.6922 29.9449 10.5159C30.1894 10.3396 30.3686 10.0893 30.4823 9.76514C30.6018 9.44095 30.653 9.05988 30.6359 8.62194V7.94796C30.6473 7.57258 30.6217 7.2427 30.5591 6.95833C30.4965 6.66826 30.397 6.42654 30.2605 6.23316C30.1297 6.03978 29.9619 5.89475 29.7572 5.79806C29.5581 5.69569 29.3221 5.6445 29.0491 5.6445C28.7818 5.6445 28.5543 5.70706 28.3666 5.83219C28.1846 5.95731 28.0368 6.13363 27.923 6.36113C27.8093 6.58295 27.7268 6.84742 27.6756 7.15455C27.6244 7.45599 27.5988 7.78587 27.5988 8.14418Z" fill="#002F6C"/>
</svg>
