<svg width="80" height="18" viewBox="0 0 80 18" fill="none" xmlns="http://www.w3.org/2000/svg">
<path d="M72.8252 0C74.1649 0 75.3283 0.197536 76.3171 0.592608C77.3059 0.98768 78.0673 1.57249 78.6017 2.34704C79.1439 3.12159 79.4148 4.07808 79.4148 5.21599C79.4148 6.20367 79.2595 7.02968 78.9484 7.69351C78.6372 8.35733 78.2027 8.90679 77.6448 9.34137C77.2641 9.63664 76.8395 9.89551 76.371 10.119L79.9848 17.0515C79.9952 17.0718 80.001 17.0947 80.001 17.1175C80.001 17.1965 79.9366 17.2605 79.8572 17.2605H75.9961C75.6944 17.2605 75.4188 17.0915 75.2839 16.8233L72.7797 11.8589H70.1705V16.4683C70.1705 16.906 69.8139 17.2605 69.3736 17.2605H66.7696C66.3293 17.2605 65.9727 16.906 65.9727 16.4683V0.792223C65.9727 0.354525 66.3293 0 66.7696 0H69.8443H72.8258H72.8252ZM71.7977 3.10599C70.8853 3.10599 70.1454 3.83532 70.1454 4.73515V8.00073C70.1454 8.06103 70.1945 8.10937 70.2557 8.10937H73.5677C74.4802 8.10937 75.2201 7.38005 75.2201 6.48022V4.73515C75.2201 3.83532 74.4802 3.10599 73.5677 3.10599H71.7977Z" fill="#2DB9B1"/>
<path d="M58.1962 0.0078125C61.3425 0.0078125 63.8932 2.52848 63.8932 5.63863V17.301C63.5135 17.301 63.8932 17.301 63.5135 17.301H52.0935C48.9472 17.301 46.3965 14.7804 46.3965 11.6708V5.63863C46.3965 2.52848 48.9472 0.0078125 52.0935 0.0078125H58.1962ZM55.1535 3.89303C54.0381 3.89303 53.1335 4.79182 53.1335 5.90114V6.63722H52.3878C51.2725 6.63722 50.3679 7.53601 50.3679 8.64533C50.3679 9.75413 51.2725 10.6534 52.3878 10.6534H53.1283V11.3895C53.1283 12.4983 54.0329 13.3976 55.1482 13.3976C56.2636 13.3976 57.1682 12.4983 57.1682 11.3895V10.6534H57.9091C59.0245 10.6534 59.9291 9.75465 59.9291 8.64533C59.9291 7.53653 59.025 6.63722 57.9091 6.63722H57.1734V5.90114C57.1734 4.79234 56.2693 3.89303 55.1535 3.89303Z" fill="#2DB9B1"/>
<path d="M14.8751 8.41364V9.10359C14.8751 10.4055 14.6921 11.5749 14.3259 12.6118C13.9676 13.6409 13.4573 14.5218 12.7952 15.2547C12.133 15.9797 11.3501 16.5371 10.4465 16.9269C9.54283 17.3089 8.5457 17.4999 7.45509 17.4999C6.35669 17.4999 5.35177 17.3089 4.44034 16.9269C3.53669 16.5371 2.74989 15.9797 2.07995 15.2547C1.41779 14.5218 0.903647 13.6409 0.537514 12.6118C0.179171 11.5749 0 10.4055 0 9.10359V8.41364C0 7.1117 0.179171 5.9423 0.537514 4.90542C0.903647 3.86855 1.4139 2.9876 2.06826 2.26257C2.73042 1.52974 3.51332 0.972324 4.41697 0.590318C5.3284 0.200516 6.33332 0.00561523 7.43172 0.00561523C8.52233 0.00561523 9.51946 0.200516 10.4231 0.590318C11.3345 0.972324 12.1213 1.52974 12.7835 2.26257C13.4456 2.9876 13.9598 3.86855 14.3259 4.90542C14.6921 5.9423 14.8751 7.1117 14.8751 8.41364ZM10.7152 9.10359V8.39025C10.7152 7.54828 10.6412 6.80766 10.4932 6.16838C10.353 5.52131 10.1427 4.97949 9.86222 4.54291C9.58178 4.10633 9.23512 3.7789 8.82225 3.56061C8.41716 3.33452 7.95365 3.22148 7.43172 3.22148C6.88642 3.22148 6.41122 3.33452 6.00614 3.56061C5.60106 3.7789 5.26219 4.10633 4.98954 4.54291C4.71688 4.97949 4.51045 5.52131 4.37023 6.16838C4.23779 6.80766 4.17158 7.54828 4.17158 8.39025V9.10359C4.17158 9.93777 4.23779 10.6784 4.37023 11.3255C4.51045 11.9647 4.71688 12.5066 4.98954 12.9509C5.26998 13.3953 5.61274 13.7305 6.01782 13.9566C6.4307 14.1827 6.90979 14.2958 7.45509 14.2958C7.97703 14.2958 8.44053 14.1827 8.84562 13.9566C9.2507 13.7305 9.58957 13.3953 9.86222 12.9509C10.1427 12.5066 10.353 11.9647 10.4932 11.3255C10.6412 10.6784 10.7152 9.93777 10.7152 9.10359Z" fill="#002F6C"/>
<path d="M23.0729 11.4892H18.8429V8.32009H23.0729C23.6494 8.32009 24.1168 8.22264 24.4751 8.02774C24.8335 7.83284 25.0944 7.56387 25.258 7.22085C25.4294 6.87003 25.5151 6.47633 25.5151 6.03975C25.5151 5.57198 25.4294 5.13931 25.258 4.74171C25.0944 4.34411 24.8335 4.02447 24.4751 3.78279C24.1168 3.53332 23.6494 3.40859 23.0729 3.40859H20.3853V17.266H16.2839V0.239496H23.0729C24.4362 0.239496 25.6086 0.488969 26.5901 0.987916C27.5795 1.48686 28.339 2.17291 28.8687 3.04607C29.3985 3.91143 29.6633 4.90153 29.6633 6.01636C29.6633 7.1156 29.3985 8.07451 28.8687 8.8931C28.339 9.71168 27.5795 10.351 26.5901 10.8109C25.6086 11.2631 24.4362 11.4892 23.0729 11.4892Z" fill="#002F6C"/>
<path d="M36.6809 17.266H32.9066L32.93 14.1086H36.6809C37.4599 14.1086 38.1182 13.9215 38.6557 13.5473C39.201 13.1731 39.6139 12.6157 39.8943 11.8751C40.1825 11.1267 40.3267 10.2067 40.3267 9.11528V8.37856C40.3267 7.55997 40.2449 6.84274 40.0813 6.22685C39.9255 5.60317 39.6918 5.08473 39.3802 4.67154C39.0686 4.25056 38.6791 3.93482 38.2117 3.72432C37.752 3.51383 37.2223 3.40859 36.6225 3.40859H32.8365V0.239496H36.6225C37.7754 0.239496 38.831 0.438295 39.7892 0.835893C40.7551 1.2257 41.5887 1.78701 42.2898 2.51984C42.9987 3.24487 43.544 4.10633 43.9257 5.10422C44.3152 6.09432 44.5099 7.19356 44.5099 8.40195V9.11528C44.5099 10.3159 44.3152 11.4151 43.9257 12.413C43.544 13.4109 43.0026 14.2724 42.3014 14.9974C41.6003 15.7224 40.7707 16.2837 39.8125 16.6813C38.8621 17.0711 37.8183 17.266 36.6809 17.266ZM35.2553 0.239496V17.266H31.1539V0.239496H35.2553Z" fill="#002F6C"/>
</svg>
