<svg width="12" height="12" viewBox="0 0 12 12" fill="none" xmlns="http://www.w3.org/2000/svg">
<g clip-path="url(#clip0_1117_1608)">
<path fill-rule="evenodd" clip-rule="evenodd" d="M9.9208 1.43557L10.7819 2.29681C11.0086 2.52348 11.0086 2.89429 10.7819 3.12095L10.0885 3.81442C10.2798 4.17165 10.4258 4.55672 10.5187 4.96209H11.417C11.7376 4.96209 11.9999 5.2244 11.9999 5.54491V6.76281C11.9999 7.08342 11.7376 7.34573 11.417 7.34573H10.4366C10.3164 7.74251 10.1444 8.11683 9.92842 8.46078L10.5644 9.09654C10.791 9.32339 10.791 9.6942 10.5644 9.92077L9.70322 10.782C9.47656 11.0086 9.10566 11.0086 8.8791 10.782L8.18555 10.0884C7.82842 10.2799 7.44326 10.426 7.03779 10.5187V11.4171C7.03779 11.7376 6.77559 11.9999 6.45498 11.9999H5.23721C4.9166 11.9999 4.6543 11.7376 4.6543 11.4171V10.4367C4.25752 10.3164 3.8832 10.1444 3.53936 9.92838L2.90352 10.5643C2.67666 10.791 2.30586 10.791 2.0792 10.5643L1.21807 9.70319C0.991406 9.47652 0.991406 9.10571 1.21807 8.87905L1.91162 8.18548C1.72022 7.82835 1.57412 7.44329 1.48145 7.03791H0.582813C0.262305 7.03791 0 6.7757 0 6.45509V5.23719C0 4.91658 0.262305 4.65437 0.582813 4.65437H1.56318C1.6835 4.25759 1.85547 3.88327 2.07139 3.53932L1.43555 2.90356C1.20889 2.6768 1.20889 2.3059 1.43555 2.07933L2.29678 1.21809C2.52344 0.991422 2.89424 0.991422 3.1209 1.21809L3.81436 1.91155C4.17158 1.72015 4.55664 1.57405 4.96211 1.48127V0.58292C4.96211 0.262309 5.22441 0 5.54492 0H6.76279C7.0833 0 7.34561 0.262309 7.34561 0.58292V1.56301C7.74248 1.68323 8.11689 1.85521 8.46104 2.07123L9.09649 1.43557C9.32334 1.20891 9.69414 1.20891 9.9208 1.43557ZM6 3.60553C7.32227 3.60553 8.39443 4.67781 8.39443 6C8.39443 7.32209 7.32227 8.39447 6 8.39447C4.67783 8.39447 3.60557 7.32219 3.60557 6C3.60557 4.67781 4.67783 3.60553 6 3.60553Z" fill="black"/>
</g>
<defs>
<clipPath id="clip0_1117_1608">
<rect width="12" height="12" fill="white"/>
</clipPath>
</defs>
</svg>
