<svg width="621" height="372" viewBox="0 0 621 372" fill="none" xmlns="http://www.w3.org/2000/svg">
<path d="M0 50C0 22.3858 22.3858 0 50 0H570.178C597.792 0 620.178 22.3858 620.178 50V372H50C22.3858 372 0 349.614 0 322V50Z" fill="url(#paint0_linear_906_1093)"/>
<path d="M113.312 87.5C163.329 87.5 203.865 127.576 203.865 177C203.865 226.424 163.329 266.5 113.312 266.5C63.2946 266.5 22.7578 226.424 22.7578 177C22.7578 127.576 63.2946 87.5001 113.312 87.5Z" fill="url(#paint1_linear_906_1093)" fill-opacity="0.5" stroke="url(#paint2_linear_906_1093)"/>
<path d="M311.101 87.5C360.836 87.5 401.148 127.573 401.148 177C401.148 226.427 360.836 266.5 311.101 266.5C261.366 266.5 221.053 226.427 221.053 177C221.053 127.573 261.366 87.5001 311.101 87.5Z" fill="url(#paint3_linear_906_1093)" stroke="url(#paint4_linear_906_1093)"/>
<path d="M507.878 87.5C557.895 87.5 598.432 127.576 598.432 177C598.432 226.424 557.895 266.5 507.878 266.5C457.861 266.5 417.324 226.424 417.324 177C417.324 127.576 457.861 87.5001 507.878 87.5Z" fill="url(#paint5_linear_906_1093)" fill-opacity="0.5" stroke="url(#paint6_linear_906_1093)"/>
<path d="M82.2057 181.176H78.6706V178.529H82.2057C82.6875 178.529 83.0781 178.448 83.3776 178.285C83.6771 178.122 83.8952 177.898 84.0319 177.611C84.1751 177.318 84.2467 176.99 84.2467 176.625C84.2467 176.234 84.1751 175.873 84.0319 175.541C83.8952 175.209 83.6771 174.942 83.3776 174.74C83.0781 174.532 82.6875 174.428 82.2057 174.428H79.9596V186H76.5319V171.781H82.2057C83.345 171.781 84.3249 171.99 85.1452 172.406C85.972 172.823 86.6068 173.396 87.0495 174.125C87.4922 174.848 87.7135 175.674 87.7135 176.605C87.7135 177.523 87.4922 178.324 87.0495 179.008C86.6068 179.691 85.972 180.225 85.1452 180.609C84.3249 180.987 83.345 181.176 82.2057 181.176ZM96.7834 186.195C95.9241 186.195 95.1558 186.062 94.4788 185.795C93.8017 185.521 93.2288 185.147 92.76 184.672C92.2978 184.197 91.943 183.65 91.6956 183.031C91.4547 182.413 91.3342 181.758 91.3342 181.068V180.697C91.3342 179.923 91.4416 179.206 91.6565 178.549C91.8713 177.885 92.1903 177.305 92.6135 176.811C93.0367 176.316 93.5673 175.932 94.2053 175.658C94.8433 175.378 95.5855 175.238 96.4319 175.238C97.1806 175.238 97.8512 175.359 98.4436 175.6C99.036 175.84 99.5374 176.186 99.9475 176.635C100.364 177.084 100.68 177.628 100.895 178.266C101.116 178.904 101.227 179.62 101.227 180.414V181.752H92.594V179.691H98.0139V179.438C98.0204 179.086 97.9586 178.786 97.8284 178.539C97.7047 178.292 97.5224 178.103 97.2815 177.973C97.0406 177.842 96.7476 177.777 96.4026 177.777C96.0445 177.777 95.7483 177.855 95.5139 178.012C95.286 178.168 95.107 178.383 94.9768 178.656C94.8531 178.923 94.7652 179.232 94.7131 179.584C94.661 179.936 94.635 180.307 94.635 180.697V181.068C94.635 181.459 94.6871 181.814 94.7913 182.133C94.9019 182.452 95.0582 182.725 95.26 182.953C95.4683 183.174 95.7157 183.347 96.0022 183.471C96.2952 183.594 96.6272 183.656 96.9983 183.656C97.4475 183.656 97.8902 183.572 98.3264 183.402C98.7626 183.233 99.137 182.953 99.4495 182.562L100.944 184.34C100.729 184.646 100.423 184.942 100.026 185.229C99.635 185.515 99.1663 185.749 98.6194 185.932C98.0725 186.107 97.4605 186.195 96.7834 186.195ZM104.555 180.824V180.619C104.555 179.844 104.665 179.132 104.887 178.48C105.108 177.823 105.433 177.253 105.863 176.771C106.293 176.29 106.823 175.915 107.455 175.648C108.086 175.375 108.816 175.238 109.642 175.238C110.476 175.238 111.208 175.375 111.84 175.648C112.478 175.915 113.012 176.29 113.441 176.771C113.871 177.253 114.196 177.823 114.418 178.48C114.639 179.132 114.75 179.844 114.75 180.619V180.824C114.75 181.592 114.639 182.305 114.418 182.963C114.196 183.614 113.871 184.184 113.441 184.672C113.012 185.154 112.481 185.528 111.849 185.795C111.218 186.062 110.489 186.195 109.662 186.195C108.835 186.195 108.103 186.062 107.465 185.795C106.827 185.528 106.293 185.154 105.863 184.672C105.433 184.184 105.108 183.614 104.887 182.963C104.665 182.305 104.555 181.592 104.555 180.824ZM107.846 180.619V180.824C107.846 181.221 107.875 181.592 107.933 181.938C107.992 182.283 108.09 182.585 108.226 182.846C108.363 183.1 108.549 183.298 108.783 183.441C109.017 183.585 109.31 183.656 109.662 183.656C110.007 183.656 110.293 183.585 110.521 183.441C110.756 183.298 110.941 183.1 111.078 182.846C111.215 182.585 111.312 182.283 111.371 181.938C111.43 181.592 111.459 181.221 111.459 180.824V180.619C111.459 180.235 111.43 179.874 111.371 179.535C111.312 179.19 111.215 178.887 111.078 178.627C110.941 178.36 110.756 178.152 110.521 178.002C110.287 177.852 109.994 177.777 109.642 177.777C109.297 177.777 109.008 177.852 108.773 178.002C108.545 178.152 108.363 178.36 108.226 178.627C108.09 178.887 107.992 179.19 107.933 179.535C107.875 179.874 107.846 180.235 107.846 180.619ZM121.935 177.465V190.062H118.644V175.434H121.71L121.935 177.465ZM128.419 180.59V180.795C128.419 181.563 128.331 182.276 128.156 182.934C127.98 183.591 127.72 184.164 127.374 184.652C127.029 185.141 126.6 185.521 126.085 185.795C125.578 186.062 124.988 186.195 124.318 186.195C123.686 186.195 123.143 186.055 122.687 185.775C122.231 185.495 121.85 185.108 121.544 184.613C121.238 184.118 120.991 183.552 120.802 182.914C120.613 182.276 120.464 181.602 120.353 180.893V180.629C120.464 179.867 120.613 179.161 120.802 178.51C120.991 177.852 121.238 177.279 121.544 176.791C121.85 176.303 122.228 175.922 122.677 175.648C123.133 175.375 123.677 175.238 124.308 175.238C124.979 175.238 125.568 175.365 126.076 175.619C126.59 175.873 127.02 176.238 127.365 176.713C127.716 177.182 127.98 177.745 128.156 178.402C128.331 179.06 128.419 179.789 128.419 180.59ZM125.128 180.795V180.59C125.128 180.18 125.099 179.805 125.04 179.467C124.982 179.122 124.887 178.822 124.757 178.568C124.634 178.314 124.468 178.119 124.259 177.982C124.051 177.846 123.794 177.777 123.488 177.777C123.136 177.777 122.84 177.833 122.599 177.943C122.365 178.048 122.176 178.21 122.033 178.432C121.896 178.646 121.798 178.917 121.74 179.242C121.688 179.561 121.665 179.936 121.671 180.365V181.166C121.658 181.661 121.707 182.097 121.818 182.475C121.928 182.846 122.121 183.135 122.394 183.344C122.667 183.552 123.039 183.656 123.507 183.656C123.82 183.656 124.08 183.585 124.289 183.441C124.497 183.292 124.663 183.087 124.787 182.826C124.91 182.559 124.998 182.253 125.05 181.908C125.102 181.563 125.128 181.192 125.128 180.795ZM135.761 171V186H132.46V171H135.761ZM145.309 186.195C144.45 186.195 143.682 186.062 143.005 185.795C142.327 185.521 141.755 185.147 141.286 184.672C140.824 184.197 140.469 183.65 140.221 183.031C139.98 182.413 139.86 181.758 139.86 181.068V180.697C139.86 179.923 139.967 179.206 140.182 178.549C140.397 177.885 140.716 177.305 141.139 176.811C141.562 176.316 142.093 175.932 142.731 175.658C143.369 175.378 144.111 175.238 144.958 175.238C145.706 175.238 146.377 175.359 146.969 175.6C147.562 175.84 148.063 176.186 148.473 176.635C148.89 177.084 149.206 177.628 149.421 178.266C149.642 178.904 149.753 179.62 149.753 180.414V181.752H141.12V179.691H146.54V179.438C146.546 179.086 146.484 178.786 146.354 178.539C146.23 178.292 146.048 178.103 145.807 177.973C145.566 177.842 145.273 177.777 144.928 177.777C144.57 177.777 144.274 177.855 144.04 178.012C143.812 178.168 143.633 178.383 143.503 178.656C143.379 178.923 143.291 179.232 143.239 179.584C143.187 179.936 143.161 180.307 143.161 180.697V181.068C143.161 181.459 143.213 181.814 143.317 182.133C143.428 182.452 143.584 182.725 143.786 182.953C143.994 183.174 144.242 183.347 144.528 183.471C144.821 183.594 145.153 183.656 145.524 183.656C145.973 183.656 146.416 183.572 146.852 183.402C147.288 183.233 147.663 182.953 147.975 182.562L149.469 184.34C149.255 184.646 148.949 184.942 148.551 185.229C148.161 185.515 147.692 185.749 147.145 185.932C146.598 186.107 145.986 186.195 145.309 186.195Z" fill="url(#paint7_linear_906_1093)"/>
<path d="M268.668 181.176H265.133V178.529H268.668C269.15 178.529 269.54 178.448 269.84 178.285C270.139 178.122 270.357 177.898 270.494 177.611C270.637 177.318 270.709 176.99 270.709 176.625C270.709 176.234 270.637 175.873 270.494 175.541C270.357 175.209 270.139 174.942 269.84 174.74C269.54 174.532 269.15 174.428 268.668 174.428H266.422V186H262.994V171.781H268.668C269.807 171.781 270.787 171.99 271.607 172.406C272.434 172.823 273.069 173.396 273.512 174.125C273.954 174.848 274.176 175.674 274.176 176.605C274.176 177.523 273.954 178.324 273.512 179.008C273.069 179.691 272.434 180.225 271.607 180.609C270.787 180.987 269.807 181.176 268.668 181.176ZM281.585 178.051V186H278.294V175.434H281.371L281.585 178.051ZM284.71 175.355L284.652 178.412C284.522 178.399 284.346 178.383 284.125 178.363C283.903 178.344 283.718 178.334 283.568 178.334C283.184 178.334 282.852 178.38 282.572 178.471C282.298 178.555 282.071 178.686 281.888 178.861C281.712 179.031 281.582 179.245 281.498 179.506C281.419 179.766 281.384 180.069 281.39 180.414L280.794 180.023C280.794 179.314 280.863 178.669 281 178.09C281.143 177.504 281.345 176.999 281.605 176.576C281.865 176.146 282.181 175.818 282.552 175.59C282.923 175.355 283.34 175.238 283.802 175.238C283.965 175.238 284.125 175.248 284.281 175.268C284.444 175.287 284.587 175.316 284.71 175.355ZM287.482 180.824V180.619C287.482 179.844 287.592 179.132 287.814 178.48C288.035 177.823 288.36 177.253 288.79 176.771C289.22 176.29 289.75 175.915 290.382 175.648C291.013 175.375 291.743 175.238 292.569 175.238C293.403 175.238 294.135 175.375 294.767 175.648C295.405 175.915 295.939 176.29 296.368 176.771C296.798 177.253 297.124 177.823 297.345 178.48C297.566 179.132 297.677 179.844 297.677 180.619V180.824C297.677 181.592 297.566 182.305 297.345 182.963C297.124 183.614 296.798 184.184 296.368 184.672C295.939 185.154 295.408 185.528 294.776 185.795C294.145 186.062 293.416 186.195 292.589 186.195C291.762 186.195 291.03 186.062 290.392 185.795C289.754 185.528 289.22 185.154 288.79 184.672C288.36 184.184 288.035 183.614 287.814 182.963C287.592 182.305 287.482 181.592 287.482 180.824ZM290.773 180.619V180.824C290.773 181.221 290.802 181.592 290.86 181.938C290.919 182.283 291.017 182.585 291.153 182.846C291.29 183.1 291.476 183.298 291.71 183.441C291.944 183.585 292.237 183.656 292.589 183.656C292.934 183.656 293.221 183.585 293.448 183.441C293.683 183.298 293.868 183.1 294.005 182.846C294.142 182.585 294.239 182.283 294.298 181.938C294.357 181.592 294.386 181.221 294.386 180.824V180.619C294.386 180.235 294.357 179.874 294.298 179.535C294.239 179.19 294.142 178.887 294.005 178.627C293.868 178.36 293.683 178.152 293.448 178.002C293.214 177.852 292.921 177.777 292.569 177.777C292.224 177.777 291.935 177.852 291.7 178.002C291.472 178.152 291.29 178.36 291.153 178.627C291.017 178.887 290.919 179.19 290.86 179.535C290.802 179.874 290.773 180.235 290.773 180.619ZM307.616 183.578V171H310.926V186H307.958L307.616 183.578ZM301.132 180.844V180.639C301.132 179.838 301.219 179.109 301.395 178.451C301.571 177.787 301.831 177.217 302.176 176.742C302.522 176.26 302.951 175.889 303.466 175.629C303.98 175.368 304.572 175.238 305.243 175.238C305.842 175.238 306.366 175.378 306.815 175.658C307.264 175.932 307.649 176.316 307.968 176.811C308.287 177.305 308.547 177.885 308.749 178.549C308.951 179.206 309.104 179.916 309.208 180.678V180.922C309.104 181.638 308.951 182.315 308.749 182.953C308.547 183.585 308.287 184.145 307.968 184.633C307.649 185.121 307.261 185.505 306.805 185.785C306.356 186.059 305.829 186.195 305.223 186.195C304.553 186.195 303.96 186.062 303.446 185.795C302.938 185.528 302.512 185.154 302.167 184.672C301.828 184.19 301.571 183.624 301.395 182.973C301.219 182.322 301.132 181.612 301.132 180.844ZM304.423 180.639V180.844C304.423 181.241 304.449 181.609 304.501 181.947C304.553 182.286 304.641 182.585 304.764 182.846C304.895 183.1 305.064 183.298 305.272 183.441C305.487 183.585 305.751 183.656 306.063 183.656C306.486 183.656 306.835 183.555 307.108 183.354C307.388 183.152 307.593 182.865 307.723 182.494C307.86 182.123 307.919 181.687 307.899 181.186V180.414C307.912 179.984 307.883 179.607 307.811 179.281C307.74 178.949 307.626 178.673 307.469 178.451C307.32 178.23 307.128 178.064 306.893 177.953C306.665 177.836 306.395 177.777 306.083 177.777C305.777 177.777 305.516 177.849 305.301 177.992C305.093 178.135 304.924 178.337 304.794 178.598C304.663 178.852 304.569 179.154 304.51 179.506C304.452 179.851 304.423 180.229 304.423 180.639ZM321.364 183.432V175.434H324.664V186H321.578L321.364 183.432ZM321.676 181.283L322.535 181.264C322.535 181.973 322.451 182.631 322.282 183.236C322.112 183.835 321.862 184.356 321.53 184.799C321.204 185.242 320.8 185.587 320.319 185.834C319.843 186.075 319.293 186.195 318.668 186.195C318.147 186.195 317.669 186.124 317.233 185.98C316.803 185.831 316.432 185.6 316.119 185.287C315.807 184.968 315.563 184.561 315.387 184.066C315.218 183.565 315.133 182.966 315.133 182.27V175.434H318.424V182.289C318.424 182.523 318.453 182.725 318.512 182.895C318.571 183.064 318.655 183.207 318.766 183.324C318.877 183.435 319.013 183.52 319.176 183.578C319.345 183.63 319.537 183.656 319.752 183.656C320.247 183.656 320.634 183.552 320.914 183.344C321.194 183.135 321.39 182.852 321.5 182.494C321.618 182.136 321.676 181.732 321.676 181.283ZM333.344 183.656C333.65 183.656 333.91 183.601 334.125 183.49C334.346 183.373 334.512 183.21 334.623 183.002C334.74 182.787 334.796 182.53 334.789 182.23H337.885C337.891 183.025 337.696 183.721 337.299 184.32C336.908 184.913 336.374 185.375 335.697 185.707C335.027 186.033 334.268 186.195 333.422 186.195C332.595 186.195 331.872 186.062 331.254 185.795C330.635 185.521 330.118 185.144 329.701 184.662C329.291 184.174 328.982 183.604 328.773 182.953C328.572 182.302 328.471 181.596 328.471 180.834V180.609C328.471 179.848 328.572 179.141 328.773 178.49C328.982 177.833 329.291 177.263 329.701 176.781C330.118 176.293 330.632 175.915 331.244 175.648C331.863 175.375 332.582 175.238 333.402 175.238C334.281 175.238 335.056 175.404 335.727 175.736C336.404 176.068 336.934 176.55 337.318 177.182C337.702 177.813 337.891 178.578 337.885 179.477H334.789C334.796 179.158 334.747 178.871 334.643 178.617C334.538 178.363 334.376 178.161 334.154 178.012C333.939 177.855 333.663 177.777 333.324 177.777C332.986 177.777 332.712 177.852 332.504 178.002C332.296 178.152 332.136 178.36 332.025 178.627C331.921 178.887 331.85 179.187 331.81 179.525C331.778 179.864 331.762 180.225 331.762 180.609V180.834C331.762 181.225 331.778 181.592 331.81 181.938C331.85 182.276 331.924 182.576 332.035 182.836C332.146 183.09 332.305 183.292 332.514 183.441C332.722 183.585 332.999 183.656 333.344 183.656ZM347.257 175.434V177.719H340.89V175.434H347.257ZM342.228 172.807H345.519V182.553C345.519 182.833 345.552 183.051 345.617 183.207C345.682 183.357 345.793 183.464 345.949 183.529C346.112 183.588 346.326 183.617 346.593 183.617C346.782 183.617 346.938 183.614 347.062 183.607C347.186 183.594 347.303 183.578 347.414 183.559V185.912C347.134 186.003 346.841 186.072 346.535 186.117C346.229 186.169 345.903 186.195 345.558 186.195C344.855 186.195 344.253 186.085 343.751 185.863C343.257 185.642 342.879 185.294 342.619 184.818C342.358 184.343 342.228 183.725 342.228 182.963V172.807ZM356.503 183.031C356.503 182.849 356.441 182.693 356.318 182.562C356.2 182.426 355.992 182.302 355.693 182.191C355.393 182.074 354.973 181.957 354.433 181.84C353.918 181.729 353.433 181.583 352.978 181.4C352.528 181.218 352.135 180.997 351.796 180.736C351.457 180.476 351.191 180.167 350.995 179.809C350.806 179.451 350.712 179.04 350.712 178.578C350.712 178.129 350.806 177.706 350.995 177.309C351.191 176.905 351.474 176.55 351.845 176.244C352.222 175.932 352.681 175.688 353.222 175.512C353.762 175.329 354.377 175.238 355.068 175.238C356.018 175.238 356.838 175.385 357.528 175.678C358.219 175.964 358.749 176.368 359.12 176.889C359.498 177.403 359.687 177.999 359.687 178.676H356.396C356.396 178.409 356.35 178.181 356.259 177.992C356.174 177.803 356.034 177.66 355.839 177.562C355.644 177.458 355.383 177.406 355.058 177.406C354.83 177.406 354.622 177.449 354.433 177.533C354.25 177.618 354.104 177.735 353.993 177.885C353.883 178.035 353.827 178.21 353.827 178.412C353.827 178.555 353.86 178.686 353.925 178.803C353.997 178.913 354.104 179.018 354.247 179.115C354.39 179.206 354.573 179.291 354.794 179.369C355.015 179.441 355.282 179.506 355.595 179.564C356.304 179.695 356.969 179.88 357.587 180.121C358.206 180.362 358.707 180.704 359.091 181.146C359.482 181.589 359.677 182.185 359.677 182.934C359.677 183.402 359.569 183.835 359.355 184.232C359.14 184.623 358.831 184.968 358.427 185.268C358.023 185.561 357.538 185.788 356.972 185.951C356.405 186.114 355.767 186.195 355.058 186.195C354.049 186.195 353.196 186.016 352.499 185.658C351.803 185.294 351.275 184.838 350.917 184.291C350.566 183.738 350.39 183.178 350.39 182.611H353.456C353.469 182.937 353.547 183.204 353.691 183.412C353.84 183.62 354.039 183.773 354.286 183.871C354.534 183.969 354.82 184.018 355.146 184.018C355.445 184.018 355.693 183.975 355.888 183.891C356.09 183.806 356.243 183.692 356.347 183.549C356.451 183.399 356.503 183.227 356.503 183.031Z" fill="url(#paint8_linear_906_1093)"/>
<path d="M443.068 181.176H439.533V178.529H443.068C443.549 178.529 443.94 178.448 444.24 178.285C444.539 178.122 444.757 177.898 444.894 177.611C445.037 177.318 445.109 176.99 445.109 176.625C445.109 176.234 445.037 175.873 444.894 175.541C444.757 175.209 444.539 174.942 444.24 174.74C443.94 174.532 443.549 174.428 443.068 174.428H440.822V186H437.394V171.781H443.068C444.207 171.781 445.187 171.99 446.007 172.406C446.834 172.823 447.469 173.396 447.911 174.125C448.354 174.848 448.576 175.674 448.576 176.605C448.576 177.523 448.354 178.324 447.911 179.008C447.469 179.691 446.834 180.225 446.007 180.609C445.187 180.987 444.207 181.176 443.068 181.176ZM457.645 186.195C456.786 186.195 456.018 186.062 455.341 185.795C454.664 185.521 454.091 185.147 453.622 184.672C453.16 184.197 452.805 183.65 452.558 183.031C452.317 182.413 452.196 181.758 452.196 181.068V180.697C452.196 179.923 452.304 179.206 452.518 178.549C452.733 177.885 453.052 177.305 453.476 176.811C453.899 176.316 454.429 175.932 455.067 175.658C455.705 175.378 456.448 175.238 457.294 175.238C458.043 175.238 458.713 175.359 459.306 175.6C459.898 175.84 460.399 176.186 460.809 176.635C461.226 177.084 461.542 177.628 461.757 178.266C461.978 178.904 462.089 179.62 462.089 180.414V181.752H453.456V179.691H458.876V179.438C458.882 179.086 458.821 178.786 458.69 178.539C458.567 178.292 458.384 178.103 458.143 177.973C457.903 177.842 457.61 177.777 457.265 177.777C456.907 177.777 456.61 177.855 456.376 178.012C456.148 178.168 455.969 178.383 455.839 178.656C455.715 178.923 455.627 179.232 455.575 179.584C455.523 179.936 455.497 180.307 455.497 180.697V181.068C455.497 181.459 455.549 181.814 455.653 182.133C455.764 182.452 455.92 182.725 456.122 182.953C456.33 183.174 456.578 183.347 456.864 183.471C457.157 183.594 457.489 183.656 457.86 183.656C458.309 183.656 458.752 183.572 459.188 183.402C459.625 183.233 459.999 182.953 460.311 182.562L461.806 184.34C461.591 184.646 461.285 184.942 460.888 185.229C460.497 185.515 460.028 185.749 459.481 185.932C458.934 186.107 458.323 186.195 457.645 186.195ZM469.147 178.051V186H465.856V175.434H468.932L469.147 178.051ZM472.272 175.355L472.213 178.412C472.083 178.399 471.907 178.383 471.686 178.363C471.465 178.344 471.279 178.334 471.129 178.334C470.745 178.334 470.413 178.38 470.133 178.471C469.86 178.555 469.632 178.686 469.45 178.861C469.274 179.031 469.144 179.245 469.059 179.506C468.981 179.766 468.945 180.069 468.952 180.414L468.356 180.023C468.356 179.314 468.424 178.669 468.561 178.09C468.704 177.504 468.906 176.999 469.167 176.576C469.427 176.146 469.743 175.818 470.114 175.59C470.485 175.355 470.902 175.238 471.364 175.238C471.527 175.238 471.686 175.248 471.842 175.268C472.005 175.287 472.148 175.316 472.272 175.355ZM480.053 186H476.742V174.574C476.742 173.754 476.908 173.064 477.24 172.504C477.572 171.944 478.041 171.521 478.647 171.234C479.252 170.941 479.968 170.795 480.795 170.795C481.082 170.795 481.352 170.814 481.606 170.854C481.86 170.893 482.107 170.941 482.348 171L482.358 173.422C482.24 173.389 482.12 173.367 481.996 173.354C481.873 173.34 481.72 173.334 481.537 173.334C481.218 173.334 480.948 173.383 480.727 173.48C480.505 173.572 480.336 173.712 480.219 173.9C480.108 174.083 480.053 174.307 480.053 174.574V186ZM482.104 175.434V177.719H475.219V175.434H482.104ZM485.275 180.824V180.619C485.275 179.844 485.386 179.132 485.607 178.48C485.829 177.823 486.154 177.253 486.584 176.771C487.013 176.29 487.544 175.915 488.176 175.648C488.807 175.375 489.536 175.238 490.363 175.238C491.196 175.238 491.929 175.375 492.56 175.648C493.198 175.915 493.732 176.29 494.162 176.771C494.592 177.253 494.917 177.823 495.138 178.48C495.36 179.132 495.47 179.844 495.47 180.619V180.824C495.47 181.592 495.36 182.305 495.138 182.963C494.917 183.614 494.592 184.184 494.162 184.672C493.732 185.154 493.202 185.528 492.57 185.795C491.939 186.062 491.209 186.195 490.383 186.195C489.556 186.195 488.823 186.062 488.185 185.795C487.547 185.528 487.013 185.154 486.584 184.672C486.154 184.184 485.829 183.614 485.607 182.963C485.386 182.305 485.275 181.592 485.275 180.824ZM488.566 180.619V180.824C488.566 181.221 488.595 181.592 488.654 181.938C488.713 182.283 488.81 182.585 488.947 182.846C489.084 183.1 489.269 183.298 489.504 183.441C489.738 183.585 490.031 183.656 490.383 183.656C490.728 183.656 491.014 183.585 491.242 183.441C491.476 183.298 491.662 183.1 491.799 182.846C491.935 182.585 492.033 182.283 492.092 181.938C492.15 181.592 492.179 181.221 492.179 180.824V180.619C492.179 180.235 492.15 179.874 492.092 179.535C492.033 179.19 491.935 178.887 491.799 178.627C491.662 178.36 491.476 178.152 491.242 178.002C491.008 177.852 490.715 177.777 490.363 177.777C490.018 177.777 489.728 177.852 489.494 178.002C489.266 178.152 489.084 178.36 488.947 178.627C488.81 178.887 488.713 179.19 488.654 179.535C488.595 179.874 488.566 180.235 488.566 180.619ZM502.656 178.051V186H499.365V175.434H502.441L502.656 178.051ZM505.781 175.355L505.722 178.412C505.592 178.399 505.416 178.383 505.195 178.363C504.973 178.344 504.788 178.334 504.638 178.334C504.254 178.334 503.922 178.38 503.642 178.471C503.368 178.555 503.141 178.686 502.958 178.861C502.783 179.031 502.652 179.245 502.568 179.506C502.49 179.766 502.454 180.069 502.46 180.414L501.865 180.023C501.865 179.314 501.933 178.669 502.07 178.09C502.213 177.504 502.415 176.999 502.675 176.576C502.936 176.146 503.251 175.818 503.622 175.59C503.993 175.355 504.41 175.238 504.872 175.238C505.035 175.238 505.195 175.248 505.351 175.268C505.514 175.287 505.657 175.316 505.781 175.355ZM512.634 177.67V186H509.343V175.434H512.429L512.634 177.67ZM512.233 180.355L511.481 180.375C511.481 179.633 511.569 178.949 511.745 178.324C511.921 177.699 512.181 177.156 512.526 176.693C512.871 176.231 513.295 175.873 513.796 175.619C514.304 175.365 514.89 175.238 515.554 175.238C516.016 175.238 516.436 175.31 516.813 175.453C517.191 175.59 517.517 175.808 517.79 176.107C518.063 176.4 518.272 176.785 518.415 177.26C518.565 177.729 518.64 178.292 518.64 178.949V186H515.349V179.369C515.349 178.92 515.296 178.581 515.192 178.354C515.095 178.126 514.951 177.973 514.763 177.895C514.574 177.816 514.343 177.777 514.069 177.777C513.783 177.777 513.526 177.842 513.298 177.973C513.07 178.103 512.875 178.285 512.712 178.52C512.556 178.747 512.435 179.018 512.351 179.33C512.272 179.643 512.233 179.984 512.233 180.355ZM518.268 180.355L517.351 180.375C517.351 179.633 517.432 178.949 517.595 178.324C517.764 177.699 518.015 177.156 518.347 176.693C518.685 176.231 519.105 175.873 519.606 175.619C520.108 175.365 520.69 175.238 521.354 175.238C521.836 175.238 522.279 175.31 522.683 175.453C523.086 175.596 523.435 175.827 523.727 176.146C524.02 176.465 524.248 176.889 524.411 177.416C524.574 177.937 524.655 178.581 524.655 179.35V186H521.354V179.35C521.354 178.913 521.302 178.585 521.198 178.363C521.101 178.135 520.957 177.982 520.768 177.904C520.58 177.82 520.355 177.777 520.095 177.777C519.782 177.777 519.512 177.842 519.284 177.973C519.056 178.103 518.864 178.285 518.708 178.52C518.558 178.747 518.448 179.018 518.376 179.33C518.304 179.643 518.268 179.984 518.268 180.355ZM534.428 183.344V178.988C534.428 178.689 534.386 178.432 534.301 178.217C534.217 178.002 534.083 177.836 533.901 177.719C533.719 177.595 533.474 177.533 533.168 177.533C532.921 177.533 532.71 177.576 532.534 177.66C532.358 177.745 532.224 177.872 532.133 178.041C532.042 178.21 531.997 178.425 531.997 178.686H528.706C528.706 178.197 528.813 177.745 529.028 177.328C529.249 176.905 529.562 176.537 529.965 176.225C530.376 175.912 530.864 175.671 531.43 175.502C532.003 175.326 532.641 175.238 533.344 175.238C534.184 175.238 534.933 175.378 535.59 175.658C536.254 175.938 536.779 176.358 537.163 176.918C537.547 177.471 537.739 178.168 537.739 179.008V183.334C537.739 184.024 537.778 184.548 537.856 184.906C537.934 185.258 538.045 185.567 538.188 185.834V186H534.887C534.731 185.674 534.614 185.277 534.536 184.809C534.464 184.333 534.428 183.845 534.428 183.344ZM534.829 179.545L534.848 181.303H533.393C533.087 181.303 532.827 181.345 532.612 181.43C532.404 181.514 532.234 181.632 532.104 181.781C531.98 181.924 531.889 182.087 531.831 182.27C531.779 182.452 531.752 182.644 531.752 182.846C531.752 183.041 531.798 183.217 531.889 183.373C531.987 183.523 532.117 183.64 532.28 183.725C532.443 183.809 532.625 183.852 532.827 183.852C533.191 183.852 533.501 183.783 533.754 183.646C534.015 183.503 534.213 183.331 534.35 183.129C534.487 182.927 534.555 182.738 534.555 182.562L535.278 183.91C535.148 184.171 534.998 184.434 534.829 184.701C534.666 184.968 534.461 185.215 534.213 185.443C533.973 185.665 533.676 185.847 533.325 185.99C532.973 186.127 532.547 186.195 532.045 186.195C531.394 186.195 530.795 186.062 530.249 185.795C529.708 185.528 529.275 185.157 528.95 184.682C528.624 184.2 528.461 183.646 528.461 183.021C528.461 182.475 528.559 181.986 528.754 181.557C528.956 181.127 529.259 180.762 529.663 180.463C530.066 180.163 530.581 179.936 531.206 179.779C531.831 179.623 532.566 179.545 533.413 179.545H534.829ZM545.197 177.689V186H541.906V175.434H544.992L545.197 177.689ZM544.807 180.355L544.035 180.375C544.035 179.568 544.133 178.848 544.328 178.217C544.524 177.579 544.8 177.038 545.158 176.596C545.516 176.153 545.943 175.818 546.438 175.59C546.939 175.355 547.496 175.238 548.108 175.238C548.596 175.238 549.042 175.31 549.445 175.453C549.856 175.596 550.207 175.827 550.5 176.146C550.8 176.465 551.027 176.889 551.184 177.416C551.346 177.937 551.428 178.581 551.428 179.35V186H548.117V179.34C548.117 178.917 548.059 178.594 547.942 178.373C547.824 178.145 547.655 177.989 547.434 177.904C547.212 177.82 546.942 177.777 546.623 177.777C546.285 177.777 545.998 177.842 545.764 177.973C545.529 178.103 545.341 178.285 545.197 178.52C545.061 178.747 544.96 179.018 544.895 179.33C544.836 179.643 544.807 179.984 544.807 180.355ZM560.117 183.656C560.423 183.656 560.683 183.601 560.898 183.49C561.12 183.373 561.286 183.21 561.396 183.002C561.513 182.787 561.569 182.53 561.562 182.23H564.658C564.664 183.025 564.469 183.721 564.072 184.32C563.681 184.913 563.148 185.375 562.47 185.707C561.8 186.033 561.041 186.195 560.195 186.195C559.368 186.195 558.646 186.062 558.027 185.795C557.409 185.521 556.891 185.144 556.474 184.662C556.064 184.174 555.755 183.604 555.547 182.953C555.345 182.302 555.244 181.596 555.244 180.834V180.609C555.244 179.848 555.345 179.141 555.547 178.49C555.755 177.833 556.064 177.263 556.474 176.781C556.891 176.293 557.405 175.915 558.017 175.648C558.636 175.375 559.355 175.238 560.176 175.238C561.054 175.238 561.829 175.404 562.5 175.736C563.177 176.068 563.707 176.55 564.092 177.182C564.476 177.813 564.664 178.578 564.658 179.477H561.562C561.569 179.158 561.52 178.871 561.416 178.617C561.312 178.363 561.149 178.161 560.927 178.012C560.713 177.855 560.436 177.777 560.097 177.777C559.759 177.777 559.485 177.852 559.277 178.002C559.069 178.152 558.909 178.36 558.799 178.627C558.694 178.887 558.623 179.187 558.584 179.525C558.551 179.864 558.535 180.225 558.535 180.609V180.834C558.535 181.225 558.551 181.592 558.584 181.938C558.623 182.276 558.698 182.576 558.808 182.836C558.919 183.09 559.079 183.292 559.287 183.441C559.495 183.585 559.772 183.656 560.117 183.656ZM573.581 186.195C572.722 186.195 571.954 186.062 571.277 185.795C570.6 185.521 570.027 185.147 569.558 184.672C569.096 184.197 568.741 183.65 568.493 183.031C568.253 182.413 568.132 181.758 568.132 181.068V180.697C568.132 179.923 568.24 179.206 568.454 178.549C568.669 177.885 568.988 177.305 569.411 176.811C569.835 176.316 570.365 175.932 571.003 175.658C571.641 175.378 572.383 175.238 573.23 175.238C573.979 175.238 574.649 175.359 575.242 175.6C575.834 175.84 576.335 176.186 576.745 176.635C577.162 177.084 577.478 177.628 577.693 178.266C577.914 178.904 578.025 179.62 578.025 180.414V181.752H569.392V179.691H574.812V179.438C574.818 179.086 574.757 178.786 574.626 178.539C574.503 178.292 574.32 178.103 574.079 177.973C573.839 177.842 573.546 177.777 573.201 177.777C572.842 177.777 572.546 177.855 572.312 178.012C572.084 178.168 571.905 178.383 571.775 178.656C571.651 178.923 571.563 179.232 571.511 179.584C571.459 179.936 571.433 180.307 571.433 180.697V181.068C571.433 181.459 571.485 181.814 571.589 182.133C571.7 182.452 571.856 182.725 572.058 182.953C572.266 183.174 572.514 183.347 572.8 183.471C573.093 183.594 573.425 183.656 573.796 183.656C574.245 183.656 574.688 183.572 575.124 183.402C575.561 183.233 575.935 182.953 576.247 182.562L577.742 184.34C577.527 184.646 577.221 184.942 576.824 185.229C576.433 185.515 575.964 185.749 575.417 185.932C574.87 186.107 574.258 186.195 573.581 186.195Z" fill="url(#paint9_linear_906_1093)"/>
<defs>
<linearGradient id="paint0_linear_906_1093" x1="32.8882" y1="28.1818" x2="331.164" y2="519.895" gradientUnits="userSpaceOnUse">
<stop stop-color="#0A0D14"/>
<stop offset="1" stop-color="#3D4F7A"/>
</linearGradient>
<linearGradient id="paint1_linear_906_1093" x1="113.312" y1="87" x2="113.312" y2="267" gradientUnits="userSpaceOnUse">
<stop stop-color="#D9D9D9" stop-opacity="0.12"/>
<stop offset="1" stop-color="#737373" stop-opacity="0"/>
</linearGradient>
<linearGradient id="paint2_linear_906_1093" x1="113.312" y1="87" x2="113.312" y2="267" gradientUnits="userSpaceOnUse">
<stop stop-color="white"/>
<stop offset="0.942308" stop-color="white" stop-opacity="0"/>
</linearGradient>
<linearGradient id="paint3_linear_906_1093" x1="311.101" y1="87" x2="311.101" y2="267" gradientUnits="userSpaceOnUse">
<stop stop-color="#D9D9D9" stop-opacity="0.12"/>
<stop offset="1" stop-color="#737373" stop-opacity="0"/>
</linearGradient>
<linearGradient id="paint4_linear_906_1093" x1="311.101" y1="87" x2="311.101" y2="267" gradientUnits="userSpaceOnUse">
<stop offset="0.0576923" stop-color="white" stop-opacity="0"/>
<stop offset="1" stop-color="white"/>
</linearGradient>
<linearGradient id="paint5_linear_906_1093" x1="507.878" y1="87" x2="507.878" y2="267" gradientUnits="userSpaceOnUse">
<stop stop-color="#D9D9D9" stop-opacity="0.12"/>
<stop offset="1" stop-color="#737373" stop-opacity="0"/>
</linearGradient>
<linearGradient id="paint6_linear_906_1093" x1="507.878" y1="87" x2="507.878" y2="267" gradientUnits="userSpaceOnUse">
<stop stop-color="white"/>
<stop offset="0.942308" stop-color="white" stop-opacity="0"/>
</linearGradient>
<linearGradient id="paint7_linear_906_1093" x1="74.8662" y1="179" x2="150.744" y2="179" gradientUnits="userSpaceOnUse">
<stop stop-color="#2DB9B1"/>
<stop offset="1" stop-color="#00AEFF"/>
</linearGradient>
<linearGradient id="paint8_linear_906_1093" x1="261.021" y1="179" x2="361.181" y2="179" gradientUnits="userSpaceOnUse">
<stop stop-color="#E54500"/>
<stop offset="1" stop-color="#FFAE00"/>
</linearGradient>
<linearGradient id="paint9_linear_906_1093" x1="435.035" y1="179" x2="579.71" y2="179" gradientUnits="userSpaceOnUse">
<stop stop-color="#0048FF"/>
<stop offset="1" stop-color="#C5B5FD"/>
</linearGradient>
</defs>
</svg>
