<svg width="50" height="63" viewBox="0 0 50 63" fill="none" xmlns="http://www.w3.org/2000/svg">
<path d="M49.9451 25.8088C49.9451 21.1003 49.8856 16.3853 49.9782 11.6768C50.0113 10.0394 49.482 9.57246 47.8412 9.43436C39.6574 8.75045 32.0557 6.52773 26.0419 0.550059C25.2876 -0.199616 24.7121 -0.173311 23.9645 0.569787C17.944 6.54088 10.3423 8.7636 2.15845 9.43436C0.4714 9.56588 0.0347504 10.1117 0.0479822 11.6965C0.114141 20.2389 0.259691 28.7944 0.00828685 37.3301C-0.130647 41.9466 1.48363 45.6489 4.3814 48.9764C9.86598 55.2763 16.9251 59.3666 24.3945 62.8585C25.0693 63.1742 25.5721 62.898 26.108 62.6481C31.0501 60.3399 35.7672 57.6569 40.061 54.2833C43.0183 51.962 45.6977 49.3775 47.7222 46.1881C49.2174 43.8339 50.0973 41.3416 49.9914 38.4612C49.8392 34.246 49.9517 30.0307 49.9517 25.8088H49.9451ZM45.7705 45.5634C43.8916 48.378 41.4701 50.6862 38.8172 52.7577C34.8609 55.8419 30.5605 58.3671 26.0286 60.5109C25.3935 60.8134 24.8642 60.9449 24.1828 60.6161C17.8712 57.5451 11.8904 54.0071 6.96821 48.9304C5.77735 47.7072 4.73204 46.3657 3.83889 44.9124C2.6348 42.9593 2.00629 40.9141 2.02614 38.5599C2.11214 30.0175 2.07906 21.4686 2.03937 12.9263C2.03937 11.8741 2.21138 11.4729 3.39563 11.3349C11.1825 10.4471 18.4667 8.23094 24.4408 2.87142C24.9635 2.40452 25.2479 2.5755 25.6647 2.95033C31.6654 8.28354 38.9495 10.4668 46.7364 11.3546C47.7354 11.4664 47.9934 11.736 47.9868 12.7158C47.9339 17.3191 47.9603 21.9158 47.9603 26.5191C47.9603 30.4647 47.8479 34.4104 48 38.3494C48.1059 41.0719 47.2326 43.3867 45.7771 45.57L45.7705 45.5634Z" fill="white"/>
<path d="M36.5545 29.1232C36.5545 28.0118 36.2568 26.8018 35.2644 26.4664C33.6435 25.914 33.4715 24.8816 33.5906 23.5072C33.6104 23.2442 33.5112 22.968 33.445 22.7049C32.5188 19.0881 28.8338 16.7536 24.7915 17.2073C20.4316 17.6939 17.7654 20.3507 17.5801 24.3424C17.5537 24.9079 17.9837 25.6181 16.945 25.9272C15.3042 26.4138 14.6956 27.6633 14.7154 29.3336C14.7551 32.6151 14.7154 35.8966 14.7287 39.178C14.7419 41.6506 15.8534 42.7423 18.3806 42.7686C20.8021 42.7949 23.2235 42.7686 25.6449 42.7686C28.1788 42.7686 30.7061 42.808 33.24 42.7554C35.3041 42.7094 36.5148 41.5125 36.5413 39.4608C36.5876 36.0149 36.5479 32.5691 36.5545 29.1232ZM19.5847 24.4542C19.6377 23.9675 19.6509 23.4677 19.77 22.9943C20.458 20.3836 23.4153 18.7593 26.6042 19.2196C29.8129 19.6865 31.7051 21.7382 31.6588 24.6317C31.6455 25.4406 31.4735 25.8154 30.5605 25.776C28.9198 25.7102 27.2658 25.7562 25.6251 25.7562C24.0306 25.7562 22.4362 25.6905 20.855 25.7825C19.7832 25.8417 19.4789 25.3945 19.5847 24.4542ZM32.6908 40.8155C30.329 40.7629 27.9605 40.8023 25.592 40.8023C23.2235 40.8023 20.8616 40.7694 18.4931 40.8155C17.2758 40.8352 16.6605 40.4538 16.687 39.1254C16.7399 35.9031 16.7399 32.6743 16.687 29.4454C16.6671 28.1433 17.2295 27.7159 18.4667 27.7225C23.2499 27.7488 28.0399 27.7488 32.8232 27.7225C34.0868 27.7159 34.5962 28.2486 34.5764 29.498C34.5367 32.6677 34.5234 35.8439 34.5764 39.0136C34.5962 40.388 33.9809 40.8418 32.6776 40.8155H32.6908Z" fill="white"/>
<path d="M27.1269 34.772C27.1004 35.6204 26.8821 36.1596 26.2337 36.4029C25.5655 36.6528 24.9172 36.5805 24.4408 35.9952C24.0372 35.4954 23.8983 34.9167 24.2953 34.3314C24.4474 34.1144 24.6261 33.8777 24.851 33.7528C25.5655 33.3648 24.7121 31.6813 25.7309 32.1482C26.247 32.3849 26.6968 33.9698 27.1202 34.772H27.1269Z" fill="white"/>
</svg>
