<svg width="50" height="49" viewBox="0 0 50 49" fill="none" xmlns="http://www.w3.org/2000/svg">
<path d="M23.8843 4.32536C23.8843 3.47518 23.8843 2.62499 23.8843 1.7748C23.8843 1.04035 24.2026 0.532907 24.9692 0.501749C25.7538 0.466139 26.108 0.978032 26.1125 1.70358C26.1304 3.47963 26.126 5.25567 26.1125 7.03172C26.108 7.79288 25.6462 8.238 24.9244 8.20685C24.2474 8.17569 23.8887 7.68605 23.8843 6.99166C23.8843 6.10586 23.8843 5.21561 23.8843 4.32982V4.32536Z" fill="white"/>
<path d="M3.8794 26.4213C3.02307 26.4213 2.16675 26.4302 1.30594 26.4213C0.521347 26.4124 -0.0301094 26.0207 0.00127433 25.2284C0.0281746 24.4761 0.597564 24.1957 1.32836 24.2002C3.04101 24.2135 4.75814 24.2091 6.4708 24.2002C7.21056 24.2002 7.73511 24.485 7.76649 25.2551C7.79788 26.1053 7.20159 26.3991 6.44838 26.4169C5.59205 26.4391 4.73573 26.4213 3.87492 26.4213H3.8794Z" fill="white"/>
<path d="M46.0905 24.2002C46.9871 24.2002 47.8793 24.2002 48.776 24.2002C49.5471 24.2002 50.0045 24.6008 50 25.3352C50 26.0341 49.4799 26.3946 48.8119 26.408C47.023 26.4347 45.2341 26.4347 43.4453 26.408C42.719 26.3991 42.2123 26.0163 42.2303 25.2506C42.2482 24.4628 42.7952 24.1957 43.5215 24.2002C44.3778 24.2002 45.2341 24.2002 46.0949 24.2002H46.0905Z" fill="white"/>
<path d="M12.9583 12.1506C12.9672 12.6892 12.7969 13.0409 12.3978 13.2501C12.0033 13.4549 11.5729 13.4638 11.2501 13.1566C9.89162 11.8435 8.53764 10.5259 7.23297 9.16386C6.83843 8.7499 6.93259 8.18459 7.33161 7.75727C7.70373 7.36111 8.2238 7.24538 8.64075 7.59703C10.1427 8.86563 11.4967 10.2856 12.8327 11.7233C12.9448 11.8435 12.9358 12.0661 12.9627 12.1551L12.9583 12.1506Z" fill="white"/>
<path d="M41.8761 7.39672C42.3065 7.48575 42.6652 7.60148 42.849 7.96203C43.0642 8.38935 43.0821 8.85228 42.7369 9.20392C41.4412 10.5259 40.132 11.8391 38.7915 13.121C38.3566 13.5394 37.8141 13.4549 37.3748 13.0765C36.9085 12.6759 36.8457 12.0705 37.2089 11.6788C38.527 10.2767 39.9213 8.94575 41.3067 7.60593C41.4502 7.46794 41.7102 7.45014 41.8761 7.39672Z" fill="white"/>
<path d="M42.9835 41.9606C42.9835 42.9265 41.9971 43.5452 41.347 42.971C39.9079 41.698 38.5629 40.3136 37.2358 38.9249C36.8412 38.5109 36.9578 37.9411 37.3658 37.5227C37.7514 37.1266 38.3163 37.0464 38.6839 37.3892C40.0962 38.6978 41.4457 40.0644 42.8041 41.4309C42.9431 41.5689 42.9476 41.8404 42.988 41.9606H42.9835Z" fill="white"/>
<path d="M12.9627 38.3685C12.9807 38.7513 12.7386 39.0272 12.474 39.2943C11.3442 40.416 10.2099 41.5333 9.08461 42.6594C8.53764 43.207 7.91893 43.4028 7.33609 42.8152C6.75325 42.2277 6.96397 41.6179 7.51543 41.0793C8.67662 39.9353 9.82885 38.7869 10.9856 37.6385C11.3936 37.2334 11.8643 37.0909 12.4023 37.358C12.8103 37.5583 12.9941 37.8966 12.9672 38.3729L12.9627 38.3685Z" fill="white"/>
<path d="M38.5987 23.5458C37.7245 17.461 33.0348 12.7382 26.9823 11.8524C20.979 10.9711 14.9937 14.2605 12.5099 19.8068C10.0082 25.3842 11.3711 31.9854 16.4015 35.6621C18.7642 37.3892 19.6071 39.1074 19.0736 41.7603C19.0736 42.8687 19.0736 43.9815 19.0736 45.0898C19.0736 45.2011 19.0781 45.3124 19.087 45.4237C19.226 47.2487 20.4186 48.4327 22.2523 48.4772C23.965 48.5173 25.6821 48.495 27.3947 48.4817C29.7216 48.4639 30.9725 47.2264 30.9904 44.9118C31.0084 42.7663 31.0263 40.6208 30.9725 38.4753C30.9546 37.7453 31.2011 37.3936 31.8378 37.0286C36.635 34.2822 39.3519 28.8072 38.5942 23.5458H38.5987ZM28.7622 45.3346C28.668 45.9267 28.3587 46.2694 27.7265 46.2694C25.9018 46.2694 24.077 46.2694 22.2523 46.2694C21.665 46.2694 21.3736 45.9489 21.3108 45.3925C21.3018 45.3213 21.3018 45.2456 21.2973 45.1699C21.1449 43.2084 22.064 42.2277 24.0546 42.2277H26.1753C28.9684 42.2277 29.206 42.5126 28.7577 45.3391L28.7622 45.3346ZM30.0355 35.484C29.0401 36.0004 28.7173 36.5702 28.7442 37.6206C28.8025 40.0021 28.7622 40.0065 26.3322 40.0065H24.9917C24.0232 40.0065 23.0548 39.9843 22.0864 40.0154C21.5619 40.0332 21.1763 39.962 21.2973 39.3166C21.7278 37.0509 20.719 35.8535 18.7194 34.6695C14.0343 31.9008 12.3261 25.945 14.3929 20.9686C16.4463 16.0143 21.9071 13.0676 27.0854 14.1092C32.6224 15.2265 36.5095 19.8468 36.4333 25.353C36.3705 29.9868 34.1288 33.3653 30.0355 35.4885V35.484Z" fill="white"/>
</svg>
