<svg width="1296" height="573" viewBox="0 0 1296 573" fill="none" xmlns="http://www.w3.org/2000/svg">
<g filter="url(#filter0_i_92_218)">
<path d="M1216 0H80C35.8172 0 0 35.8172 0 80V493C0 537.183 35.8172 573 80 573H1216C1260.18 573 1296 537.183 1296 493V80C1296 35.8172 1260.18 0 1216 0Z" fill="#2DB9B1" fill-opacity="0.01"/>
</g>
<path d="M80 1H1216C1259.63 1 1295 36.3695 1295 80V493C1295 536.631 1259.63 572 1216 572H80C36.3695 572 1 536.631 1 493V80C1 36.3695 36.3695 1 80 1Z" stroke="#2DB9B1" stroke-width="2"/>
<path opacity="0.95" d="M83.9209 6.51953H1211.09C1254.2 6.51953 1289.14 41.4636 1289.14 84.5693V488.75C1289.14 531.856 1254.2 566.8 1211.09 566.8H83.9209C40.8153 566.8 5.87134 531.856 5.87109 488.75V84.5693L5.87793 83.5605C6.41815 40.9198 41.152 6.51963 83.9209 6.51953Z" stroke="#2DB9B1" stroke-width="2"/>
<path opacity="0.9" d="M87.8418 12.0498H1206.19C1248.77 12.0499 1283.29 46.5685 1283.29 89.1494V484.51C1283.29 527.091 1248.77 561.609 1206.19 561.609H87.8418C45.2608 561.609 10.7422 527.091 10.7422 484.51V89.1494C10.7424 46.5686 45.261 12.05 87.8418 12.0498Z" stroke="#2DB9B1" stroke-width="2"/>
<path opacity="0.85" d="M91.749 17.5703H1201.29C1243.34 17.5703 1277.43 51.6592 1277.43 93.71V480.271C1277.43 522.321 1243.34 556.41 1201.29 556.41H91.749C49.6983 556.41 15.6095 522.321 15.6094 480.271V93.71L15.6152 92.7266C16.1419 51.1291 50.0266 17.5705 91.749 17.5703Z" stroke="#2DB9B1" stroke-width="2"/>
<path opacity="0.8" d="M95.6592 23.0996H1196.38C1237.91 23.0997 1271.57 56.7638 1271.57 98.29V476.029C1271.57 517.556 1237.91 551.22 1196.38 551.22H95.6592C54.1329 551.22 20.4688 517.556 20.4688 476.029V98.29C20.4688 56.7637 54.1329 23.0996 95.6592 23.0996Z" stroke="#2DB9B1" stroke-width="2"/>
<path opacity="0.75" d="M99.5801 28.6201H1191.47C1232.47 28.6201 1265.71 61.8587 1265.71 102.86V471.78C1265.71 512.782 1232.47 546.021 1191.47 546.021H99.5801C58.5785 546.021 25.3399 512.782 25.3398 471.78V102.86C25.3398 61.8587 58.5785 28.6201 99.5801 28.6201Z" stroke="#2DB9B1" stroke-width="2"/>
<path opacity="0.7" d="M103.501 34.1396H1186.57C1227.05 34.1398 1259.86 66.9529 1259.86 107.43V467.52C1259.86 507.996 1227.05 540.809 1186.57 540.81H103.501C63.024 540.81 30.2109 507.996 30.2109 467.52V107.43C30.2109 66.9527 63.024 34.1396 103.501 34.1396Z" stroke="#2DB9B1" stroke-width="2"/>
<path opacity="0.65" d="M107.408 39.6699H1181.67C1221.61 39.6699 1254 72.0532 1254 112V463.29C1254 503.237 1221.61 535.62 1181.67 535.62H107.408C67.4615 535.62 35.0782 503.237 35.0781 463.29V112C35.0781 72.0532 67.4614 39.6699 107.408 39.6699Z" stroke="#2DB9B1" stroke-width="2"/>
<path opacity="0.6" d="M111.329 45.1895H1176.76C1216.18 45.1897 1248.14 77.1475 1248.14 116.569V459.039C1248.14 498.461 1216.18 530.42 1176.76 530.42H111.329C71.9071 530.42 39.9492 498.461 39.9492 459.039V116.569C39.9493 77.1473 71.9071 45.1895 111.329 45.1895Z" stroke="#2DB9B1" stroke-width="2"/>
<path opacity="0.55" d="M115.25 50.71H1171.86C1210.76 50.71 1242.29 82.2424 1242.29 121.14V454.79C1242.29 493.687 1210.76 525.22 1171.86 525.22H115.25C76.3527 525.22 44.8203 493.687 44.8203 454.79V121.14C44.8205 82.2425 76.3528 50.7101 115.25 50.71Z" stroke="#2DB9B1" stroke-width="2"/>
<path opacity="0.5" d="M119.172 56.2402H1166.95C1205.32 56.2402 1236.43 87.348 1236.43 125.721V450.55C1236.43 488.923 1205.32 520.03 1166.95 520.03H119.172C80.7991 520.03 49.6914 488.923 49.6914 450.55V125.721C49.6914 87.348 80.7991 56.2402 119.172 56.2402Z" stroke="#2DB9B1" stroke-width="2"/>
<path opacity="0.45" d="M123.07 61.7598H1162.05C1199.89 61.7598 1230.57 92.437 1230.57 130.279V446.31C1230.57 484.152 1199.89 514.83 1162.05 514.83H123.07C85.228 514.83 54.5508 484.152 54.5508 446.31V130.279L54.5566 129.395C55.0306 91.9601 85.5235 61.76 123.07 61.7598Z" stroke="#2DB9B1" stroke-width="2"/>
<path opacity="0.4" d="M126.992 67.29H1157.14C1194.46 67.29 1224.71 97.5425 1224.71 134.86V442.07C1224.71 479.388 1194.46 509.64 1157.14 509.64H126.992C89.6744 509.64 59.422 479.388 59.4219 442.07V134.86L59.4277 133.986C59.8955 97.0711 89.966 67.29 126.992 67.29Z" stroke="#2DB9B1" stroke-width="2"/>
<path opacity="0.35" d="M130.909 72.8105H1152.23C1189.02 72.8108 1218.85 102.638 1218.85 139.431V437.82C1218.85 474.613 1189.02 504.44 1152.23 504.44H130.909C94.116 504.44 64.2891 474.614 64.2891 437.82V139.431C64.2891 102.637 94.116 72.8105 130.909 72.8105Z" stroke="#2DB9B1" stroke-width="2"/>
<path opacity="0.3" d="M134.83 78.3301H1147.33C1183.6 78.3301 1213 107.731 1213 144V433.57C1213 469.839 1183.6 499.24 1147.33 499.24H134.83C98.5617 499.24 69.1603 469.839 69.1602 433.57V144C69.1602 107.732 98.5616 78.3301 134.83 78.3301Z" stroke="#2DB9B1" stroke-width="2"/>
<path opacity="0.25" d="M138.741 83.8604H1142.43C1178.17 83.8605 1207.14 112.832 1207.14 148.57V429.341C1207.14 465.079 1178.17 494.051 1142.43 494.051H138.741C103.003 494.051 74.0315 465.079 74.0312 429.341V148.57C74.0313 113.111 102.552 84.3128 137.905 83.8652L138.741 83.8604Z" stroke="#2DB9B1" stroke-width="2"/>
<path opacity="0.2" d="M142.658 89.3799H1137.53C1172.74 89.3799 1201.29 117.926 1201.29 153.14V425.09C1201.29 460.304 1172.74 488.85 1137.53 488.85H142.658C107.445 488.849 78.8984 460.303 78.8984 425.09V153.14C78.8986 117.926 107.445 89.38 142.658 89.3799Z" stroke="#2DB9B1" stroke-width="2"/>
<path opacity="0.15" d="M146.579 94.9004H1132.62C1167.31 94.9004 1195.43 123.021 1195.43 157.71V420.841C1195.43 455.53 1167.31 483.65 1132.62 483.65H146.579C111.89 483.65 83.7698 455.529 83.7695 420.841V157.71C83.7698 123.021 111.89 94.9006 146.579 94.9004Z" stroke="#2DB9B1" stroke-width="2"/>
<path opacity="0.1" d="M150.501 100.43H1127.72C1161.89 100.43 1189.58 128.126 1189.58 162.29V416.59C1189.58 450.754 1161.88 478.45 1127.72 478.45H150.501C116.337 478.45 88.6407 450.754 88.6406 416.59V162.29C88.6406 128.126 116.337 100.43 150.501 100.43Z" stroke="#2DB9B1" stroke-width="2"/>
<path opacity="0.05" d="M154.4 105.95H1122.81C1156.44 105.95 1183.71 133.217 1183.71 166.851V412.351C1183.71 445.984 1156.44 473.25 1122.81 473.25H154.4C120.766 473.25 93.5002 445.985 93.5 412.351V166.851C93.5 133.216 120.766 105.95 154.4 105.95Z" stroke="#2DB9B1" stroke-width="2"/>
<path d="M676.618 149C738.457 149 788.585 199.164 788.585 261.046V303.986H794.146C858.682 303.987 911 356.342 911 420.924V469.353H385V420.924C385 356.342 437.318 303.987 501.854 303.986H507.415V261.046C507.415 199.164 557.543 149 619.382 149H676.618ZM626.751 208.13C596.703 208.13 572.342 232.507 572.34 262.575L572.332 262.583V303.986H723.652V262.579C723.652 232.509 699.291 208.13 669.242 208.13H626.751Z" fill="url(#paint0_linear_92_218)" fill-opacity="0.14"/>
<defs>
<filter id="filter0_i_92_218" x="0" y="0" width="1326" height="573" filterUnits="userSpaceOnUse" color-interpolation-filters="sRGB">
<feFlood flood-opacity="0" result="BackgroundImageFix"/>
<feBlend mode="normal" in="SourceGraphic" in2="BackgroundImageFix" result="shape"/>
<feColorMatrix in="SourceAlpha" type="matrix" values="0 0 0 0 0 0 0 0 0 0 0 0 0 0 0 0 0 0 127 0" result="hardAlpha"/>
<feOffset dx="30"/>
<feGaussianBlur stdDeviation="62"/>
<feComposite in2="hardAlpha" operator="arithmetic" k2="-1" k3="1"/>
<feColorMatrix type="matrix" values="0 0 0 0 0.185622 0 0 0 0 1 0 0 0 0 0.953464 0 0 0 0.2 0"/>
<feBlend mode="normal" in2="shape" result="effect1_innerShadow_92_218"/>
</filter>
<linearGradient id="paint0_linear_92_218" x1="648" y1="149" x2="648" y2="469.353" gradientUnits="userSpaceOnUse">
<stop stop-color="#006FFF"/>
<stop offset="1" stop-color="#006FFF" stop-opacity="0"/>
</linearGradient>
</defs>
</svg>
